SplineFontDB: 3.0
FontName: wasy10
FullName: wasy10
FamilyName: wasy10
Weight: Book
Copyright: Copyright 1998 Taco Hoekwater
Version: 001.002
ItalicAngle: 0
UnderlinePosition: -77
UnderlineWidth: 51
Ascent: 819
Descent: 205
sfntRevision: 0x00010083
LayerCount: 2
Layer: 0 1 "Back"  1
Layer: 1 1 "Fore"  0
XUID: [1021 99 1815243471 5008996]
FSType: 0
OS2Version: 1
OS2_WeightWidthSlopeOnly: 0
OS2_UseTypoMetrics: 1
CreationTime: 896429674
ModificationTime: 1421634786
PfmFamily: 17
TTFWeight: 400
TTFWidth: 5
LineGap: 92
VLineGap: 0
Panose: 2 0 5 3 0 0 0 0 0 0
OS2TypoAscent: 0
OS2TypoAOffset: 1
OS2TypoDescent: 0
OS2TypoDOffset: 1
OS2TypoLinegap: 0
OS2WinAscent: 0
OS2WinAOffset: 1
OS2WinDescent: 0
OS2WinDOffset: 1
HheadAscent: 0
HheadAOffset: 1
HheadDescent: 0
HheadDOffset: 1
OS2SubXSize: 665
OS2SubYSize: 716
OS2SubXOff: 0
OS2SubYOff: 491
OS2SupXSize: 665
OS2SupYSize: 716
OS2SupXOff: 0
OS2SupYOff: 0
OS2StrikeYSize: 51
OS2StrikeYPos: 265
OS2Vendor: 'PfEd'
OS2CodePages: 00000001.00000000
OS2UnicodeRanges: 00000001.00000000.00000000.00000000
MarkAttachClasses: 1
DEI: 91125
ShortTable: cvt  2
  34
  648
EndShort
ShortTable: maxp 16
  1
  0
  134
  154
  9
  0
  0
  2
  0
  1
  1
  0
  64
  46
  0
  0
EndShort
LangName: 1033 "" "" "LyX" "FontForge 1.0 : wasy10 : 4-10-2007" 
GaspTable: 1 65535 2 0
Encoding: UnicodeBmp
UnicodeInterp: none
NameList: Adobe Glyph List
DisplaySize: -48
AntiAlias: 1
FitToEm: 1
WinInfo: 64 8 2
BeginPrivate: 0
EndPrivate
BeginChars: 65547 134

StartChar: .notdef
Encoding: 65536 -1 0
Width: 443
Flags: W
TeX: 682 0
LayerCount: 2
Fore
SplineSet
34 0 m 1,0,-1
 34 682 l 1,1,-1
 375 682 l 1,2,-1
 375 0 l 1,3,-1
 34 0 l 1,0,-1
68 34 m 1,4,-1
 341 34 l 1,5,-1
 341 648 l 1,6,-1
 68 648 l 1,7,-1
 68 34 l 1,4,-1
EndSplineSet
EndChar

StartChar: APLup
Encoding: 0 -1 3
AltUni2: 000000.ffffffff.0
Width: 681
GlyphClass: 2
Flags: W
TeX: 711 11
LayerCount: 2
Fore
SplineSet
77 -11 m 2,0,1
 73 -11 73 -11 70 -10 c 0,2,3
 56 -5 56 -5 56 9 c 0,4,5
 56 12 56 12 58 16 c 2,6,-1
 322 698 l 2,7,8
 326 711 326 711 340 711 c 0,9,10
 355 711 355 711 359 698 c 2,11,-1
 623 16 l 2,12,13
 624 14 624 14 624 9 c 0,14,15
 624 -5 624 -5 610 -10 c 0,16,17
 608 -11 608 -11 603 -11 c 2,18,-1
 77 -11 l 2,0,1
573 30 m 1,19,-1
 340 634 l 1,20,-1
 108 30 l 1,21,-1
 573 30 l 1,19,-1
EndSplineSet
EndChar

StartChar: lhd
Encoding: 1 1 4
Width: 795
GlyphClass: 2
Flags: W
TeX: 554 42
LayerCount: 2
Fore
SplineSet
679 -40 m 2,0,-1
 96 238 l 2,1,2
 84 244 84 244 84 257 c 0,3,4
 84 269 84 269 96 274 c 2,5,-1
 679 552 l 2,6,7
 685 554 685 554 688 554 c 0,8,9
 698 554 698 554 706 543 c 1,10,11
 708 537 708 537 708 534 c 2,12,-1
 708 -22 l 2,13,14
 708 -25 708 -25 706 -31 c 1,15,16
 697 -42 697 -42 688 -42 c 0,17,18
 682 -42 682 -42 679 -40 c 2,0,-1
667 11 m 1,19,-1
 667 501 l 1,20,-1
 153 256 l 1,21,-1
 667 11 l 1,19,-1
EndSplineSet
EndChar

StartChar: unlhd
Encoding: 2 2 5
Width: 795
GlyphClass: 2
Flags: W
TeX: 651 146
LayerCount: 2
Fore
SplineSet
679 57 m 2,0,-1
 96 335 l 1,1,2
 84 342 84 342 84 353 c 0,3,4
 84 367 84 367 96 372 c 2,5,-1
 679 649 l 2,6,7
 685 651 685 651 688 651 c 0,8,9
 698 651 698 651 706 640 c 1,10,11
 708 634 708 634 708 631 c 2,12,-1
 708 76 l 2,13,14
 708 73 708 73 706 67 c 1,15,16
 698 55 698 55 688 55 c 0,17,18
 682 55 682 55 679 57 c 2,0,-1
667 109 m 1,19,-1
 667 598 l 1,20,-1
 153 353 l 1,21,-1
 667 109 l 1,19,-1
688 -146 m 2,22,-1
 104 -146 l 2,23,24
 96 -146 96 -146 90 -140 c 128,-1,25
 84 -134 84 -134 84 -126 c 128,-1,26
 84 -118 84 -118 90 -111.5 c 128,-1,27
 96 -105 96 -105 104 -105 c 2,28,-1
 688 -105 l 2,29,30
 696 -105 696 -105 702.5 -111.5 c 128,-1,31
 709 -118 709 -118 709 -126 c 128,-1,32
 709 -134 709 -134 702.5 -140 c 128,-1,33
 696 -146 696 -146 688 -146 c 2,22,-1
EndSplineSet
EndChar

StartChar: rhd
Encoding: 3 3 6
Width: 795
GlyphClass: 2
Flags: W
TeX: 554 42
LayerCount: 2
Fore
SplineSet
85 534 m 2,0,1
 85 537 85 537 87 543 c 1,2,3
 93 554 93 554 105 554 c 0,4,5
 109 554 109 554 115 552 c 2,6,-1
 697 274 l 2,7,8
 710 268 710 268 710 255 c 0,9,10
 710 243 710 243 697 238 c 1,11,-1
 115 -40 l 2,12,13
 109 -42 109 -42 105 -42 c 0,14,15
 93 -42 93 -42 87 -31 c 1,16,17
 85 -25 85 -25 85 -22 c 2,18,-1
 85 534 l 2,0,1
126 11 m 1,19,-1
 641 256 l 1,20,-1
 126 501 l 1,21,-1
 126 11 l 1,19,-1
EndSplineSet
EndChar

StartChar: unrhd
Encoding: 4 4 7
Width: 795
GlyphClass: 2
Flags: W
TeX: 651 146
LayerCount: 2
Fore
SplineSet
87 640 m 1,0,1
 93 651 93 651 105 651 c 0,2,3
 109 651 109 651 115 649 c 2,4,-1
 697 372 l 2,5,6
 710 366 710 366 710 352 c 0,7,8
 710 340 710 340 697 335 c 1,9,-1
 115 57 l 2,10,11
 112 55 112 55 105 55 c 0,12,13
 92 55 92 55 87 67 c 0,14,15
 85 73 85 73 85 76 c 2,16,-1
 85 631 l 2,17,18
 85 634 85 634 87 640 c 1,0,1
126 109 m 1,19,-1
 641 353 l 1,20,-1
 126 598 l 1,21,-1
 126 109 l 1,19,-1
105 -146 m 2,22,23
 97 -146 97 -146 91 -140 c 128,-1,24
 85 -134 85 -134 85 -126 c 128,-1,25
 85 -118 85 -118 91 -111.5 c 128,-1,26
 97 -105 97 -105 105 -105 c 2,27,-1
 689 -105 l 2,28,29
 697 -105 697 -105 703.5 -111.5 c 128,-1,30
 710 -118 710 -118 710 -126 c 128,-1,31
 710 -134 710 -134 703.5 -140 c 128,-1,32
 697 -146 697 -146 689 -146 c 2,33,-1
 105 -146 l 2,22,23
EndSplineSet
EndChar

StartChar: therefore
Encoding: 5 5 8
Width: 681
GlyphClass: 2
Flags: W
TeX: 495 0
LayerCount: 2
Fore
SplineSet
117 109 m 0,0,1
 139 109 139 109 154.5 93 c 128,-1,2
 170 77 170 77 170 54 c 0,3,4
 170 32 170 32 154.5 16 c 128,-1,5
 139 0 139 0 117 0 c 128,-1,6
 95 0 95 0 78.5 16 c 128,-1,7
 62 32 62 32 62 54 c 128,-1,8
 62 76 62 76 78 92.5 c 128,-1,9
 94 109 94 109 117 109 c 0,0,1
563 109 m 0,10,11
 586 109 586 109 601.5 93 c 128,-1,12
 617 77 617 77 617 54 c 0,13,14
 617 32 617 32 601.5 16 c 128,-1,15
 586 0 586 0 563 0 c 0,16,17
 541 0 541 0 525.5 16 c 128,-1,18
 510 32 510 32 510 54 c 0,19,20
 510 77 510 77 525.5 93 c 128,-1,21
 541 109 541 109 563 109 c 0,10,11
340 495 m 128,-1,23
 362 495 362 495 378 479.5 c 128,-1,24
 394 464 394 464 394 441 c 128,-1,25
 394 418 394 418 378 402.5 c 128,-1,26
 362 387 362 387 340 387 c 128,-1,27
 318 387 318 387 302.5 402.5 c 128,-1,28
 287 418 287 418 287 441 c 128,-1,29
 287 464 287 464 302.5 479.5 c 128,-1,22
 318 495 318 495 340 495 c 128,-1,23
EndSplineSet
EndChar

StartChar: recorder
Encoding: 6 6 9
Width: 753
GlyphClass: 2
Flags: W
TeX: 579 47
LayerCount: 2
Fore
SplineSet
628 284 m 0,0,1
 628 389 628 389 554 463 c 1,2,3
 477 538 477 538 374 538 c 0,4,5
 272 538 272 538 195 463 c 0,6,7
 121 391 121 391 121 284 c 0,8,9
 121 190 121 190 181 119 c 1,10,-1
 282 220 l 2,11,12
 288 226 288 226 296 226 c 128,-1,13
 304 226 304 226 310.5 220 c 128,-1,14
 317 214 317 214 317 206 c 256,15,16
 317 198 317 198 311 191 c 2,17,-1
 210 90 l 1,18,19
 281 30 281 30 374 30 c 0,20,21
 480 30 480 30 554 104 c 1,22,23
 628 180 628 180 628 284 c 0,0,1
166 492 m 1,24,25
 253 579 253 579 374 579 c 0,26,27
 494 579 494 579 583 492 c 1,28,29
 669 404 669 404 669 284 c 0,30,31
 669 161 669 161 583 75 c 128,-1,32
 497 -11 497 -11 374 -11 c 0,33,34
 263 -11 263 -11 180 61 c 1,35,-1
 79 -41 l 2,36,37
 73 -47 73 -47 63 -47 c 0,38,39
 55 -47 55 -47 49 -41 c 128,-1,40
 43 -35 43 -35 43 -27 c 0,41,42
 43 -18 43 -18 49 -12 c 2,43,-1
 152 90 l 1,44,45
 79 172 79 172 79 284 c 0,46,47
 79 403 79 403 166 492 c 1,24,25
EndSplineSet
EndChar

StartChar: phone
Encoding: 7 7 10
Width: 1065
GlyphClass: 2
Flags: W
TeX: 640 0
LayerCount: 2
Fore
SplineSet
700 428 m 1,0,1
 800 385 800 385 861.5 299 c 128,-1,2
 923 213 923 213 923 106 c 2,3,-1
 923 0 l 1,4,-1
 142 0 l 1,5,-1
 142 106 l 2,6,7
 142 213 142 213 203 299 c 128,-1,8
 264 385 264 385 365 428 c 1,9,10
 328 380 328 380 328 321 c 0,11,12
 328 241 328 241 388 187 c 128,-1,13
 448 133 448 133 532 133 c 128,-1,14
 616 133 616 133 676.5 187 c 128,-1,15
 737 241 737 241 737 321 c 0,16,17
 737 380 737 380 700 428 c 1,0,1
692 321 m 0,18,19
 692 260 692 260 644.5 219 c 128,-1,20
 597 178 597 178 532 178 c 128,-1,21
 467 178 467 178 420 219 c 128,-1,22
 373 260 373 260 373 321 c 0,23,24
 373 381 373 381 420 421.5 c 128,-1,25
 467 462 467 462 532 462 c 128,-1,26
 597 462 597 462 644.5 421.5 c 128,-1,27
 692 381 692 381 692 321 c 0,18,19
261 496 m 1,28,-1
 285 427 l 1,29,-1
 71 355 l 1,30,-1
 36 427 l 1,31,-1
 36 534 l 1,32,33
 143 569 143 569 203.5 587 c 128,-1,34
 264 605 264 605 358 622.5 c 128,-1,35
 452 640 452 640 532 640 c 128,-1,36
 612 640 612 640 706 622.5 c 128,-1,37
 800 605 800 605 861.5 587 c 128,-1,38
 923 569 923 569 1029 534 c 1,39,-1
 1029 427 l 1,40,-1
 993 355 l 1,41,-1
 780 427 l 1,42,-1
 803 496 l 1,43,44
 651 534 651 534 532 534 c 0,45,46
 415 534 415 534 261 496 c 1,28,-1
EndSplineSet
EndChar

StartChar: checked
Encoding: 8 8 11
Width: 753
GlyphClass: 2
Flags: W
TeX: 711 0
LayerCount: 2
Fore
SplineSet
206 0 m 1,0,1
 152 134 152 134 48 240 c 1,2,-1
 66 258 l 1,3,4
 156 168 156 168 234 61 c 1,5,6
 409 425 409 425 695 711 c 1,7,-1
 713 693 l 1,8,9
 417 398 417 398 278 0 c 1,10,-1
 206 0 l 1,0,1
EndSplineSet
EndChar

StartChar: pointer
Encoding: 9 9 12
Width: 512
GlyphClass: 2
Flags: W
TeX: 659 0
LayerCount: 2
Fore
SplineSet
49 462 m 2,0,-1
 231 462 l 1,1,-1
 231 639 l 2,2,3
 231 647 231 647 237 653 c 128,-1,4
 243 659 243 659 252 659 c 0,5,6
 263 659 263 659 269 650 c 0,7,8
 476 335 476 335 476 330 c 128,-1,9
 476 325 476 325 269 9 c 0,10,11
 262 0 262 0 252 0 c 0,12,13
 244 0 244 0 237.5 6 c 128,-1,14
 231 12 231 12 231 20 c 2,15,-1
 231 198 l 1,16,-1
 49 198 l 2,17,18
 41 198 41 198 35 204 c 128,-1,19
 29 210 29 210 29 218 c 2,20,-1
 29 441 l 2,21,22
 29 450 29 450 35 456 c 128,-1,23
 41 462 41 462 49 462 c 2,0,-1
70 421 m 1,24,-1
 70 239 l 1,25,-1
 252 239 l 2,26,27
 260 239 260 239 266 233 c 128,-1,28
 272 227 272 227 272 218 c 2,29,-1
 272 89 l 1,30,-1
 431 330 l 1,31,-1
 272 570 l 1,32,-1
 272 441 l 2,33,34
 272 433 272 433 266 427 c 128,-1,35
 260 421 260 421 252 421 c 2,36,-1
 70 421 l 1,24,-1
EndSplineSet
EndChar

StartChar: bell
Encoding: 10 10 13
Width: 491
GlyphClass: 2
Flags: W
TeX: 486 0
LayerCount: 2
Fore
SplineSet
267 85 m 1,0,1
 291 71 291 71 291 45 c 0,2,3
 291 26 291 26 277.5 13 c 128,-1,4
 264 0 264 0 245 0 c 128,-1,5
 226 0 226 0 213 13 c 128,-1,6
 200 26 200 26 200 45 c 0,7,8
 200 72 200 72 223 85 c 1,9,-1
 56 85 l 1,10,-1
 56 156 l 1,11,12
 94 156 94 156 107.5 189 c 128,-1,13
 121 222 121 222 121 280 c 0,14,15
 121 286 121 286 120.5 302 c 128,-1,16
 120 318 120 318 120 331 c 0,17,18
 120 394 120 394 155 440 c 128,-1,19
 190 486 190 486 245 486 c 0,20,21
 301 486 301 486 336 439.5 c 128,-1,22
 371 393 371 393 371 329 c 0,23,24
 371 317 371 317 370.5 301.5 c 128,-1,25
 370 286 370 286 370 280 c 0,26,27
 370 222 370 222 383 189 c 128,-1,28
 396 156 396 156 433 156 c 1,29,-1
 433 85 l 1,30,-1
 267 85 l 1,0,1
EndSplineSet
EndChar

StartChar: eigthnote
Encoding: 11 11 14
Width: 568
GlyphClass: 2
Flags: W
TeX: 711 0
LayerCount: 2
Fore
SplineSet
284 515 m 1,0,-1
 284 85 l 2,1,2
 284 47 284 47 250 23.5 c 128,-1,3
 216 0 216 0 170 0 c 128,-1,4
 124 0 124 0 90 23.5 c 128,-1,5
 56 47 56 47 56 85 c 128,-1,6
 56 123 56 123 90 146.5 c 128,-1,7
 124 170 124 170 170 170 c 0,8,9
 226 170 226 170 258 140 c 1,10,-1
 258 711 l 1,11,-1
 284 711 l 1,12,-1
 284 654 l 2,13,14
 284 626 284 626 424 514 c 0,15,16
 510 445 510 445 510 294 c 2,17,-1
 510 237 l 1,18,-1
 484 237 l 1,19,-1
 484 294 l 2,20,21
 484 322 484 322 344 434 c 0,22,23
 304 465 304 465 284 515 c 1,0,-1
EndSplineSet
EndChar

StartChar: quarternote
Encoding: 12 12 15
Width: 340
GlyphClass: 2
Flags: W
TeX: 711 0
LayerCount: 2
Fore
SplineSet
283 85 m 2,0,1
 283 47 283 47 249 23.5 c 128,-1,2
 215 0 215 0 170 0 c 0,3,4
 124 0 124 0 90 23.5 c 128,-1,5
 56 47 56 47 56 85 c 128,-1,6
 56 123 56 123 90 146.5 c 128,-1,7
 124 170 124 170 170 170 c 0,8,9
 224 170 224 170 257 140 c 1,10,-1
 257 711 l 1,11,-1
 283 711 l 1,12,-1
 283 85 l 2,0,1
EndSplineSet
EndChar

StartChar: halfnote
Encoding: 13 13 16
Width: 340
GlyphClass: 2
Flags: W
TeX: 711 26
LayerCount: 2
Fore
SplineSet
283 85 m 2,0,1
 283 39 283 39 249.5 6.5 c 128,-1,2
 216 -26 216 -26 170 -26 c 0,3,4
 123 -26 123 -26 89.5 6.5 c 128,-1,5
 56 39 56 39 56 85 c 128,-1,6
 56 131 56 131 89.5 163.5 c 128,-1,7
 123 196 123 196 170 196 c 0,8,9
 223 196 223 196 257 155 c 1,10,-1
 257 711 l 1,11,-1
 283 711 l 1,12,-1
 283 85 l 2,0,1
257 85 m 128,-1,14
 257 113 257 113 231.5 128.5 c 128,-1,15
 206 144 206 144 170 144 c 128,-1,16
 134 144 134 144 108 128.5 c 128,-1,17
 82 113 82 113 82 85 c 128,-1,18
 82 57 82 57 108 41.5 c 128,-1,19
 134 26 134 26 170 26 c 128,-1,20
 206 26 206 26 231.5 41.5 c 128,-1,13
 257 57 257 57 257 85 c 128,-1,14
EndSplineSet
EndChar

StartChar: fullnote
Encoding: 14 14 17
Width: 397
GlyphClass: 2
Flags: W
TeX: 185 14
LayerCount: 2
Fore
SplineSet
56 85 m 0,0,1
 56 131 56 131 98.5 158 c 128,-1,2
 141 185 141 185 198 185 c 128,-1,3
 255 185 255 185 297.5 158 c 128,-1,4
 340 131 340 131 340 85 c 0,5,6
 340 40 340 40 297.5 13 c 128,-1,7
 255 -14 255 -14 198 -14 c 128,-1,8
 141 -14 141 -14 98.5 13 c 128,-1,9
 56 40 56 40 56 85 c 0,0,1
121 85 m 0,10,11
 121 54 121 54 143.5 31 c 128,-1,12
 166 8 166 8 198 8 c 128,-1,13
 230 8 230 8 252.5 30.5 c 128,-1,14
 275 53 275 53 275 85 c 128,-1,15
 275 117 275 117 252.5 139.5 c 128,-1,16
 230 162 230 162 198 162 c 128,-1,17
 166 162 166 162 143.5 139.5 c 128,-1,18
 121 117 121 117 121 85 c 0,10,11
EndSplineSet
EndChar

StartChar: twonotes
Encoding: 15 15 18
Width: 739
GlyphClass: 2
Flags: W
TeX: 720 0
LayerCount: 2
Fore
SplineSet
297 634 m 1,0,-1
 297 227 l 2,1,2
 297 188 297 188 261 165 c 128,-1,3
 225 142 225 142 176 142 c 0,4,5
 128 142 128 142 92 165 c 128,-1,6
 56 188 56 188 56 227 c 128,-1,7
 56 266 56 266 92 289 c 128,-1,8
 128 312 128 312 176 312 c 0,9,10
 236 312 236 312 271 282 c 1,11,-1
 271 720 l 1,12,-1
 681 569 l 1,13,-1
 681 85 l 2,14,15
 681 46 681 46 645.5 23 c 128,-1,16
 610 0 610 0 561 0 c 128,-1,17
 512 0 512 0 476.5 23 c 128,-1,18
 441 46 441 46 441 85 c 128,-1,19
 441 124 441 124 476.5 147 c 128,-1,20
 512 170 512 170 561 170 c 0,21,22
 621 170 621 170 655 139 c 1,23,-1
 655 502 l 1,24,-1
 297 634 l 1,0,-1
EndSplineSet
EndChar

StartChar: LHD
Encoding: 16 16 19
Width: 795
GlyphClass: 2
Flags: W
TeX: 534 22
LayerCount: 2
Fore
SplineSet
710 534 m 1,0,-1
 710 -22 l 1,1,-1
 85 256 l 1,2,-1
 710 534 l 1,0,-1
EndSplineSet
EndChar

StartChar: RHD
Encoding: 17 17 20
Width: 795
GlyphClass: 2
Flags: W
TeX: 534 22
LayerCount: 2
Fore
SplineSet
85 -22 m 1,0,-1
 85 534 l 1,1,-1
 710 256 l 1,2,-1
 85 -22 l 1,0,-1
EndSplineSet
EndChar

StartChar: lightning
Encoding: 18 18 21
Width: 454
GlyphClass: 2
Flags: W
TeX: 711 99
LayerCount: 2
Fore
SplineSet
295 113 m 1,0,-1
 345 113 l 2,1,2
 354 113 354 113 360 107 c 128,-1,3
 366 101 366 101 366 92 c 128,-1,4
 366 83 366 83 360 78 c 1,5,-1
 208 -93 l 2,6,7
 202 -99 202 -99 191 -99 c 0,8,9
 176 -99 176 -99 172 -81 c 1,10,-1
 155 92 l 2,11,12
 155 100 155 100 160.5 106 c 128,-1,13
 166 112 166 112 173 113 c 1,14,-1
 248 113 l 1,15,-1
 362 328 l 1,16,-1
 56 328 l 2,17,18
 53 328 53 328 47 330 c 1,19,20
 36 337 36 337 36 348 c 0,21,22
 36 351 36 351 38 357 c 2,23,-1
 208 699 l 2,24,25
 214 711 214 711 226 711 c 0,26,27
 235 711 235 711 241 704.5 c 128,-1,28
 247 698 247 698 247 690 c 0,29,30
 247 687 247 687 245 681 c 2,31,-1
 90 369 l 1,32,-1
 396 369 l 2,33,34
 403 369 403 369 407 367 c 0,35,36
 417 362 417 362 417 348 c 0,37,38
 417 345 417 345 415 339 c 1,39,-1
 295 113 l 1,0,-1
EndSplineSet
EndChar

StartChar: ascnode
Encoding: 19 19 22
Width: 852
GlyphClass: 2
Flags: W
TeX: 686 174
LayerCount: 2
Fore
SplineSet
36 -37 m 128,-1,1
 36 20 36 20 76 60.5 c 128,-1,2
 116 101 116 101 174 101 c 0,3,4
 209 101 209 101 240 84 c 1,5,6
 225 114 225 114 182 182.5 c 128,-1,7
 139 251 139 251 116 306.5 c 128,-1,8
 93 362 93 362 93 420 c 0,9,10
 93 499 93 499 141.5 561 c 128,-1,11
 190 623 190 623 265 654.5 c 128,-1,12
 340 686 340 686 426 686 c 0,13,14
 511 686 511 686 586.5 654.5 c 128,-1,15
 662 623 662 623 710.5 561 c 128,-1,16
 759 499 759 499 759 420 c 0,17,18
 759 361 759 361 731 297 c 128,-1,19
 703 233 703 233 670 186 c 128,-1,20
 637 139 637 139 609 78 c 128,-1,21
 581 17 581 17 581 -37 c 0,22,23
 581 -77 581 -77 609.5 -105 c 128,-1,24
 638 -133 638 -133 678 -133 c 128,-1,25
 718 -133 718 -133 746 -105 c 128,-1,26
 774 -77 774 -77 774 -37 c 0,27,28
 774 -29 774 -29 780 -22.5 c 128,-1,29
 786 -16 786 -16 795 -16 c 0,30,31
 803 -16 803 -16 809 -22.5 c 128,-1,32
 815 -29 815 -29 815 -37 c 0,33,34
 815 -94 815 -94 775 -134 c 128,-1,35
 735 -174 735 -174 678 -174 c 0,36,37
 620 -174 620 -174 580 -134 c 128,-1,38
 540 -94 540 -94 540 -37 c 0,39,40
 540 12 540 12 558 62 c 128,-1,41
 576 112 576 112 602 155 c 128,-1,42
 628 198 628 198 654.5 239.5 c 128,-1,43
 681 281 681 281 699 328.5 c 128,-1,44
 717 376 717 376 717 420 c 0,45,46
 717 518 717 518 631.5 581.5 c 128,-1,47
 546 645 546 645 426 645 c 128,-1,48
 306 645 306 645 220 581.5 c 128,-1,49
 134 518 134 518 134 420 c 0,50,51
 134 376 134 376 152 328.5 c 128,-1,52
 170 281 170 281 196 239.5 c 128,-1,53
 222 198 222 198 248.5 155 c 128,-1,54
 275 112 275 112 293 62 c 128,-1,55
 311 12 311 12 311 -37 c 0,56,57
 311 -94 311 -94 271 -134 c 128,-1,58
 231 -174 231 -174 174 -174 c 0,59,60
 116 -174 116 -174 76 -134 c 128,-1,0
 36 -94 36 -94 36 -37 c 128,-1,1
174 -133 m 128,-1,62
 214 -133 214 -133 242 -105 c 128,-1,63
 270 -77 270 -77 270 -37 c 128,-1,64
 270 3 270 3 242 31 c 128,-1,65
 214 59 214 59 174 59 c 128,-1,66
 134 59 134 59 106 31 c 128,-1,67
 78 3 78 3 78 -37 c 128,-1,68
 78 -77 78 -77 106 -105 c 128,-1,61
 134 -133 134 -133 174 -133 c 128,-1,62
EndSplineSet
EndChar

StartChar: descnode
Encoding: 20 20 23
Width: 852
GlyphClass: 2
Flags: W
TeX: 686 174
LayerCount: 2
Fore
SplineSet
78 549 m 128,-1,1
 78 509 78 509 106 481 c 128,-1,2
 134 453 134 453 174 453 c 128,-1,3
 214 453 214 453 242 481 c 128,-1,4
 270 509 270 509 270 549 c 128,-1,5
 270 589 270 589 242 617 c 128,-1,6
 214 645 214 645 174 645 c 128,-1,7
 134 645 134 645 106 617 c 128,-1,0
 78 589 78 589 78 549 c 128,-1,1
93 92 m 0,8,9
 93 150 93 150 116 205.5 c 128,-1,10
 139 261 139 261 182 329.5 c 128,-1,11
 225 398 225 398 240 428 c 1,12,13
 209 411 209 411 174 411 c 0,14,15
 116 411 116 411 76 451.5 c 128,-1,16
 36 492 36 492 36 549 c 128,-1,17
 36 606 36 606 76 646 c 128,-1,18
 116 686 116 686 174 686 c 0,19,20
 231 686 231 686 271 646 c 128,-1,21
 311 606 311 606 311 549 c 0,22,23
 311 500 311 500 293 450 c 128,-1,24
 275 400 275 400 248.5 357 c 128,-1,25
 222 314 222 314 196 272.5 c 128,-1,26
 170 231 170 231 152 183.5 c 128,-1,27
 134 136 134 136 134 92 c 0,28,29
 134 -6 134 -6 220 -69.5 c 128,-1,30
 306 -133 306 -133 426 -133 c 128,-1,31
 546 -133 546 -133 631.5 -69.5 c 128,-1,32
 717 -6 717 -6 717 92 c 0,33,34
 717 136 717 136 699 183.5 c 128,-1,35
 681 231 681 231 654.5 272.5 c 128,-1,36
 628 314 628 314 602 357 c 128,-1,37
 576 400 576 400 558 450 c 128,-1,38
 540 500 540 500 540 549 c 0,39,40
 540 606 540 606 580 646 c 128,-1,41
 620 686 620 686 678 686 c 0,42,43
 735 686 735 686 775 646 c 128,-1,44
 815 606 815 606 815 549 c 0,45,46
 815 541 815 541 809 534.5 c 128,-1,47
 803 528 803 528 795 528 c 0,48,49
 786 528 786 528 780 534.5 c 128,-1,50
 774 541 774 541 774 549 c 0,51,52
 774 589 774 589 746 617 c 128,-1,53
 718 645 718 645 678 645 c 128,-1,54
 638 645 638 645 609.5 617 c 128,-1,55
 581 589 581 589 581 549 c 0,56,57
 581 495 581 495 609 434 c 128,-1,58
 637 373 637 373 670 326 c 128,-1,59
 703 279 703 279 731 215 c 128,-1,60
 759 151 759 151 759 92 c 0,61,62
 759 13 759 13 710.5 -49 c 128,-1,63
 662 -111 662 -111 586.5 -142.5 c 128,-1,64
 511 -174 511 -174 426 -174 c 0,65,66
 340 -174 340 -174 265 -142.5 c 128,-1,67
 190 -111 190 -111 141.5 -49 c 128,-1,68
 93 13 93 13 93 92 c 0,8,9
EndSplineSet
EndChar

StartChar: invdiameter
Encoding: 21 21 24
Width: 798
GlyphClass: 2
Flags: W
TeX: 599 87
LayerCount: 2
Fore
SplineSet
597 256 m 0,0,1
 597 336 597 336 538 397 c 0,2,3
 481 456 481 456 396 456 c 0,4,5
 326 456 326 456 270 411 c 1,6,-1
 552 130 l 1,7,8
 597 186 597 186 597 256 c 0,0,1
242 440 m 1,9,10
 308 497 308 497 396 497 c 0,11,12
 498 497 498 497 567 426 c 1,13,14
 638 355 638 355 638 256 c 0,15,16
 638 170 638 170 581 100 c 1,17,-1
 733 -52 l 2,18,19
 739 -58 739 -58 739 -67 c 0,20,21
 739 -74 739 -74 732.5 -80.5 c 128,-1,22
 726 -87 726 -87 719 -87 c 0,23,24
 711 -87 711 -87 705 -81 c 2,25,-1
 552 72 l 1,26,27
 486 15 486 15 396 15 c 0,28,29
 295 15 295 15 226 86 c 1,30,31
 156 156 156 156 156 256 c 0,32,33
 156 344 156 344 212 412 c 1,34,-1
 59 564 l 2,35,36
 54 568 54 568 54 578 c 0,37,38
 54 599 54 599 74 599 c 0,39,40
 83 599 83 599 89 593 c 2,41,-1
 242 440 l 1,9,10
255 115 m 1,42,43
 314 56 314 56 396 56 c 0,44,45
 467 56 467 56 523 101 c 1,46,-1
 242 382 l 1,47,48
 197 326 197 326 197 256 c 0,49,50
 197 175 197 175 255 115 c 1,42,43
EndSplineSet
EndChar

StartChar: logof
Encoding: 22 22 25
Width: 795
GlyphClass: 2
Flags: W
TeX: 597 85
LayerCount: 2
Fore
SplineSet
692 366 m 1,0,1
 670 427 670 427 620 479 c 0,2,3
 534 566 534 566 410 571 c 1,4,-1
 410 273 l 1,5,-1
 692 366 l 1,0,1
157 498 m 0,6,7
 256 597 256 597 397 597 c 0,8,9
 537 597 537 597 638 498 c 1,10,11
 697 438 697 438 722 359 c 0,12,13
 737 313 737 313 737 256 c 0,14,15
 737 116 737 116 638 15 c 0,16,17
 610 -13 610 -13 595 -22 c 1,18,19
 505 -85 505 -85 397 -85 c 0,20,21
 288 -85 288 -85 195 -18 c 0,22,23
 174 -3 174 -3 157 14 c 0,24,25
 56 115 56 115 56 256 c 0,26,27
 56 313 56 313 73 361 c 1,28,29
 98 439 98 439 157 498 c 0,6,7
620 33 m 1,30,31
 712 125 712 125 712 256 c 0,32,33
 712 299 712 299 700 341 c 1,34,-1
 418 249 l 1,35,-1
 593 8 l 1,36,-1
 620 33 l 1,30,31
222 -6 m 1,37,38
 299 -59 299 -59 397 -59 c 128,-1,39
 495 -59 495 -59 572 -6 c 1,40,-1
 397 234 l 1,41,-1
 222 -6 l 1,37,38
82 256 m 0,42,43
 82 127 82 127 174 33 c 1,44,-1
 202 8 l 1,45,-1
 377 249 l 1,46,-1
 94 341 l 1,47,48
 82 299 82 299 82 256 c 0,42,43
384 571 m 1,49,50
 260 566 260 566 174 479 c 0,51,52
 127 431 127 431 101 366 c 1,53,-1
 384 273 l 1,54,-1
 384 571 l 1,49,50
EndSplineSet
EndChar

StartChar: aries
Encoding: 23 23 26
Width: 824
GlyphClass: 2
Flags: W
TeX: 724 11
LayerCount: 2
Fore
SplineSet
432 446 m 2,0,-1
 432 9 l 2,1,2
 432 1 432 1 426 -5 c 128,-1,3
 420 -11 420 -11 412 -11 c 0,4,5
 403 -11 403 -11 397 -5 c 128,-1,6
 391 1 391 1 391 9 c 2,7,-1
 391 446 l 2,8,9
 391 542 391 542 342 612.5 c 128,-1,10
 293 683 293 683 213 683 c 0,11,12
 155 683 155 683 114.5 644 c 128,-1,13
 74 605 74 605 74 550 c 0,14,15
 74 547 74 547 76 523 c 1,16,17
 76 507 76 507 55 504 c 1,18,19
 33 504 33 504 33 550 c 0,20,21
 33 621 33 621 86 672.5 c 128,-1,22
 139 724 139 724 212 724 c 0,23,24
 282 724 282 724 335 680 c 128,-1,25
 388 636 388 636 412 567 c 1,26,27
 436 636 436 636 488.5 680 c 128,-1,28
 541 724 541 724 611 724 c 0,29,30
 685 724 685 724 738 673 c 128,-1,31
 791 622 791 622 791 551 c 0,32,33
 791 537 791 537 790 529 c 128,-1,34
 789 521 789 521 782.5 512.5 c 128,-1,35
 776 504 776 504 764 504 c 1,36,37
 746 508 746 508 746 527 c 1,38,39
 749 539 749 539 749 550 c 0,40,41
 749 605 749 605 708.5 644 c 128,-1,42
 668 683 668 683 610 683 c 0,43,44
 525 683 525 683 478.5 612.5 c 128,-1,45
 432 542 432 542 432 446 c 2,0,-1
EndSplineSet
EndChar

StartChar: invneg
Encoding: 24 24 27
Width: 681
GlyphClass: 2
Flags: W
TeX: 365 -91
LayerCount: 2
Fore
SplineSet
98 324 m 1,0,-1
 98 112 l 2,1,2
 98 103 98 103 92 97 c 128,-1,3
 86 91 86 91 77 91 c 0,4,5
 69 91 69 91 62.5 97 c 128,-1,6
 56 103 56 103 56 112 c 2,7,-1
 56 344 l 2,8,9
 56 352 56 352 62.5 358.5 c 128,-1,10
 69 365 69 365 77 365 c 2,11,-1
 603 365 l 2,12,13
 611 365 611 365 617.5 358.5 c 128,-1,14
 624 352 624 352 624 344 c 128,-1,15
 624 336 624 336 617.5 330 c 128,-1,16
 611 324 611 324 603 324 c 2,17,-1
 98 324 l 1,0,-1
EndSplineSet
EndChar

StartChar: female
Encoding: 25 25 28
Width: 553
GlyphClass: 2
Flags: W
TeX: 550 220
LayerCount: 2
Fore
SplineSet
457 330 m 128,-1,1
 457 403 457 403 403 457 c 1,2,3
 353 509 353 509 278 509 c 128,-1,4
 203 509 203 509 151 457 c 0,5,6
 98 404 98 404 98 330 c 128,-1,7
 98 256 98 256 151 203 c 0,8,9
 203 151 203 151 278 151 c 128,-1,10
 353 151 353 151 403 203 c 1,11,0
 457 257 457 257 457 330 c 128,-1,1
121 485 m 128,-1,13
 186 550 186 550 278 550 c 0,14,15
 368 550 368 550 433 485 c 128,-1,16
 498 420 498 420 498 330 c 0,17,18
 498 239 498 239 433 174 c 0,19,20
 378 119 378 119 298 111 c 1,21,-1
 298 -25 l 1,22,-1
 431 -25 l 2,23,24
 439 -25 439 -25 445.5 -31 c 128,-1,25
 452 -37 452 -37 452 -45 c 128,-1,26
 452 -53 452 -53 445.5 -59.5 c 128,-1,27
 439 -66 439 -66 431 -66 c 2,28,-1
 298 -66 l 1,29,-1
 298 -199 l 2,30,31
 298 -208 298 -208 292 -214 c 128,-1,32
 286 -220 286 -220 278 -220 c 0,33,34
 269 -220 269 -220 263 -214 c 128,-1,35
 257 -208 257 -208 257 -199 c 2,36,-1
 257 -66 l 1,37,-1
 123 -66 l 2,38,39
 115 -66 115 -66 108.5 -59.5 c 128,-1,40
 102 -53 102 -53 102 -45 c 128,-1,41
 102 -37 102 -37 108.5 -31 c 128,-1,42
 115 -25 115 -25 123 -25 c 2,43,-1
 257 -25 l 1,44,-1
 257 111 l 1,45,46
 176 119 176 119 121 174 c 0,47,48
 56 239 56 239 56 330 c 0,49,12
 56 420 56 420 121 485 c 128,-1,13
EndSplineSet
EndChar

StartChar: male
Encoding: 26 26 29
Width: 818
GlyphClass: 2
Flags: W
TeX: 637 0
LayerCount: 2
Fore
SplineSet
457 220 m 0,0,1
 457 292 457 292 404 347 c 0,2,3
 354 399 354 399 278 399 c 0,4,5
 201 399 201 399 151 347 c 1,6,7
 98 294 98 294 98 220 c 128,-1,8
 98 146 98 146 151 93 c 0,9,10
 203 41 203 41 278 41 c 128,-1,11
 353 41 353 41 403 93 c 1,12,13
 457 147 457 147 457 220 c 0,0,1
121 377 m 1,14,15
 187 441 187 441 278 441 c 0,16,17
 358 441 358 441 418 390 c 1,18,-1
 624 596 l 1,19,-1
 474 596 l 2,20,21
 466 596 466 596 460 602 c 128,-1,22
 454 608 454 608 454 616 c 0,23,24
 454 625 454 625 460 631 c 128,-1,25
 466 637 466 637 474 637 c 2,26,-1
 673 637 l 2,27,28
 682 637 682 637 687 631 c 0,29,30
 693 625 693 625 693 616 c 2,31,-1
 693 418 l 2,32,33
 693 410 693 410 687 403.5 c 128,-1,34
 681 397 681 397 673 397 c 128,-1,35
 665 397 665 397 658.5 403.5 c 128,-1,36
 652 410 652 410 652 418 c 2,37,-1
 652 566 l 1,38,-1
 446 361 l 1,39,40
 498 300 498 300 498 220 c 0,41,42
 498 128 498 128 433 65 c 1,43,44
 368 0 368 0 278 0 c 128,-1,45
 188 0 188 0 121 65 c 0,46,47
 56 128 56 128 56 220 c 0,48,49
 56 310 56 310 121 377 c 1,14,15
EndSplineSet
EndChar

StartChar: currency
Encoding: 27 27 30
Width: 753
GlyphClass: 2
Flags: W
TeX: 614 47
LayerCount: 2
Fore
SplineSet
628 284 m 0,0,1
 628 389 628 389 554 463 c 1,2,3
 477 538 477 538 374 538 c 0,4,5
 272 538 272 538 195 463 c 0,6,7
 121 391 121 391 121 284 c 0,8,9
 121 178 121 178 195 104 c 128,-1,10
 269 30 269 30 374 30 c 0,11,12
 480 30 480 30 554 104 c 1,13,14
 628 180 628 180 628 284 c 0,0,1
180 506 m 1,15,16
 266 579 266 579 374 579 c 0,17,18
 483 579 483 579 567 506 c 1,19,-1
 670 608 l 2,20,21
 676 614 676 614 684 614 c 128,-1,22
 692 614 692 614 698.5 608 c 128,-1,23
 705 602 705 602 705 594 c 128,-1,24
 705 586 705 586 699 580 c 2,25,-1
 597 477 l 1,26,27
 669 392 669 392 669 284 c 0,28,29
 669 173 669 173 597 90 c 1,30,-1
 699 -12 l 1,31,32
 705 -20 705 -20 705 -27 c 0,33,34
 705 -36 705 -36 699 -41.5 c 128,-1,35
 693 -47 693 -47 684 -47 c 0,36,37
 676 -47 676 -47 670 -41 c 2,38,-1
 567 61 l 1,39,40
 486 -11 486 -11 374 -11 c 0,41,42
 263 -11 263 -11 180 61 c 1,43,-1
 79 -41 l 2,44,45
 73 -47 73 -47 63 -47 c 0,46,47
 55 -47 55 -47 49 -41 c 128,-1,48
 43 -35 43 -35 43 -27 c 0,49,50
 43 -18 43 -18 49 -12 c 2,51,-1
 152 90 l 1,52,53
 79 172 79 172 79 284 c 0,54,55
 79 393 79 393 152 477 c 1,56,-1
 49 580 l 1,57,58
 43 584 43 584 43 594 c 0,59,60
 43 602 43 602 49.5 608 c 128,-1,61
 56 614 56 614 63 614 c 0,62,63
 73 614 73 614 79 608 c 2,64,-1
 180 506 l 1,15,16
EndSplineSet
EndChar

StartChar: clock
Encoding: 28 28 31
Width: 824
GlyphClass: 2
Flags: W
TeX: 676 0
LayerCount: 2
Fore
SplineSet
708 338 m 0,0,1
 708 461 708 461 622 547 c 1,2,3
 532 635 532 635 412 635 c 0,4,5
 289 635 289 635 202 548 c 128,-1,6
 115 461 115 461 115 338 c 0,7,8
 115 213 115 213 202 128 c 1,9,10
 289 41 289 41 412 41 c 0,11,12
 532 41 532 41 622 128 c 1,13,14
 708 214 708 214 708 338 c 0,0,1
173 577 m 1,15,16
 272 676 272 676 412 676 c 0,17,18
 551 676 551 676 650 577 c 0,19,20
 750 477 750 477 750 338 c 0,21,22
 750 197 750 197 650 99 c 1,23,24
 551 0 551 0 412 0 c 128,-1,25
 273 0 273 0 173 98 c 1,26,27
 74 199 74 199 74 338 c 0,28,29
 74 476 74 476 173 577 c 1,15,16
570 317 m 2,30,-1
 460 317 l 1,31,32
 455 307 455 307 449 301 c 0,33,34
 432 286 432 286 412 286 c 0,35,36
 390 286 390 286 375 301 c 0,37,38
 359 317 359 317 359 338 c 128,-1,39
 359 359 359 359 375 375 c 0,40,41
 379 380 379 380 391 386 c 1,42,-1
 391 560 l 2,43,44
 391 568 391 568 397 574.5 c 128,-1,45
 403 581 403 581 412 581 c 0,46,47
 420 581 420 581 426 574.5 c 128,-1,48
 432 568 432 568 432 560 c 2,49,-1
 432 386 l 1,50,51
 442 381 442 381 449 375 c 0,52,53
 455 369 455 369 460 358 c 1,54,-1
 570 358 l 2,55,56
 579 358 579 358 585 352 c 128,-1,57
 591 346 591 346 591 338 c 128,-1,58
 591 330 591 330 585 323.5 c 128,-1,59
 579 317 579 317 570 317 c 2,30,-1
EndSplineSet
EndChar

StartChar: varprop
Encoding: 29 29 32
Width: 795
GlyphClass: 2
Flags: W
TeX: 425 -87
LayerCount: 2
Fore
SplineSet
696 425 m 0,0,1
 701 425 701 425 705.5 421 c 128,-1,2
 710 417 710 417 710 412 c 0,3,4
 710 399 710 399 696 399 c 0,5,6
 638 399 638 399 591 361.5 c 128,-1,7
 544 324 544 324 492 256 c 1,8,9
 544 188 544 188 591 150.5 c 128,-1,10
 638 113 638 113 696 113 c 0,11,12
 710 113 710 113 710 100 c 0,13,14
 710 95 710 95 705.5 91 c 128,-1,15
 701 87 701 87 696 87 c 0,16,17
 631 87 631 87 579 127 c 128,-1,18
 527 167 527 167 475 234 c 1,19,20
 423 167 423 167 371.5 127 c 128,-1,21
 320 87 320 87 256 87 c 2,22,-1
 254 87 l 1,23,24
 184 88 184 88 134.5 137 c 128,-1,25
 85 186 85 186 85 256 c 128,-1,26
 85 326 85 326 134.5 375 c 128,-1,27
 184 424 184 424 254 425 c 1,28,-1
 256 425 l 2,29,30
 320 425 320 425 371.5 385 c 128,-1,31
 423 345 423 345 475 278 c 1,32,33
 527 345 527 345 579 385 c 128,-1,34
 631 425 631 425 696 425 c 0,0,1
111 256 m 128,-1,36
 111 197 111 197 153 155.5 c 128,-1,37
 195 114 195 114 254 113 c 1,38,-1
 256 113 l 2,39,40
 313 113 313 113 359.5 150 c 128,-1,41
 406 187 406 187 459 256 c 1,42,43
 406 325 406 325 359.5 362 c 128,-1,44
 313 399 313 399 256 399 c 2,45,-1
 254 399 l 1,46,47
 195 398 195 398 153 356.5 c 128,-1,35
 111 315 111 315 111 256 c 128,-1,36
EndSplineSet
EndChar

StartChar: varangle
Encoding: 30 30 33
Width: 795
GlyphClass: 2
Flags: W
TeX: 586 74
LayerCount: 2
Fore
SplineSet
117 256 m 1,0,-1
 471 98 l 1,1,2
 502 180 502 180 502 256 c 128,-1,3
 502 332 502 332 471 414 c 1,4,-1
 117 256 l 1,0,-1
460 75 m 1,5,-1
 80 245 l 1,6,7
 72 247 72 247 72 256 c 128,-1,8
 72 265 72 265 80 267 c 1,9,-1
 460 437 l 1,10,11
 429 500 429 500 380 551 c 0,12,13
 374 556 374 556 374 565 c 128,-1,14
 374 574 374 574 380 580 c 128,-1,15
 386 586 386 586 394 586 c 256,16,17
 402 586 402 586 409 580 c 0,18,19
 462 525 462 525 498 454 c 1,20,-1
 705 545 l 2,21,22
 707 546 707 546 710 546 c 0,23,24
 722 546 722 546 722 534 c 0,25,26
 722 524 722 524 715 522 c 1,27,-1
 508 430 l 1,28,29
 543 344 543 344 543 256 c 128,-1,30
 543 168 543 168 508 82 c 1,31,-1
 715 -10 l 1,32,33
 722 -12 722 -12 722 -22 c 0,34,35
 722 -34 722 -34 710 -34 c 0,36,37
 707 -34 707 -34 705 -33 c 2,38,-1
 498 58 l 1,39,40
 462 -13 462 -13 409 -68 c 0,41,42
 402 -74 402 -74 394 -74 c 256,43,44
 386 -74 386 -74 380 -68 c 128,-1,45
 374 -62 374 -62 374 -53 c 0,46,47
 374 -45 374 -45 380 -39 c 0,48,49
 429 12 429 12 460 75 c 1,5,-1
EndSplineSet
EndChar

StartChar: diameter
Encoding: 31 31 34
Width: 798
GlyphClass: 2
Flags: W
TeX: 599 87
LayerCount: 2
Fore
SplineSet
242 130 m 1,0,-1
 523 411 l 1,1,2
 467 456 467 456 396 456 c 0,3,4
 314 456 314 456 255 397 c 1,5,6
 197 337 197 337 197 256 c 0,7,8
 197 186 197 186 242 130 c 1,0,-1
226 426 m 1,9,10
 295 497 295 497 396 497 c 0,11,12
 486 497 486 497 552 440 c 1,13,-1
 705 593 l 2,14,15
 711 599 711 599 719 599 c 0,16,17
 726 599 726 599 732.5 592.5 c 128,-1,18
 739 586 739 586 739 579 c 0,19,20
 739 568 739 568 733 564 c 1,21,-1
 581 412 l 1,22,23
 638 342 638 342 638 256 c 0,24,25
 638 157 638 157 567 86 c 1,26,27
 498 15 498 15 396 15 c 0,28,29
 308 15 308 15 242 72 c 1,30,-1
 89 -81 l 2,31,32
 83 -87 83 -87 74 -87 c 128,-1,33
 65 -87 65 -87 59.5 -81 c 128,-1,34
 54 -75 54 -75 54 -67 c 0,35,36
 54 -57 54 -57 59 -52 c 2,37,-1
 212 100 l 1,38,39
 156 168 156 168 156 256 c 0,40,41
 156 356 156 356 226 426 c 1,9,10
538 115 m 0,42,43
 597 176 597 176 597 256 c 0,44,45
 597 326 597 326 552 382 c 1,46,-1
 270 101 l 1,47,48
 326 56 326 56 396 56 c 0,49,50
 481 56 481 56 538 115 c 0,42,43
EndSplineSet
EndChar

StartChar: CIRCLE
Encoding: 32 32 35
Width: 795
GlyphClass: 2
Flags: W
TeX: 597 85
LayerCount: 2
Fore
SplineSet
157 498 m 0,0,1
 256 597 256 597 397 597 c 0,2,3
 537 597 537 597 638 498 c 1,4,5
 737 396 737 396 737 256 c 128,-1,6
 737 116 737 116 638 14 c 1,7,8
 537 -85 537 -85 397 -85 c 0,9,10
 256 -85 256 -85 157 14 c 0,11,12
 56 115 56 115 56 256 c 128,-1,13
 56 397 56 397 157 498 c 0,0,1
EndSplineSet
EndChar

StartChar: rightturn
Encoding: 33 33 36
Width: 1024
GlyphClass: 2
Flags: W
TeX: 770 126
LayerCount: 2
Fore
SplineSet
268 486 m 128,-1,1
 167 385 167 385 167 244 c 128,-1,2
 167 103 167 103 268 0 c 1,3,4
 368 -100 368 -100 511 -100 c 128,-1,5
 654 -100 654 -100 754 0 c 1,6,7
 855 103 855 103 855 244 c 128,-1,8
 855 385 855 385 754 486 c 0,9,10
 750 489 750 489 750 496 c 0,11,12
 750 508 750 508 763 508 c 0,13,14
 768 508 768 508 772 505 c 0,15,16
 881 396 881 396 881 244 c 0,17,18
 881 89 881 89 772 -18 c 0,19,20
 662 -126 662 -126 511 -126 c 0,21,22
 358 -126 358 -126 250 -18 c 1,23,24
 141 89 141 89 141 244 c 0,25,26
 141 396 141 396 250 505 c 1,27,28
 359 612 359 612 511 612 c 0,29,30
 523 612 523 612 523 600 c 0,31,32
 523 587 523 587 511 587 c 0,33,0
 369 587 369 587 268 486 c 128,-1,1
444 770 m 1,34,35
 490 653 490 653 599 600 c 1,36,37
 489 545 489 545 444 429 c 1,38,-1
 413 429 l 1,39,40
 453 534 453 534 543 600 c 1,41,42
 452 666 452 666 413 770 c 1,43,-1
 444 770 l 1,34,35
EndSplineSet
EndChar

StartChar: leftturn
Encoding: 34 34 37
Width: 1024
GlyphClass: 2
Flags: W
TeX: 770 126
LayerCount: 2
Fore
SplineSet
167 244 m 128,-1,1
 167 103 167 103 268 0 c 1,2,3
 368 -100 368 -100 511 -100 c 128,-1,4
 654 -100 654 -100 754 0 c 1,5,6
 855 103 855 103 855 244 c 128,-1,7
 855 385 855 385 754 486 c 128,-1,8
 653 587 653 587 511 587 c 0,9,10
 498 587 498 587 498 600 c 0,11,12
 498 612 498 612 511 612 c 0,13,14
 662 612 662 612 772 505 c 1,15,16
 881 396 881 396 881 244 c 0,17,18
 881 89 881 89 772 -18 c 0,19,20
 662 -126 662 -126 511 -126 c 0,21,22
 358 -126 358 -126 250 -18 c 1,23,24
 141 89 141 89 141 244 c 0,25,26
 141 396 141 396 250 505 c 0,27,28
 253 508 253 508 259 508 c 0,29,30
 272 508 272 508 272 496 c 0,31,32
 272 490 272 490 268 486 c 0,33,0
 167 385 167 385 167 244 c 128,-1,1
423 600 m 1,34,35
 533 654 533 654 578 770 c 1,36,-1
 609 770 l 1,37,38
 570 666 570 666 479 600 c 1,39,40
 569 534 569 534 609 429 c 1,41,-1
 578 429 l 1,42,43
 534 544 534 544 423 600 c 1,34,35
EndSplineSet
EndChar

StartChar: Circle
Encoding: 35 35 38
Width: 795
GlyphClass: 2
Flags: W
TeX: 597 85
LayerCount: 2
Fore
SplineSet
712 256 m 128,-1,1
 712 387 712 387 620 479 c 1,2,3
 530 571 530 571 397 571 c 128,-1,4
 264 571 264 571 174 479 c 0,5,6
 82 385 82 385 82 256 c 128,-1,7
 82 127 82 127 174 33 c 0,8,9
 264 -59 264 -59 397 -59 c 128,-1,10
 530 -59 530 -59 620 33 c 1,11,0
 712 125 712 125 712 256 c 128,-1,1
157 498 m 0,12,13
 256 597 256 597 397 597 c 0,14,15
 537 597 537 597 638 498 c 1,16,17
 737 396 737 396 737 256 c 128,-1,18
 737 116 737 116 638 14 c 1,19,20
 537 -85 537 -85 397 -85 c 0,21,22
 256 -85 256 -85 157 14 c 0,23,24
 56 115 56 115 56 256 c 128,-1,25
 56 397 56 397 157 498 c 0,12,13
EndSplineSet
EndChar

StartChar: leftmoon
Encoding: 36 36 39
Width: 795
GlyphClass: 2
Flags: W
TeX: 599 87
LayerCount: 2
Fore
SplineSet
398 -45 m 1,0,1
 337 14 337 14 303.5 92 c 128,-1,2
 270 170 270 170 270 256 c 128,-1,3
 270 342 270 342 303.5 420 c 128,-1,4
 337 498 337 498 398 557 c 1,5,6
 282 549 282 549 184 467 c 0,7,8
 98 394 98 394 98 256 c 128,-1,9
 98 118 98 118 184 45 c 0,10,11
 282 -37 282 -37 398 -45 c 1,0,1
466 -48 m 0,12,13
 474 -53 474 -53 474 -66 c 1,14,15
 463 -87 463 -87 432 -87 c 0,16,17
 278 -87 278 -87 158 13 c 1,18,19
 56 101 56 101 56 256 c 128,-1,20
 56 411 56 411 158 499 c 1,21,22
 280 599 280 599 431 599 c 0,23,24
 474 599 474 599 474 578 c 0,25,26
 474 566 474 566 466 560 c 0,27,28
 393 507 393 507 352 426.5 c 128,-1,29
 311 346 311 346 311 256 c 128,-1,30
 311 166 311 166 352 85.5 c 128,-1,31
 393 5 393 5 466 -48 c 0,12,13
EndSplineSet
EndChar

StartChar: rightmoon
Encoding: 37 37 40
Width: 795
GlyphClass: 2
Flags: W
TeX: 599 87
LayerCount: 2
Fore
SplineSet
483 256 m 128,-1,1
 483 347 483 347 442.5 427 c 128,-1,2
 402 507 402 507 329 560 c 0,3,4
 322 564 322 564 319 574 c 1,5,6
 319 599 319 599 358 599 c 0,7,8
 516 599 516 599 637 499 c 1,9,10
 737 413 737 413 737 256 c 128,-1,11
 737 99 737 99 637 13 c 1,12,13
 516 -87 516 -87 358 -87 c 0,14,15
 319 -87 319 -87 319 -62 c 1,16,17
 323 -53 323 -53 329 -48 c 0,18,19
 402 5 402 5 442.5 85 c 128,-1,0
 483 165 483 165 483 256 c 128,-1,1
524 256 m 128,-1,21
 524 170 524 170 490.5 92 c 128,-1,22
 457 14 457 14 396 -45 c 1,23,24
 513 -37 513 -37 610 45 c 0,25,26
 696 117 696 117 696 256 c 128,-1,27
 696 395 696 395 610 467 c 0,28,29
 513 549 513 549 396 557 c 1,30,31
 457 498 457 498 490.5 420 c 128,-1,20
 524 342 524 342 524 256 c 128,-1,21
EndSplineSet
EndChar

StartChar: earth
Encoding: 38 38 41
Width: 553
GlyphClass: 2
Flags: W
TeX: 770 0
LayerCount: 2
Fore
SplineSet
457 220 m 128,-1,1
 457 293 457 293 403 347 c 1,2,3
 354 399 354 399 278 399 c 0,4,5
 201 399 201 399 151 347 c 1,6,7
 98 294 98 294 98 220 c 128,-1,8
 98 146 98 146 151 93 c 0,9,10
 203 41 203 41 278 41 c 128,-1,11
 353 41 353 41 403 93 c 1,12,0
 457 147 457 147 457 220 c 128,-1,1
298 574 m 1,13,-1
 298 440 l 1,14,15
 377 432 377 432 432 377 c 0,16,17
 498 311 498 311 498 220 c 0,18,19
 498 128 498 128 433 65 c 0,20,21
 366 0 366 0 278 0 c 0,22,23
 188 0 188 0 121 65 c 0,24,25
 56 128 56 128 56 220 c 0,26,27
 56 311 56 311 121 376 c 0,28,29
 177 432 177 432 257 440 c 1,30,-1
 257 574 l 1,31,-1
 123 574 l 2,32,33
 115 574 115 574 108.5 580.5 c 128,-1,34
 102 587 102 587 102 595 c 128,-1,35
 102 603 102 603 108.5 609 c 128,-1,36
 115 615 115 615 123 615 c 2,37,-1
 257 615 l 1,38,-1
 257 750 l 2,39,40
 257 758 257 758 263 764 c 128,-1,41
 269 770 269 770 278 770 c 0,42,43
 286 770 286 770 292 764 c 128,-1,44
 298 758 298 758 298 750 c 2,45,-1
 298 615 l 1,46,-1
 431 615 l 2,47,48
 439 615 439 615 445.5 609 c 128,-1,49
 452 603 452 603 452 595 c 128,-1,50
 452 587 452 587 445.5 580.5 c 128,-1,51
 439 574 439 574 431 574 c 2,52,-1
 298 574 l 1,13,-1
EndSplineSet
EndChar

StartChar: mercury
Encoding: 39 39 42
Width: 553
GlyphClass: 2
Flags: W
TeX: 751 220
LayerCount: 2
Fore
SplineSet
403 457 m 1,0,1
 353 509 353 509 278 509 c 128,-1,2
 203 509 203 509 151 457 c 0,3,4
 98 404 98 404 98 330 c 128,-1,5
 98 256 98 256 151 203 c 0,6,7
 203 151 203 151 278 151 c 128,-1,8
 353 151 353 151 403 203 c 1,9,10
 457 257 457 257 457 330 c 128,-1,11
 457 403 457 403 403 457 c 1,0,1
121 174 m 0,12,13
 56 239 56 239 56 330 c 0,14,15
 56 420 56 420 121 485 c 0,16,17
 148 513 148 513 184 529 c 1,18,19
 127 557 127 557 91.5 611 c 128,-1,20
 56 665 56 665 56 730 c 0,21,22
 56 738 56 738 62.5 744.5 c 128,-1,23
 69 751 69 751 77 751 c 0,24,25
 86 751 86 751 92 744.5 c 128,-1,26
 98 738 98 738 98 730 c 0,27,28
 98 656 98 656 150.5 603.5 c 128,-1,29
 203 551 203 551 278 551 c 0,30,31
 352 551 352 551 404.5 603.5 c 128,-1,32
 457 656 457 656 457 730 c 0,33,34
 457 738 457 738 463 744.5 c 128,-1,35
 469 751 469 751 477 751 c 128,-1,36
 485 751 485 751 491.5 744.5 c 128,-1,37
 498 738 498 738 498 730 c 0,38,39
 498 665 498 665 462.5 611 c 128,-1,40
 427 557 427 557 370 529 c 1,41,42
 406 513 406 513 433 485 c 0,43,44
 498 420 498 420 498 330 c 0,45,46
 498 239 498 239 433 174 c 0,47,48
 378 119 378 119 298 111 c 1,49,-1
 298 -25 l 1,50,-1
 431 -25 l 2,51,52
 439 -25 439 -25 445.5 -31 c 128,-1,53
 452 -37 452 -37 452 -45 c 128,-1,54
 452 -53 452 -53 445.5 -59.5 c 128,-1,55
 439 -66 439 -66 431 -66 c 2,56,-1
 298 -66 l 1,57,-1
 298 -199 l 2,58,59
 298 -208 298 -208 292 -214 c 128,-1,60
 286 -220 286 -220 278 -220 c 0,61,62
 269 -220 269 -220 263 -214 c 128,-1,63
 257 -208 257 -208 257 -199 c 2,64,-1
 257 -66 l 1,65,-1
 123 -66 l 2,66,67
 115 -66 115 -66 108.5 -59.5 c 128,-1,68
 102 -53 102 -53 102 -45 c 128,-1,69
 102 -37 102 -37 108.5 -31 c 128,-1,70
 115 -25 115 -25 123 -25 c 2,71,-1
 257 -25 l 1,72,-1
 257 111 l 1,73,74
 176 119 176 119 121 174 c 0,12,13
EndSplineSet
EndChar

StartChar: leftarrowhead
Encoding: 40 40 43
Width: 340
GlyphClass: 2
Flags: W
TeX: 427 -85
LayerCount: 2
Fore
SplineSet
56 256 m 1,0,1
 167 312 167 312 211 427 c 1,2,-1
 242 427 l 1,3,4
 203 322 203 322 113 256 c 1,5,6
 203 190 203 190 242 85 c 1,7,-1
 211 85 l 1,8,9
 167 200 167 200 56 256 c 1,0,1
EndSplineSet
EndChar

StartChar: rightarrowhead
Encoding: 41 41 44
Width: 340
GlyphClass: 2
Flags: W
TeX: 427 -85
LayerCount: 2
Fore
SplineSet
129 427 m 1,0,1
 172 312 172 312 283 256 c 1,2,3
 172 200 172 200 129 85 c 1,4,-1
 97 85 l 1,5,6
 138 190 138 190 227 256 c 1,7,8
 138 322 138 322 97 427 c 1,9,-1
 129 427 l 1,0,1
EndSplineSet
EndChar

StartChar: uparrowhead
Encoding: 42 42 45
Width: 512
GlyphClass: 2
Flags: W
TeX: 0 186
LayerCount: 2
Fore
SplineSet
85 -155 m 1,0,1
 201 -111 201 -111 255 0 c 1,2,3
 309 -111 309 -111 425 -155 c 1,4,-1
 425 -186 l 1,5,6
 321 -147 321 -147 255 -56 c 1,7,8
 189 -147 189 -147 85 -186 c 1,9,-1
 85 -155 l 1,0,1
EndSplineSet
EndChar

StartChar: downarrowhead
Encoding: 43 43 46
Width: 512
GlyphClass: 2
Flags: W
TeX: 186 0
LayerCount: 2
Fore
SplineSet
255 0 m 1,0,1
 201 111 201 111 85 155 c 1,2,-1
 85 186 l 1,3,4
 189 147 189 147 255 56 c 1,5,6
 321 147 321 147 425 186 c 1,7,-1
 425 155 l 1,8,9
 309 111 309 111 255 0 c 1,0,1
EndSplineSet
EndChar

StartChar: smiley
Encoding: 44 44 47
Width: 824
GlyphClass: 2
Flags: W
TeX: 676 0
LayerCount: 2
Fore
SplineSet
650 577 m 0,0,1
 750 477 750 477 750 338 c 0,2,3
 750 197 750 197 650 99 c 1,4,5
 551 0 551 0 412 0 c 128,-1,6
 273 0 273 0 173 98 c 1,7,8
 74 199 74 199 74 338 c 0,9,10
 74 476 74 476 173 577 c 1,11,12
 272 676 272 676 412 676 c 0,13,14
 551 676 551 676 650 577 c 0,0,1
622 128 m 1,15,16
 708 214 708 214 708 338 c 0,17,18
 708 461 708 461 622 547 c 1,19,20
 532 635 532 635 412 635 c 0,21,22
 289 635 289 635 202 548 c 128,-1,23
 115 461 115 461 115 338 c 0,24,25
 115 213 115 213 202 128 c 1,26,27
 289 41 289 41 412 41 c 0,28,29
 532 41 532 41 622 128 c 1,15,16
523 248 m 1,30,-1
 542 230 l 1,31,32
 523 192 523 192 488 170 c 128,-1,33
 453 148 453 148 412 148 c 0,34,35
 370 148 370 148 334.5 170.5 c 128,-1,36
 299 193 299 193 282 230 c 1,37,-1
 299 248 l 1,38,39
 349 210 349 210 412 210 c 0,40,41
 476 210 476 210 523 248 c 1,30,-1
545 411 m 0,42,43
 533 398 533 398 514 398 c 0,44,45
 497 398 497 398 484 411 c 0,46,47
 472 423 472 423 472 440 c 0,48,49
 472 459 472 459 484 471 c 1,50,51
 498 483 498 483 514 483 c 0,52,53
 533 483 533 483 545 471 c 128,-1,54
 557 459 557 459 557 440 c 0,55,56
 557 423 557 423 545 411 c 0,42,43
338 411 m 0,57,58
 326 398 326 398 308 398 c 0,59,60
 291 398 291 398 279 411 c 1,61,62
 265 422 265 422 265 440 c 0,63,64
 265 460 265 460 279 471 c 1,65,66
 291 483 291 483 308 483 c 0,67,68
 326 483 326 483 338 471 c 0,69,70
 351 458 351 458 351 440 c 0,71,72
 351 424 351 424 338 411 c 0,57,58
EndSplineSet
EndChar

StartChar: blacksmiley
Encoding: 45 45 48
Width: 824
GlyphClass: 2
Flags: W
TeX: 676 0
LayerCount: 2
Fore
SplineSet
173 577 m 1,0,1
 272 676 272 676 412 676 c 0,2,3
 551 676 551 676 650 577 c 0,4,5
 750 477 750 477 750 338 c 0,6,7
 750 197 750 197 650 99 c 1,8,9
 551 0 551 0 412 0 c 128,-1,10
 273 0 273 0 173 98 c 1,11,12
 74 199 74 199 74 338 c 0,13,14
 74 476 74 476 173 577 c 1,0,1
305 231 m 1,15,-1
 279 205 l 1,16,17
 326 137 326 137 412 137 c 0,18,19
 494 137 494 137 545 205 c 1,20,-1
 517 231 l 1,21,22
 466 201 466 201 412 201 c 0,23,24
 356 201 356 201 305 231 c 1,15,-1
333 417 m 0,25,26
 345 429 345 429 345 447 c 0,27,28
 345 466 345 466 333 478 c 1,29,30
 317 492 317 492 301 492 c 0,31,32
 286 492 286 492 270 478 c 1,33,34
 258 466 258 466 258 447 c 0,35,36
 258 429 258 429 270 417 c 0,37,38
 284 403 284 403 301 403 c 0,39,40
 319 403 319 403 333 417 c 0,25,26
552 417 m 1,41,42
 565 430 565 430 565 447 c 0,43,44
 565 465 565 465 552 478 c 0,45,46
 538 492 538 492 521 492 c 0,47,48
 506 492 506 492 490 478 c 0,49,50
 477 466 477 466 477 447 c 0,51,52
 477 429 477 429 490 417 c 0,53,54
 504 403 504 403 521 403 c 0,55,56
 540 403 540 403 552 417 c 1,41,42
EndSplineSet
EndChar

StartChar: sun
Encoding: 46 46 49
Width: 824
GlyphClass: 2
Flags: W
TeX: 732 20
LayerCount: 2
Fore
SplineSet
604 355 m 0,0,1
 604 436 604 436 548 492 c 128,-1,2
 492 548 492 548 412 548 c 128,-1,3
 332 548 332 548 275 493 c 1,4,5
 219 435 219 435 219 355 c 128,-1,6
 219 275 219 275 275 219 c 128,-1,7
 331 163 331 163 412 163 c 0,8,9
 492 163 492 163 548 219 c 128,-1,10
 604 275 604 275 604 355 c 0,0,1
432 711 m 2,11,-1
 432 589 l 1,12,13
 504 583 504 583 561 535 c 1,14,-1
 648 622 l 2,15,16
 654 628 654 628 663 628 c 0,17,18
 670 628 670 628 676.5 621.5 c 128,-1,19
 683 615 683 615 683 607 c 0,20,21
 683 598 683 598 677 593 c 2,22,-1
 591 506 l 1,23,24
 638 450 638 450 644 376 c 1,25,-1
 767 376 l 2,26,27
 775 376 775 376 781 370 c 128,-1,28
 787 364 787 364 787 355 c 0,29,30
 787 347 787 347 781 341 c 128,-1,31
 775 335 775 335 767 335 c 2,32,-1
 644 335 l 1,33,34
 638 260 638 260 591 206 c 1,35,-1
 677 119 l 2,36,37
 683 113 683 113 683 104 c 0,38,39
 683 96 683 96 677 90 c 128,-1,40
 671 84 671 84 663 84 c 0,41,42
 654 84 654 84 648 90 c 2,43,-1
 561 176 l 1,44,45
 507 129 507 129 432 123 c 1,46,-1
 432 0 l 2,47,48
 432 -8 432 -8 426 -14 c 128,-1,49
 420 -20 420 -20 412 -20 c 0,50,51
 403 -20 403 -20 397 -14 c 128,-1,52
 391 -8 391 -8 391 0 c 2,53,-1
 391 123 l 1,54,55
 317 129 317 129 261 176 c 1,56,-1
 174 90 l 2,57,58
 168 84 168 84 160 84 c 0,59,60
 151 84 151 84 145 90 c 128,-1,61
 139 96 139 96 139 104 c 0,62,63
 139 113 139 113 145 119 c 2,64,-1
 232 206 l 1,65,66
 184 263 184 263 178 335 c 1,67,-1
 56 335 l 2,68,69
 47 335 47 335 41 341 c 128,-1,70
 35 347 35 347 35 355 c 0,71,72
 35 364 35 364 41 370 c 128,-1,73
 47 376 47 376 56 376 c 2,74,-1
 178 376 l 1,75,76
 184 447 184 447 232 506 c 1,77,-1
 145 593 l 2,78,79
 139 598 139 598 139 607 c 0,80,81
 139 614 139 614 145.5 621 c 128,-1,82
 152 628 152 628 160 628 c 128,-1,83
 168 628 168 628 174 622 c 2,84,-1
 261 535 l 1,85,86
 320 583 320 583 391 589 c 1,87,-1
 391 711 l 2,88,89
 391 720 391 720 397 726 c 128,-1,90
 403 732 403 732 412 732 c 0,91,92
 420 732 420 732 426 726 c 128,-1,93
 432 720 432 720 432 711 c 2,11,-1
EndSplineSet
EndChar

StartChar: frownie
Encoding: 47 47 50
Width: 824
GlyphClass: 2
Flags: W
TeX: 676 0
LayerCount: 2
Fore
SplineSet
708 338 m 0,0,1
 708 461 708 461 622 547 c 1,2,3
 532 635 532 635 412 635 c 0,4,5
 289 635 289 635 202 548 c 128,-1,6
 115 461 115 461 115 338 c 0,7,8
 115 213 115 213 202 128 c 1,9,10
 289 41 289 41 412 41 c 0,11,12
 532 41 532 41 622 128 c 1,13,14
 708 214 708 214 708 338 c 0,0,1
173 577 m 1,15,16
 272 676 272 676 412 676 c 0,17,18
 551 676 551 676 650 577 c 0,19,20
 750 477 750 477 750 338 c 0,21,22
 750 197 750 197 650 99 c 1,23,24
 551 0 551 0 412 0 c 128,-1,25
 273 0 273 0 173 98 c 1,26,27
 74 199 74 199 74 338 c 0,28,29
 74 476 74 476 173 577 c 1,15,16
514 172 m 1,30,31
 471 212 471 212 412 212 c 128,-1,32
 353 212 353 212 308 172 c 1,33,-1
 290 189 l 1,34,35
 304 227 304 227 337.5 250 c 128,-1,36
 371 273 371 273 412 273 c 0,37,38
 452 273 452 273 485 250 c 128,-1,39
 518 227 518 227 532 189 c 1,40,-1
 514 172 l 1,30,31
279 411 m 1,41,42
 265 422 265 422 265 440 c 0,43,44
 265 460 265 460 279 471 c 1,45,46
 291 483 291 483 308 483 c 0,47,48
 326 483 326 483 338 471 c 0,49,50
 351 458 351 458 351 440 c 0,51,52
 351 424 351 424 338 411 c 0,53,54
 326 398 326 398 308 398 c 0,55,56
 291 398 291 398 279 411 c 1,41,42
484 411 m 0,57,58
 472 423 472 423 472 440 c 0,59,60
 472 459 472 459 484 471 c 1,61,62
 498 483 498 483 514 483 c 0,63,64
 533 483 533 483 545 471 c 128,-1,65
 557 459 557 459 557 440 c 0,66,67
 557 423 557 423 545 411 c 0,68,69
 533 398 533 398 514 398 c 0,70,71
 497 398 497 398 484 411 c 0,57,58
EndSplineSet
EndChar

StartChar: agemO
Encoding: 48 48 51
Width: 739
GlyphClass: 2
Flags: W
TeX: 699 23
LayerCount: 2
Fore
SplineSet
257 699 m 2,0,1
 268 699 268 699 268 688 c 0,2,3
 268 607 268 607 215 458.5 c 128,-1,4
 162 310 162 310 162 233 c 0,5,6
 162 131 162 131 218 68 c 0,7,8
 278 0 278 0 369 0 c 0,9,10
 459 0 459 0 519 68 c 0,11,12
 575 131 575 131 575 233 c 0,13,14
 575 310 575 310 522 458.5 c 128,-1,15
 469 607 469 607 469 688 c 0,16,17
 469 699 469 699 481 699 c 2,18,-1
 658 699 l 1,19,-1
 692 535 l 1,20,-1
 667 535 l 1,21,22
 645 622 645 622 641 625 c 0,23,24
 629 634 629 634 566 634 c 2,25,-1
 499 634 l 1,26,27
 510 589 510 589 541 535 c 128,-1,28
 572 481 572 481 602.5 440 c 128,-1,29
 633 399 633 399 657 342.5 c 128,-1,30
 681 286 681 286 681 233 c 0,31,32
 681 128 681 128 589 51 c 1,33,34
 496 -23 496 -23 369 -23 c 0,35,36
 241 -23 241 -23 148 51 c 1,37,38
 56 128 56 128 56 233 c 0,39,40
 56 286 56 286 80 342.5 c 128,-1,41
 104 399 104 399 134.5 440 c 128,-1,42
 165 481 165 481 196.5 535 c 128,-1,43
 228 589 228 589 239 634 c 1,44,-1
 171 634 l 2,45,46
 109 634 109 634 97 625 c 0,47,48
 90 620 90 620 71 535 c 1,49,-1
 45 535 l 1,50,-1
 80 699 l 1,51,-1
 257 699 l 2,0,1
EndSplineSet
EndChar

StartChar: Bowtie
Encoding: 49 49 52
Width: 739
GlyphClass: 2
Flags: W
TeX: 652 -48
LayerCount: 2
Fore
SplineSet
99 53 m 2,0,1
 94 48 94 48 85 48 c 0,2,3
 77 48 77 48 71 54 c 128,-1,4
 65 60 65 60 65 69 c 2,5,-1
 65 632 l 2,6,7
 65 640 65 640 71.5 646 c 128,-1,8
 78 652 78 652 85 652 c 0,9,10
 94 652 94 652 99 646 c 2,11,-1
 369 379 l 1,12,-1
 638 646 l 2,13,14
 644 652 644 652 652 652 c 128,-1,15
 660 652 660 652 666.5 646 c 128,-1,16
 673 640 673 640 673 632 c 2,17,-1
 673 69 l 2,18,19
 673 60 673 60 667 54 c 128,-1,20
 661 48 661 48 652 48 c 0,21,22
 645 48 645 48 638 53 c 1,23,-1
 369 321 l 1,24,-1
 99 53 l 2,0,1
632 118 m 1,25,-1
 632 582 l 1,26,-1
 398 350 l 1,27,-1
 632 118 l 1,25,-1
105 582 m 1,28,-1
 105 118 l 1,29,-1
 340 350 l 1,30,-1
 105 582 l 1,28,-1
EndSplineSet
EndChar

StartChar: Box
Encoding: 50 50 53
Width: 764
GlyphClass: 2
Flags: W
TeX: 547 35
LayerCount: 2
Fore
SplineSet
91 -14 m 2,0,-1
 91 526 l 2,1,2
 91 535 91 535 97 541 c 128,-1,3
 103 547 103 547 112 547 c 2,4,-1
 651 547 l 2,5,6
 660 547 660 547 666 541 c 128,-1,7
 672 535 672 535 672 526 c 2,8,-1
 672 -14 l 2,9,10
 672 -23 672 -23 666 -29 c 128,-1,11
 660 -35 660 -35 651 -35 c 2,12,-1
 112 -35 l 2,13,14
 103 -35 103 -35 97 -29 c 128,-1,15
 91 -23 91 -23 91 -14 c 2,0,-1
631 7 m 1,16,-1
 631 505 l 1,17,-1
 132 505 l 1,18,-1
 132 7 l 1,19,-1
 631 7 l 1,16,-1
EndSplineSet
EndChar

StartChar: Diamond
Encoding: 51 51 54
Width: 809
GlyphClass: 2
Flags: W
TeX: 698 -1
LayerCount: 2
Fore
SplineSet
417 692 m 2,0,-1
 744 365 l 2,1,2
 751 358 751 358 751 349 c 0,3,4
 751 341 751 341 744 335 c 2,5,-1
 417 7 l 2,6,7
 411 1 411 1 402 1 c 128,-1,8
 393 1 393 1 388 7 c 2,9,-1
 59 335 l 2,10,11
 54 340 54 340 54 349 c 0,12,13
 54 359 54 359 59 365 c 2,14,-1
 388 692 l 2,15,16
 393 698 393 698 402 698 c 128,-1,17
 411 698 411 698 417 692 c 2,0,-1
103 350 m 1,18,-1
 402 51 l 1,19,-1
 701 350 l 1,20,-1
 402 648 l 1,21,-1
 103 350 l 1,18,-1
EndSplineSet
EndChar

StartChar: XBox
Encoding: 52 52 55
Width: 764
GlyphClass: 2
Flags: W
TeX: 547 35
LayerCount: 2
Fore
SplineSet
91 526 m 2,0,1
 91 535 91 535 97 541 c 128,-1,2
 103 547 103 547 112 547 c 2,3,-1
 651 547 l 2,4,5
 659 547 659 547 665.5 540.5 c 128,-1,6
 672 534 672 534 672 526 c 2,7,-1
 672 -14 l 2,8,9
 672 -22 672 -22 665.5 -28.5 c 128,-1,10
 659 -35 659 -35 651 -35 c 2,11,-1
 112 -35 l 2,12,13
 104 -35 104 -35 97.5 -28.5 c 128,-1,14
 91 -22 91 -22 91 -14 c 2,15,-1
 91 526 l 2,0,1
382 285 m 1,16,-1
 602 505 l 1,17,-1
 162 505 l 1,18,-1
 382 285 l 1,16,-1
411 256 m 1,19,-1
 631 36 l 1,20,-1
 631 476 l 1,21,-1
 411 256 l 1,19,-1
382 227 m 1,22,-1
 162 7 l 1,23,-1
 602 7 l 1,24,-1
 382 227 l 1,22,-1
352 256 m 1,25,-1
 132 476 l 1,26,-1
 132 36 l 1,27,-1
 352 256 l 1,25,-1
EndSplineSet
EndChar

StartChar: lozenge
Encoding: 53 53 56
Width: 764
GlyphClass: 2
Flags: W
TeX: 546 34
LayerCount: 2
Fore
SplineSet
179 256 m 128,-1,1
 179 396 179 396 93 512 c 0,2,3
 89 516 89 516 89 524 c 0,4,5
 89 545 89 545 110 545 c 0,6,7
 116 545 116 545 122 542 c 1,8,9
 234 456 234 456 379 456 c 0,10,11
 523 456 523 456 635 542 c 0,12,13
 641 546 641 546 647 546 c 0,14,15
 655 546 655 546 661.5 539.5 c 128,-1,16
 668 533 668 533 668 524 c 0,17,18
 668 517 668 517 664 512 c 0,19,20
 579 400 579 400 579 256 c 128,-1,21
 579 112 579 112 664 0 c 0,22,23
 668 -5 668 -5 668 -13 c 0,24,25
 668 -22 668 -22 661.5 -28 c 128,-1,26
 655 -34 655 -34 647 -34 c 0,27,28
 641 -34 641 -34 635 -30 c 0,29,30
 523 56 523 56 379 56 c 0,31,32
 234 56 234 56 122 -30 c 0,33,34
 117 -34 117 -34 110 -34 c 0,35,36
 101 -34 101 -34 95 -27.5 c 128,-1,37
 89 -21 89 -21 89 -12 c 0,38,39
 89 -5 89 -5 93 0 c 0,40,0
 179 116 179 116 179 256 c 128,-1,1
585 49 m 1,41,42
 538 148 538 148 538 256 c 128,-1,43
 538 364 538 364 585 463 c 1,44,45
 489 415 489 415 379 415 c 0,46,47
 268 415 268 415 172 463 c 1,48,49
 220 362 220 362 220 256 c 128,-1,50
 220 150 220 150 172 49 c 1,51,52
 268 97 268 97 379 97 c 0,53,54
 489 97 489 97 585 49 c 1,41,42
EndSplineSet
EndChar

StartChar: kreuz
Encoding: 54 54 57
Width: 764
GlyphClass: 2
Flags: W
TeX: 525 13
LayerCount: 2
Fore
SplineSet
344 219 m 1,0,1
 217 208 217 208 113 128 c 1,2,-1
 113 384 l 1,3,4
 217 304 217 304 344 293 c 1,5,6
 333 423 333 423 254 525 c 1,7,-1
 510 525 l 1,8,9
 430 422 430 422 419 293 c 1,10,11
 548 304 548 304 650 384 c 1,12,-1
 650 128 l 1,13,14
 548 208 548 208 419 219 c 1,15,16
 430 90 430 90 510 -13 c 1,17,-1
 254 -13 l 1,18,19
 333 89 333 89 344 219 c 1,0,1
EndSplineSet
EndChar

StartChar: hexagon
Encoding: 55 55 58
Width: 735
GlyphClass: 2
Flags: W
TeX: 546 34
LayerCount: 2
Fore
SplineSet
211 546 m 2,0,-1
 521 546 l 2,1,2
 534 546 534 546 539 536 c 2,3,-1
 694 266 l 2,4,5
 697 262 697 262 697 255 c 0,6,7
 697 250 697 250 694 246 c 2,8,-1
 539 -24 l 2,9,10
 534 -34 534 -34 521 -34 c 2,11,-1
 211 -34 l 2,12,13
 200 -34 200 -34 193 -24 c 1,14,-1
 38 246 l 2,15,16
 35 250 35 250 35 256 c 128,-1,17
 35 262 35 262 38 266 c 2,18,-1
 193 536 l 1,19,20
 200 546 200 546 211 546 c 2,0,-1
222 504 m 1,21,-1
 79 256 l 1,22,-1
 222 8 l 1,23,-1
 509 8 l 1,24,-1
 652 256 l 1,25,-1
 509 504 l 1,26,-1
 222 504 l 1,21,-1
EndSplineSet
EndChar

StartChar: octagon
Encoding: 56 56 59
Width: 1024
GlyphClass: 2
Flags: W
TeX: 688 176
LayerCount: 2
Fore
SplineSet
330 -172 m 2,0,-1
 84 74 l 2,1,2
 80 77 80 77 80 82 c 2,3,-1
 80 430 l 2,4,5
 80 435 80 435 84 438 c 2,6,-1
 330 684 l 2,7,8
 333 688 333 688 338 688 c 2,9,-1
 686 688 l 2,10,11
 691 688 691 688 694 684 c 2,12,-1
 940 438 l 2,13,14
 944 435 944 435 944 430 c 2,15,-1
 944 82 l 2,16,17
 944 77 944 77 940 74 c 2,18,-1
 694 -172 l 2,19,20
 691 -176 691 -176 686 -176 c 2,21,-1
 338 -176 l 2,22,23
 333 -176 333 -176 330 -172 c 2,0,-1
344 -151 m 1,24,-1
 680 -151 l 1,25,-1
 919 88 l 1,26,-1
 919 424 l 1,27,-1
 680 663 l 1,28,-1
 344 663 l 1,29,-1
 105 424 l 1,30,-1
 105 88 l 1,31,-1
 344 -151 l 1,24,-1
EndSplineSet
EndChar

StartChar: varhexagon
Encoding: 57 57 60
Width: 651
GlyphClass: 2
Flags: W
TeX: 587 75
LayerCount: 2
Fore
SplineSet
77 399 m 1,0,-1
 77 113 l 1,1,-1
 325 -31 l 1,2,-1
 572 113 l 1,3,-1
 572 399 l 1,4,-1
 325 543 l 1,5,-1
 77 399 l 1,0,-1
335 -72 m 2,6,7
 330 -75 330 -75 324 -75 c 0,8,9
 320 -75 320 -75 314 -73 c 1,10,-1
 46 83 l 2,11,12
 35 90 35 90 35 100 c 2,13,-1
 35 412 l 2,14,15
 35 423 35 423 46 429 c 2,16,-1
 314 584 l 2,17,18
 318 587 318 587 325 587 c 0,19,20
 330 587 330 587 335 584 c 2,21,-1
 604 429 l 1,22,23
 614 422 614 422 614 412 c 2,24,-1
 614 100 l 2,25,26
 614 90 614 90 604 83 c 1,27,-1
 335 -72 l 2,6,7
EndSplineSet
EndChar

StartChar: AC
Encoding: 58 58 61
Width: 681
GlyphClass: 2
Flags: W
TeX: 392 -120
LayerCount: 2
Fore
SplineSet
507 120 m 128,-1,1
 468 120 468 120 430.5 141.5 c 128,-1,2
 393 163 393 163 372 185 c 128,-1,3
 351 207 351 207 322 243 c 0,4,5
 280 295 280 295 244 322.5 c 128,-1,6
 208 350 208 350 167 350 c 0,7,8
 125 350 125 350 90 322.5 c 128,-1,9
 55 295 55 295 13 243 c 0,10,11
 7 236 7 236 -3 236 c 0,12,13
 -24 236 -24 236 -24 256 c 0,14,15
 -24 264 -24 264 -19 269 c 0,16,17
 10 305 10 305 31.5 327 c 128,-1,18
 53 349 53 349 90.5 370.5 c 128,-1,19
 128 392 128 392 167 392 c 128,-1,20
 206 392 206 392 244 370.5 c 128,-1,21
 282 349 282 349 303 327 c 128,-1,22
 324 305 324 305 353 269 c 0,23,24
 395 217 395 217 430 189.5 c 128,-1,25
 465 162 465 162 507 162 c 128,-1,26
 549 162 549 162 584 189 c 128,-1,27
 619 216 619 216 662 269 c 0,28,29
 668 276 668 276 678 276 c 0,30,31
 686 276 686 276 692 270 c 128,-1,32
 698 264 698 264 698 256 c 0,33,34
 698 250 698 250 693 243 c 0,35,36
 664 207 664 207 643 185 c 128,-1,37
 622 163 622 163 584 141.5 c 128,-1,0
 546 120 546 120 507 120 c 128,-1,1
EndSplineSet
EndChar

StartChar: leadsto
Encoding: 59 59 62
Width: 1024
GlyphClass: 2
Flags: W
TeX: 427 -85
LayerCount: 2
Fore
SplineSet
882 276 m 1,0,1
 812 338 812 338 777 427 c 1,2,-1
 808 427 l 1,3,4
 853 312 853 312 964 256 c 1,5,6
 853 200 853 200 808 85 c 1,7,-1
 777 85 l 1,8,9
 812 174 812 174 882 236 c 1,10,-1
 839 236 l 2,11,12
 804 236 804 236 764 218 c 128,-1,13
 724 200 724 200 692.5 178 c 128,-1,14
 661 156 661 156 618 138 c 128,-1,15
 575 120 575 120 535 120 c 0,16,17
 478 120 478 120 432.5 154 c 128,-1,18
 387 188 387 188 340 243 c 0,19,20
 295 295 295 295 258 322.5 c 128,-1,21
 221 350 221 350 177 350 c 0,22,23
 134 350 134 350 97.5 323 c 128,-1,24
 61 296 61 296 13 243 c 0,25,26
 7 236 7 236 -2 236 c 0,27,28
 -10 236 -10 236 -16.5 242 c 128,-1,29
 -23 248 -23 248 -23 256 c 0,30,31
 -23 261 -23 261 -17 269 c 0,32,33
 13 305 13 305 36 327.5 c 128,-1,34
 59 350 59 350 98 371 c 128,-1,35
 137 392 137 392 177 392 c 128,-1,36
 217 392 217 392 256 371 c 128,-1,37
 295 350 295 350 318 327.5 c 128,-1,38
 341 305 341 305 371 269 c 0,39,40
 417 216 417 216 454 189 c 128,-1,41
 491 162 491 162 535 162 c 0,42,43
 578 162 578 162 629 190.5 c 128,-1,44
 680 219 680 219 734.5 247.5 c 128,-1,45
 789 276 789 276 839 276 c 2,46,-1
 882 276 l 1,0,1
EndSplineSet
EndChar

StartChar: sqsubset
Encoding: 60 60 63
Width: 795
GlyphClass: 2
Flags: W
TeX: 554 41
LayerCount: 2
Fore
SplineSet
96 -20 m 2,0,-1
 96 534 l 2,1,2
 96 542 96 542 102 548 c 128,-1,3
 108 554 108 554 117 554 c 2,4,-1
 710 554 l 2,5,6
 718 554 718 554 724 548 c 128,-1,7
 730 542 730 542 730 534 c 0,8,9
 730 525 730 525 724 519 c 128,-1,10
 718 513 718 513 710 513 c 2,11,-1
 137 513 l 1,12,-1
 137 0 l 1,13,-1
 710 0 l 2,14,15
 718 0 718 0 724 -6 c 128,-1,16
 730 -12 730 -12 730 -20 c 0,17,18
 730 -29 730 -29 724 -35 c 128,-1,19
 718 -41 718 -41 710 -41 c 2,20,-1
 117 -41 l 2,21,22
 108 -41 108 -41 102 -35 c 128,-1,23
 96 -29 96 -29 96 -20 c 2,0,-1
EndSplineSet
EndChar

StartChar: sqsupset
Encoding: 61 61 64
Width: 795
GlyphClass: 2
Flags: W
TeX: 554 41
LayerCount: 2
Fore
SplineSet
656 0 m 1,0,-1
 656 513 l 1,1,-1
 85 513 l 2,2,3
 77 513 77 513 71 519 c 128,-1,4
 65 525 65 525 65 534 c 0,5,6
 65 542 65 542 71 548 c 128,-1,7
 77 554 77 554 85 554 c 2,8,-1
 677 554 l 2,9,10
 686 554 686 554 692 548 c 128,-1,11
 698 542 698 542 698 534 c 2,12,-1
 698 -22 l 2,13,14
 698 -41 698 -41 677 -41 c 2,15,-1
 85 -41 l 2,16,17
 65 -41 65 -41 65 -20 c 0,18,19
 65 -12 65 -12 71 -6.5 c 128,-1,20
 77 -1 77 -1 85 0 c 1,21,-1
 656 0 l 1,0,-1
EndSplineSet
EndChar

StartChar: apprle
Encoding: 62 62 65
Width: 795
GlyphClass: 2
Flags: W
TeX: 671 159
LayerCount: 2
Fore
SplineSet
153 373 m 1,0,-1
 696 114 l 2,1,2
 709 107 709 107 709 94 c 0,3,4
 709 86 709 86 702 80.5 c 128,-1,5
 695 75 695 75 688 75 c 0,6,7
 685 75 685 75 679 77 c 2,8,-1
 96 354 l 1,9,10
 84 363 84 363 84 374 c 0,11,12
 84 386 84 386 96 391 c 2,13,-1
 679 669 l 2,14,15
 685 671 685 671 688 671 c 0,16,17
 695 671 695 671 702 665 c 128,-1,18
 709 659 709 659 709 651 c 0,19,20
 709 639 709 639 696 632 c 2,21,-1
 153 373 l 1,0,-1
688 2 m 0,22,23
 693 2 693 2 697.5 -6.5 c 128,-1,24
 702 -15 702 -15 702 -27 c 0,25,26
 702 -91 702 -91 660.5 -125 c 128,-1,27
 619 -159 619 -159 566 -159 c 0,28,29
 504 -159 504 -159 394.5 -107 c 128,-1,30
 285 -55 285 -55 226 -55 c 0,31,32
 180 -55 180 -55 149.5 -80 c 128,-1,33
 119 -105 119 -105 119 -130 c 0,34,35
 119 -159 119 -159 104 -159 c 0,36,37
 90 -159 90 -159 90 -130 c 0,38,39
 90 -66 90 -66 132 -32 c 128,-1,40
 174 2 174 2 226 2 c 0,41,42
 288 2 288 2 397.5 -49.5 c 128,-1,43
 507 -101 507 -101 566 -101 c 0,44,45
 613 -101 613 -101 643.5 -76.5 c 128,-1,46
 674 -52 674 -52 674 -27 c 0,47,48
 674 2 674 2 688 2 c 0,22,23
EndSplineSet
EndChar

StartChar: apprge
Encoding: 63 63 66
Width: 795
GlyphClass: 2
Flags: W
TeX: 671 159
LayerCount: 2
Fore
SplineSet
94 114 m 2,0,-1
 638 373 l 1,1,-1
 94 632 l 1,2,3
 82 639 82 639 82 651 c 0,4,5
 82 660 82 660 88.5 665.5 c 128,-1,6
 95 671 95 671 102 671 c 0,7,8
 106 671 106 671 112 669 c 2,9,-1
 694 391 l 2,10,11
 706 385 706 385 706 373 c 0,12,13
 706 358 706 358 694 354 c 1,14,-1
 112 77 l 2,15,16
 106 75 106 75 102 75 c 0,17,18
 82 77 82 77 82 95 c 0,19,20
 82 109 82 109 94 114 c 2,0,-1
686 2 m 0,21,22
 691 2 691 2 695.5 -6.5 c 128,-1,23
 700 -15 700 -15 700 -27 c 0,24,25
 700 -91 700 -91 658.5 -125 c 128,-1,26
 617 -159 617 -159 564 -159 c 0,27,28
 502 -159 502 -159 392.5 -107 c 128,-1,29
 283 -55 283 -55 224 -55 c 0,30,31
 178 -55 178 -55 147.5 -80 c 128,-1,32
 117 -105 117 -105 117 -130 c 0,33,34
 117 -159 117 -159 102 -159 c 0,35,36
 88 -159 88 -159 88 -130 c 0,37,38
 88 -66 88 -66 130 -32 c 128,-1,39
 172 2 172 2 224 2 c 0,40,41
 286 2 286 2 395.5 -49.5 c 128,-1,42
 505 -101 505 -101 564 -101 c 0,43,44
 611 -101 611 -101 641.5 -76.5 c 128,-1,45
 672 -52 672 -52 672 -27 c 0,46,47
 672 2 672 2 686 2 c 0,21,22
EndSplineSet
EndChar

StartChar: VHF
Encoding: 64 64 67
Width: 795
GlyphClass: 2
Flags: W
TeX: 542 30
LayerCount: 2
Fore
SplineSet
565 120 m 128,-1,1
 526 120 526 120 488.5 141.5 c 128,-1,2
 451 163 451 163 429.5 185 c 128,-1,3
 408 207 408 207 379 243 c 0,4,5
 337 295 337 295 302 322.5 c 128,-1,6
 267 350 267 350 225 350 c 128,-1,7
 183 350 183 350 148 322.5 c 128,-1,8
 113 295 113 295 71 243 c 0,9,10
 65 236 65 236 54 236 c 0,11,12
 46 236 46 236 40 242 c 128,-1,13
 34 248 34 248 34 256 c 0,14,15
 34 262 34 262 39 269 c 0,16,17
 68 305 68 305 89 327 c 128,-1,18
 110 349 110 349 148 370.5 c 128,-1,19
 186 392 186 392 225 392 c 128,-1,20
 264 392 264 392 301.5 370.5 c 128,-1,21
 339 349 339 349 360.5 327 c 128,-1,22
 382 305 382 305 411 269 c 0,23,24
 454 216 454 216 489 189 c 128,-1,25
 524 162 524 162 565 162 c 0,26,27
 607 162 607 162 643 189.5 c 128,-1,28
 679 217 679 217 720 269 c 0,29,30
 726 276 726 276 736 276 c 0,31,32
 745 276 745 276 751 270 c 128,-1,33
 757 264 757 264 757 256 c 0,34,35
 757 250 757 250 752 243 c 0,36,37
 723 207 723 207 701.5 185 c 128,-1,38
 680 163 680 163 642 141.5 c 128,-1,0
 604 120 604 120 565 120 c 128,-1,1
565 270 m 0,39,40
 536 270 536 270 508.5 280.5 c 128,-1,41
 481 291 481 291 456.5 311.5 c 128,-1,42
 432 332 432 332 416 349 c 128,-1,43
 400 366 400 366 379 392 c 0,44,45
 337 445 337 445 302 473 c 128,-1,46
 267 501 267 501 225 501 c 128,-1,47
 183 501 183 501 148 473 c 128,-1,48
 113 445 113 445 71 392 c 0,49,50
 65 385 65 385 54 385 c 0,51,52
 46 385 46 385 40 391 c 128,-1,53
 34 397 34 397 34 406 c 0,54,55
 34 412 34 412 39 419 c 0,56,57
 61 446 61 446 76 462 c 128,-1,58
 91 478 91 478 116 499.5 c 128,-1,59
 141 521 141 521 168 531.5 c 128,-1,60
 195 542 195 542 225 542 c 0,61,62
 254 542 254 542 281.5 531.5 c 128,-1,63
 309 521 309 521 334 499.5 c 128,-1,64
 359 478 359 478 374 462 c 128,-1,65
 389 446 389 446 412 419 c 1,66,67
 454 366 454 366 489 338.5 c 128,-1,68
 524 311 524 311 565 311 c 0,69,70
 607 311 607 311 642.5 339 c 128,-1,71
 678 367 678 367 720 419 c 0,72,73
 726 426 726 426 736 426 c 0,74,75
 745 426 745 426 751 420 c 128,-1,76
 757 414 757 414 757 406 c 0,77,78
 757 399 757 399 752 392 c 0,79,80
 723 356 723 356 701.5 334.5 c 128,-1,81
 680 313 680 313 642 291.5 c 128,-1,82
 604 270 604 270 565 270 c 0,39,40
565 -30 m 0,83,84
 536 -30 536 -30 508.5 -19.5 c 128,-1,85
 481 -9 481 -9 456.5 12 c 128,-1,86
 432 33 432 33 416 50 c 128,-1,87
 400 67 400 67 379 93 c 0,88,89
 337 146 337 146 302 173.5 c 128,-1,90
 267 201 267 201 225 201 c 128,-1,91
 183 201 183 201 148 173.5 c 128,-1,92
 113 146 113 146 71 93 c 0,93,94
 65 86 65 86 54 86 c 0,95,96
 46 86 46 86 40 92 c 128,-1,97
 34 98 34 98 34 106 c 0,98,99
 34 113 34 113 39 120 c 0,100,101
 68 156 68 156 89 177.5 c 128,-1,102
 110 199 110 199 148 220.5 c 128,-1,103
 186 242 186 242 225 242 c 0,104,105
 254 242 254 242 281.5 231.5 c 128,-1,106
 309 221 309 221 333.5 200.5 c 128,-1,107
 358 180 358 180 374 163 c 128,-1,108
 390 146 390 146 411 120 c 0,109,110
 454 66 454 66 489 38.5 c 128,-1,111
 524 11 524 11 565 11 c 0,112,113
 607 11 607 11 643 39 c 128,-1,114
 679 67 679 67 720 120 c 0,115,116
 726 127 726 127 736 127 c 0,117,118
 745 127 745 127 751 121 c 128,-1,119
 757 115 757 115 757 106 c 0,120,121
 757 100 757 100 752 93 c 0,122,123
 731 67 731 67 715 50 c 128,-1,124
 699 33 699 33 674.5 12 c 128,-1,125
 650 -9 650 -9 622.5 -19.5 c 128,-1,126
 595 -30 595 -30 565 -30 c 0,83,84
EndSplineSet
EndChar

StartChar: hexstar
Encoding: 65 65 68
Width: 791
GlyphClass: 2
Flags: W
TeX: 563 51
LayerCount: 2
Fore
SplineSet
418 244 m 1,0,-1
 578 -32 l 2,1,2
 579 -34 579 -34 579 -38 c 0,3,4
 579 -51 579 -51 565 -51 c 0,5,6
 558 -51 558 -51 555 -45 c 2,7,-1
 396 230 l 1,8,-1
 238 -45 l 1,9,10
 232 -51 232 -51 227 -51 c 0,11,12
 214 -51 214 -51 214 -38 c 0,13,14
 214 -34 214 -34 215 -32 c 2,15,-1
 374 244 l 1,16,-1
 56 244 l 2,17,18
 43 244 43 244 43 256 c 0,19,20
 43 269 43 269 56 269 c 2,21,-1
 374 269 l 1,22,-1
 215 544 l 2,23,24
 214 546 214 546 214 550 c 0,25,26
 214 563 214 563 227 563 c 0,27,28
 232 563 232 563 238 557 c 1,29,-1
 396 282 l 1,30,-1
 555 557 l 2,31,32
 558 563 558 563 565 563 c 0,33,34
 579 563 579 563 579 550 c 0,35,36
 579 546 579 546 578 544 c 2,37,-1
 418 269 l 1,38,-1
 736 269 l 2,39,40
 749 269 749 269 749 256 c 0,41,42
 749 244 749 244 736 244 c 2,43,-1
 418 244 l 1,0,-1
EndSplineSet
EndChar

StartChar: varhexstar
Encoding: 66 66 69
Width: 702
GlyphClass: 2
Flags: W
TeX: 608 96
LayerCount: 2
Fore
SplineSet
377 256 m 1,0,-1
 652 97 l 2,1,2
 658 93 658 93 658 87 c 0,3,4
 658 74 658 74 645 74 c 0,5,6
 641 74 641 74 639 75 c 2,7,-1
 365 233 l 1,8,-1
 365 -84 l 2,9,10
 365 -96 365 -96 351 -96 c 0,11,12
 339 -96 339 -96 339 -84 c 2,13,-1
 339 233 l 1,14,-1
 63 75 l 2,15,16
 61 74 61 74 57 74 c 0,17,18
 44 74 44 74 44 87 c 0,19,20
 44 93 44 93 50 97 c 2,21,-1
 326 256 l 1,22,-1
 50 415 l 1,23,24
 44 420 44 420 44 425 c 0,25,26
 44 438 44 438 57 438 c 0,27,28
 61 438 61 438 63 437 c 2,29,-1
 339 279 l 1,30,-1
 339 596 l 2,31,32
 339 608 339 608 351 608 c 0,33,34
 365 608 365 608 365 596 c 2,35,-1
 365 279 l 1,36,-1
 639 437 l 2,37,38
 641 438 641 438 645 438 c 0,39,40
 658 438 658 438 658 425 c 0,41,42
 658 420 658 420 652 415 c 1,43,-1
 377 256 l 1,0,-1
EndSplineSet
EndChar

StartChar: davidsstar
Encoding: 67 67 70
Width: 702
GlyphClass: 2
Flags: W
TeX: 608 96
LayerCount: 2
Fore
SplineSet
427 74 m 1,0,-1
 275 74 l 1,1,-1
 351 -58 l 1,2,-1
 427 74 l 1,0,-1
260 413 m 1,3,-1
 170 256 l 1,4,-1
 260 99 l 1,5,-1
 442 99 l 1,6,-1
 532 256 l 1,7,-1
 442 413 l 1,8,-1
 260 413 l 1,3,-1
231 413 m 1,9,-1
 79 413 l 1,10,-1
 155 282 l 1,11,-1
 231 413 l 1,9,-1
646 74 m 2,12,-1
 457 74 l 1,13,-1
 362 -90 l 2,14,15
 358 -96 358 -96 351 -96 c 0,16,17
 343 -96 343 -96 340 -90 c 2,18,-1
 246 74 l 1,19,-1
 57 74 l 2,20,21
 52 74 52 74 50 75 c 0,22,23
 44 78 44 78 44 86 c 0,24,25
 44 88 44 88 46 92 c 2,26,-1
 140 256 l 1,27,-1
 46 420 l 2,28,29
 44 424 44 424 44 426 c 0,30,31
 44 434 44 434 50 437 c 0,32,33
 52 438 52 438 57 438 c 2,34,-1
 246 438 l 1,35,-1
 340 602 l 2,36,37
 343 608 343 608 351 608 c 0,38,39
 358 608 358 608 362 602 c 2,40,-1
 457 438 l 1,41,-1
 646 438 l 2,42,43
 650 438 650 438 652 437 c 0,44,45
 658 434 658 434 658 426 c 0,46,47
 658 424 658 424 656 420 c 2,48,-1
 562 256 l 1,49,-1
 656 92 l 2,50,51
 658 88 658 88 658 86 c 0,52,53
 658 74 658 74 646 74 c 2,12,-1
79 99 m 1,54,-1
 231 99 l 1,55,-1
 155 230 l 1,56,-1
 79 99 l 1,54,-1
548 282 m 1,57,-1
 624 413 l 1,58,-1
 472 413 l 1,59,-1
 548 282 l 1,57,-1
351 570 m 1,60,-1
 275 438 l 1,61,-1
 427 438 l 1,62,-1
 351 570 l 1,60,-1
624 99 m 1,63,-1
 548 230 l 1,64,-1
 472 99 l 1,65,-1
 624 99 l 1,63,-1
656 79 m 0,66,-1
EndSplineSet
EndChar

StartChar: pentagon
Encoding: 68 68 71
Width: 795
GlyphClass: 2
Flags: W
TeX: 597 25
LayerCount: 2
Fore
SplineSet
720 349 m 2,0,-1
 603 -10 l 2,1,2
 599 -25 599 -25 584 -25 c 2,3,-1
 207 -25 l 2,4,5
 191 -25 191 -25 187 -10 c 2,6,-1
 71 349 l 2,7,8
 70 351 70 351 70 355 c 0,9,10
 70 366 70 366 78 372 c 2,11,-1
 383 594 l 1,12,13
 389 597 389 597 395 597 c 0,14,15
 400 597 400 597 408 594 c 1,16,-1
 713 372 l 2,17,18
 721 366 721 366 721 355 c 0,19,20
 721 351 721 351 720 349 c 2,0,-1
676 347 m 1,21,-1
 395 551 l 1,22,-1
 115 347 l 1,23,-1
 221 17 l 1,24,-1
 568 17 l 1,25,-1
 676 347 l 1,21,-1
EndSplineSet
EndChar

StartChar: pentastar
Encoding: 69 69 72
Width: 795
GlyphClass: 2
Flags: W
TeX: 597 -55
LayerCount: 2
Fore
SplineSet
396 276 m 1,0,-1
 239 59 l 2,1,2
 236 55 236 55 228 55 c 0,3,4
 216 55 216 55 216 68 c 0,5,6
 216 73 216 73 218 75 c 2,7,-1
 376 292 l 1,8,-1
 121 375 l 2,9,10
 111 378 111 378 111 387 c 1,11,-1
 112 391 l 1,12,13
 116 400 116 400 125 400 c 1,14,-1
 383 316 l 1,15,-1
 383 585 l 2,16,17
 383 597 383 597 396 597 c 128,-1,18
 409 597 409 597 409 585 c 2,19,-1
 409 316 l 1,20,-1
 668 400 l 1,21,22
 676 400 676 400 680 391 c 1,23,-1
 681 387 l 1,24,25
 681 378 681 378 672 375 c 2,26,-1
 417 292 l 1,27,-1
 574 75 l 1,28,29
 577 73 577 73 577 68 c 0,30,31
 577 55 577 55 564 55 c 0,32,33
 557 55 557 55 554 59 c 2,34,-1
 396 276 l 1,0,-1
EndSplineSet
EndChar

StartChar: APLdown
Encoding: 70 70 73
Width: 681
GlyphClass: 2
Flags: W
TeX: 711 12
LayerCount: 2
Fore
SplineSet
623 683 m 2,0,-1
 359 2 l 2,1,2
 354 -12 354 -12 340 -12 c 0,3,4
 327 -12 327 -12 322 2 c 2,5,-1
 58 683 l 2,6,7
 56 687 56 687 56 690 c 0,8,9
 56 705 56 705 70 710 c 0,10,11
 72 711 72 711 77 711 c 2,12,-1
 603 711 l 2,13,14
 608 711 608 711 610 710 c 0,15,16
 624 705 624 705 624 690 c 0,17,18
 624 686 624 686 623 683 c 2,0,-1
573 670 m 1,19,-1
 108 670 l 1,20,-1
 340 67 l 1,21,-1
 573 670 l 1,19,-1
EndSplineSet
EndChar

StartChar: LEFTCIRCLE
Encoding: 71 71 74
Width: 795
GlyphClass: 2
Flags: W
TeX: 597 85
LayerCount: 2
Fore
SplineSet
157 498 m 0,0,1
 256 597 256 597 397 597 c 1,2,-1
 397 -85 l 1,3,4
 256 -85 256 -85 157 14 c 0,5,6
 56 115 56 115 56 256 c 128,-1,7
 56 397 56 397 157 498 c 0,0,1
EndSplineSet
EndChar

StartChar: RIGHTCIRCLE
Encoding: 72 72 75
Width: 795
GlyphClass: 2
Flags: W
TeX: 597 85
LayerCount: 2
Fore
SplineSet
397 597 m 1,0,1
 537 597 537 597 638 498 c 1,2,3
 737 396 737 396 737 256 c 128,-1,4
 737 116 737 116 638 14 c 1,5,6
 537 -85 537 -85 397 -85 c 1,7,-1
 397 597 l 1,0,1
EndSplineSet
EndChar

StartChar: Leftcircle
Encoding: 73 73 76
Width: 795
GlyphClass: 2
Flags: W
TeX: 597 85
LayerCount: 2
Fore
SplineSet
174 33 m 0,0,1
 217 -11 217 -11 273 -35 c 128,-1,2
 329 -59 329 -59 384 -59 c 1,3,-1
 384 571 l 1,4,5
 329 571 329 571 273 547 c 128,-1,6
 217 523 217 523 174 479 c 0,7,8
 82 385 82 385 82 256 c 128,-1,9
 82 127 82 127 174 33 c 0,0,1
410 585 m 2,10,-1
 410 -73 l 2,11,12
 410 -85 410 -85 397 -85 c 0,13,14
 256 -85 256 -85 157 14 c 0,15,16
 56 115 56 115 56 256 c 128,-1,17
 56 397 56 397 157 498 c 0,18,19
 256 597 256 597 397 597 c 0,20,21
 410 597 410 597 410 585 c 2,10,-1
EndSplineSet
EndChar

StartChar: Rightcircle
Encoding: 74 74 77
Width: 795
GlyphClass: 2
Flags: W
TeX: 597 85
LayerCount: 2
Fore
SplineSet
382 -73 m 2,0,-1
 382 585 l 2,1,2
 382 597 382 597 395 597 c 0,3,4
 535 597 535 597 636 498 c 1,5,6
 735 396 735 396 735 256 c 128,-1,7
 735 116 735 116 636 14 c 1,8,9
 535 -85 535 -85 395 -85 c 0,10,11
 382 -85 382 -85 382 -73 c 2,0,-1
617 479 m 1,12,13
 575 523 575 523 518.5 547 c 128,-1,14
 462 571 462 571 408 571 c 1,15,-1
 408 -59 l 1,16,17
 462 -59 462 -59 518.5 -35 c 128,-1,18
 575 -11 575 -11 617 33 c 1,19,20
 710 124 710 124 710 256 c 128,-1,21
 710 388 710 388 617 479 c 1,12,13
EndSplineSet
EndChar

StartChar: UParrow
Encoding: 75 75 78
Width: 591
GlyphClass: 2
Flags: W
TeX: 569 57
LayerCount: 2
Fore
SplineSet
572 -57 m 1,0,-1
 17 -57 l 1,1,-1
 295 569 l 1,2,-1
 572 -57 l 1,0,-1
EndSplineSet
EndChar

StartChar: DOWNarrow
Encoding: 76 76 79
Width: 591
GlyphClass: 2
Flags: W
TeX: 569 57
LayerCount: 2
Fore
SplineSet
17 569 m 1,0,-1
 572 569 l 1,1,-1
 295 -57 l 1,2,-1
 17 569 l 1,0,-1
EndSplineSet
EndChar

StartChar: gluonelement
Encoding: 80 80 80
Width: 340
GlyphClass: 2
Flags: W
TeX: 585 73
LayerCount: 2
Fore
SplineSet
0 544 m 0,0,1
 -8 544 -8 544 -14 550 c 128,-1,2
 -20 556 -20 556 -20 564 c 128,-1,3
 -20 572 -20 572 -14 578.5 c 128,-1,4
 -8 585 -8 585 0 585 c 0,5,6
 89 585 89 585 170 477 c 1,7,8
 249 585 249 585 339 585 c 0,9,10
 347 585 347 585 353 578.5 c 128,-1,11
 359 572 359 572 359 564 c 128,-1,12
 359 556 359 556 353 550 c 128,-1,13
 347 544 347 544 339 544 c 0,14,15
 262 544 262 544 195 441 c 1,16,17
 302 270 302 270 302 120 c 0,18,19
 302 44 302 44 268.5 -14.5 c 128,-1,20
 235 -73 235 -73 170 -73 c 0,21,22
 125 -73 125 -73 94 -42 c 128,-1,23
 63 -11 63 -11 50 31 c 128,-1,24
 37 73 37 73 37 120 c 0,25,26
 37 271 37 271 145 441 c 1,27,28
 74 544 74 544 0 544 c 0,0,1
170 -32 m 0,29,30
 211 -32 211 -32 236 11.5 c 128,-1,31
 261 55 261 55 261 120 c 0,32,33
 261 253 261 253 170 402 c 1,34,35
 78 254 78 254 78 120 c 0,36,37
 78 55 78 55 103 11.5 c 128,-1,38
 128 -32 128 -32 170 -32 c 0,29,30
EndSplineSet
EndChar

StartChar: gluonbelement
Encoding: 81 81 81
Width: 340
GlyphClass: 2
Flags: W
TeX: 585 -236
LayerCount: 2
Fore
SplineSet
-22 265 m 0,0,1
 4 317 4 317 27 356.5 c 128,-1,2
 50 396 50 396 85 441.5 c 128,-1,3
 120 487 120 487 155 516.5 c 128,-1,4
 190 546 190 546 237.5 565.5 c 128,-1,5
 285 585 285 585 336 585 c 0,6,7
 344 585 344 585 350 578.5 c 128,-1,8
 356 572 356 572 356 564 c 128,-1,9
 356 556 356 556 350 550 c 128,-1,10
 344 544 344 544 336 544 c 0,11,12
 282 544 282 544 234.5 520.5 c 128,-1,13
 187 497 187 497 147 451.5 c 128,-1,14
 107 406 107 406 77.5 359 c 128,-1,15
 48 312 48 312 15 247 c 0,16,17
 9 236 9 236 -3 236 c 0,18,19
 -6 236 -6 236 -12 238 c 1,20,21
 -24 245 -24 245 -24 256 c 0,22,23
 -24 259 -24 259 -22 265 c 0,0,1
EndSplineSet
EndChar

StartChar: gluoneelement
Encoding: 82 82 82
Width: 340
GlyphClass: 2
Flags: W
TeX: 585 -236
LayerCount: 2
Fore
SplineSet
0 585 m 0,0,1
 63 585 63 585 119 557.5 c 128,-1,2
 175 530 175 530 219 479.5 c 128,-1,3
 263 429 263 429 293.5 380 c 128,-1,4
 324 331 324 331 357 265 c 0,5,6
 359 259 359 259 359 256 c 0,7,8
 359 244 359 244 348 238 c 1,9,10
 342 236 342 236 339 236 c 0,11,12
 327 236 327 236 321 247 c 0,13,14
 288 312 288 312 258.5 359 c 128,-1,15
 229 406 229 406 189 451.5 c 128,-1,16
 149 497 149 497 101.5 520.5 c 128,-1,17
 54 544 54 544 0 544 c 0,18,19
 -8 544 -8 544 -14 550 c 128,-1,20
 -20 556 -20 556 -20 564 c 128,-1,21
 -20 572 -20 572 -14 578.5 c 128,-1,22
 -8 585 -8 585 0 585 c 0,0,1
EndSplineSet
EndChar

StartChar: inve
Encoding: 85 85 83
Width: 454
GlyphClass: 2
Flags: W
TeX: 453 17
LayerCount: 2
Fore
SplineSet
339 205 m 1,0,-1
 339 217 l 2,1,2
 339 317 339 317 303 367 c 0,3,4
 261 427 261 427 195 427 c 0,5,6
 145 427 145 427 106 396 c 128,-1,7
 67 365 67 365 53 316 c 0,8,9
 51 307 51 307 43 307 c 1,10,-1
 37 308 l 2,11,12
 29 310 29 310 29 319 c 2,13,-1
 29 322 l 1,14,15
 44 380 44 380 91.5 416.5 c 128,-1,16
 139 453 139 453 199 453 c 0,17,18
 291 453 291 453 358 383 c 0,19,20
 425 314 425 314 425 217 c 0,21,22
 425 121 425 121 362 52 c 1,23,24
 303 -17 303 -17 212 -17 c 0,25,26
 126 -17 126 -17 77 39 c 0,27,28
 29 93 29 93 29 194 c 0,29,30
 29 205 29 205 40 205 c 2,31,-1
 339 205 l 1,0,-1
339 183 m 1,32,-1
 96 183 l 1,33,34
 98 100 98 100 128 52 c 1,35,36
 158 6 158 6 212 6 c 0,37,38
 270 6 270 6 308 66 c 0,39,40
 336 109 336 109 339 183 c 1,32,-1
EndSplineSet
EndChar

StartChar: conjunction
Encoding: 86 86 84
Width: 818
GlyphClass: 2
Flags: W
TeX: 637 0
LayerCount: 2
Fore
SplineSet
457 220 m 0,0,1
 457 292 457 292 404 347 c 0,2,3
 354 399 354 399 278 399 c 0,4,5
 201 399 201 399 151 347 c 1,6,7
 98 294 98 294 98 220 c 128,-1,8
 98 146 98 146 151 93 c 0,9,10
 203 41 203 41 278 41 c 128,-1,11
 353 41 353 41 403 93 c 1,12,13
 457 147 457 147 457 220 c 0,0,1
121 377 m 1,14,15
 187 441 187 441 278 441 c 0,16,17
 358 441 358 441 418 390 c 1,18,-1
 658 631 l 1,19,20
 666 637 666 637 673 637 c 0,21,22
 681 637 681 637 687 630.5 c 128,-1,23
 693 624 693 624 693 616 c 0,24,25
 693 606 693 606 687 602 c 1,26,-1
 446 361 l 1,27,28
 498 300 498 300 498 220 c 0,29,30
 498 128 498 128 433 65 c 1,31,32
 368 0 368 0 278 0 c 128,-1,33
 188 0 188 0 121 65 c 0,34,35
 56 128 56 128 56 220 c 0,36,37
 56 310 56 310 121 377 c 1,14,15
EndSplineSet
EndChar

StartChar: opposition
Encoding: 87 87 85
Width: 995
GlyphClass: 2
Flags: W
TeX: 902 111
LayerCount: 2
Fore
SplineSet
498 130 m 128,-1,1
 498 210 498 210 439 271 c 1,2,3
 380 330 380 330 298 330 c 0,4,5
 214 330 214 330 157 271 c 1,6,7
 98 212 98 212 98 130 c 128,-1,8
 98 48 98 48 157 -11 c 1,9,10
 214 -70 214 -70 298 -70 c 0,11,12
 380 -70 380 -70 439 -11 c 1,13,0
 498 50 498 50 498 130 c 128,-1,1
127 300 m 128,-1,15
 198 371 198 371 298 371 c 0,16,17
 379 371 379 371 447 319 c 1,18,-1
 536 502 l 1,19,20
 475 571 475 571 475 662 c 0,21,22
 475 760 475 760 546 831 c 1,23,24
 615 902 615 902 716 902 c 0,25,26
 818 902 818 902 887 831 c 1,27,28
 957 761 957 761 957 662 c 128,-1,29
 957 563 957 563 887 490 c 1,30,31
 817 420 817 420 716 420 c 0,32,33
 631 420 631 420 567 472 c 1,34,-1
 478 290 l 1,35,36
 539 221 539 221 539 130 c 0,37,38
 539 31 539 31 468 -40 c 1,39,40
 399 -111 399 -111 298 -111 c 0,41,42
 198 -111 198 -111 127 -40 c 128,-1,43
 56 31 56 31 56 130 c 128,-1,14
 56 229 56 229 127 300 c 128,-1,15
916 662 m 0,44,45
 916 744 916 744 858 802 c 0,46,47
 799 861 799 861 716 861 c 128,-1,48
 633 861 633 861 575 803 c 1,49,50
 516 742 516 742 516 662 c 0,51,52
 516 580 516 580 574 520 c 1,53,54
 632 462 632 462 716 462 c 128,-1,55
 800 462 800 462 858 520 c 128,-1,56
 916 578 916 578 916 662 c 0,44,45
EndSplineSet
EndChar

StartChar: jupiter
Encoding: 88 88 86
Width: 716
GlyphClass: 2
Flags: W
TeX: 699 0
LayerCount: 2
Fore
SplineSet
284 401 m 1,0,-1
 226 265 l 1,1,-1
 400 265 l 1,2,-1
 400 474 l 1,3,4
 405 488 405 488 421 489 c 1,5,6
 441 486 441 486 441 471 c 2,7,-1
 441 265 l 1,8,-1
 642 265 l 2,9,10
 650 265 650 265 657 259 c 128,-1,11
 664 253 664 253 664 245 c 128,-1,12
 664 237 664 237 658 230.5 c 128,-1,13
 652 224 652 224 642 224 c 2,14,-1
 441 224 l 1,15,-1
 441 14 l 2,16,17
 441 0 441 0 421 0 c 0,18,19
 400 0 400 0 400 14 c 2,20,-1
 400 224 l 1,21,-1
 188 224 l 2,22,23
 183 224 183 224 178 229 c 128,-1,24
 173 234 173 234 173 240 c 0,25,26
 173 251 173 251 175 254 c 0,27,28
 198 298 198 298 210 325.5 c 128,-1,29
 222 353 222 353 232.5 382 c 128,-1,30
 243 411 243 411 250 429 c 0,31,32
 278 513 278 513 278 563 c 0,33,34
 278 607 278 607 257.5 632.5 c 128,-1,35
 237 658 237 658 200 658 c 0,36,37
 149 658 149 658 118 621 c 1,38,39
 96 599 96 599 93 553 c 1,40,41
 93 535 93 535 99 517 c 0,42,43
 100 515 100 515 100 510 c 0,44,45
 100 490 100 490 78 490 c 0,46,47
 72 490 72 490 60 505 c 1,48,49
 52 519 52 519 52 565 c 1,50,51
 59 624 59 624 98 659 c 1,52,53
 115 676 115 676 145 687.5 c 128,-1,54
 175 699 175 699 200 699 c 0,55,56
 259 699 259 699 290 663 c 128,-1,57
 321 627 321 627 321 567 c 0,58,59
 321 502 321 502 284 401 c 1,0,-1
EndSplineSet
EndChar

StartChar: saturn
Encoding: 89 89 87
Width: 596
GlyphClass: 2
Flags: W
TeX: 699 199
LayerCount: 2
Fore
SplineSet
257 607 m 1,0,1
 275 604 275 604 275 587 c 0,2,3
 275 578 275 578 270 571.5 c 128,-1,4
 265 565 265 565 260 565 c 2,5,-1
 183 565 l 1,6,-1
 183 370 l 1,7,8
 216 420 216 420 257 440 c 1,9,10
 296 462 296 462 341 462 c 0,11,12
 428 462 428 462 484.5 389 c 128,-1,13
 541 316 541 316 541 225 c 0,14,15
 541 184 541 184 522 126 c 128,-1,16
 503 68 503 68 483 17 c 0,17,18
 471 -13 471 -13 458 -54 c 128,-1,19
 445 -95 445 -95 445 -122 c 0,20,21
 445 -158 445 -158 513 -158 c 2,22,-1
 518 -158 l 2,23,24
 525 -158 525 -158 532.5 -163 c 128,-1,25
 540 -168 540 -168 541 -176 c 1,26,27
 541 -185 541 -185 533 -192 c 128,-1,28
 525 -199 525 -199 518 -199 c 2,29,-1
 512 -199 l 2,30,31
 403 -199 403 -199 403 -122 c 0,32,33
 403 -97 403 -97 411 -66 c 128,-1,34
 419 -35 419 -35 429.5 -8.5 c 128,-1,35
 440 18 440 18 451 47 c 1,36,37
 466 82 466 82 483 134.5 c 128,-1,38
 500 187 500 187 500 225 c 0,39,40
 500 300 500 300 456.5 359.5 c 128,-1,41
 413 419 413 419 341 420 c 1,42,43
 301 417 301 417 278 404 c 1,44,45
 183 343 183 343 183 225 c 2,46,-1
 183 20 l 2,47,48
 183 11 183 11 177 5.5 c 128,-1,49
 171 0 171 0 163 0 c 128,-1,50
 155 0 155 0 148.5 5.5 c 128,-1,51
 142 11 142 11 142 18 c 2,52,-1
 142 565 l 1,53,-1
 68 565 l 2,54,55
 49 565 49 565 49 587 c 0,56,57
 49 594 49 594 54.5 600 c 128,-1,58
 60 606 60 606 68 607 c 1,59,-1
 142 607 l 1,60,-1
 142 681 l 1,61,62
 143 688 143 688 149 693.5 c 128,-1,63
 155 699 155 699 163 699 c 128,-1,64
 171 699 171 699 177 693 c 128,-1,65
 183 687 183 687 183 679 c 2,66,-1
 183 607 l 1,67,-1
 257 607 l 1,0,1
EndSplineSet
EndChar

StartChar: uranus
Encoding: 90 90 88
Width: 553
GlyphClass: 2
Flags: W
TeX: 651 119
LayerCount: 2
Fore
SplineSet
457 101 m 0,0,1
 457 176 457 176 403 228 c 1,2,3
 353 281 353 281 278 281 c 0,4,5
 202 281 202 281 151 228 c 1,6,7
 98 177 98 177 98 101 c 0,8,9
 98 27 98 27 151 -26 c 1,10,11
 205 -78 205 -78 278 -78 c 128,-1,12
 351 -78 351 -78 403 -26 c 0,13,14
 457 28 457 28 457 101 c 0,0,1
298 581 m 1,15,-1
 298 322 l 1,16,17
 378 312 378 312 432 258 c 0,18,19
 498 192 498 192 498 101 c 0,20,21
 498 11 498 11 433 -54 c 1,22,23
 366 -119 366 -119 278 -119 c 0,24,25
 188 -119 188 -119 121 -54 c 1,26,27
 56 11 56 11 56 101 c 0,28,29
 56 192 56 192 121 257 c 0,30,31
 177 313 177 313 257 322 c 1,32,-1
 257 581 l 1,33,-1
 166 490 l 2,34,35
 160 484 160 484 151 484 c 128,-1,36
 142 484 142 484 136.5 490 c 128,-1,37
 131 496 131 496 131 505 c 128,-1,38
 131 514 131 514 136 519 c 2,39,-1
 262 645 l 2,40,41
 268 651 268 651 278 651 c 0,42,43
 286 651 286 651 292 645 c 2,44,-1
 418 519 l 2,45,46
 424 513 424 513 424 505 c 128,-1,47
 424 497 424 497 417.5 490.5 c 128,-1,48
 411 484 411 484 402 484 c 0,49,50
 394 484 394 484 388 490 c 2,51,-1
 298 581 l 1,15,-1
278 122 m 0,52,53
 285 122 285 122 292 117 c 1,54,55
 298 111 298 111 298 101 c 0,56,57
 298 93 298 93 292 87 c 128,-1,58
 286 81 286 81 278 81 c 0,59,60
 268 81 268 81 262 87 c 1,61,62
 257 94 257 94 257 101 c 0,63,64
 257 110 257 110 262 117 c 1,65,66
 269 122 269 122 278 122 c 0,52,53
EndSplineSet
EndChar

StartChar: neptun
Encoding: 91 91 89
Width: 667
GlyphClass: 2
Flags: W
TeX: 697 185
LayerCount: 2
Fore
SplineSet
401 163 m 1,0,1
 351 215 351 215 275 215 c 0,2,3
 202 215 202 215 148 163 c 1,4,5
 96 109 96 109 96 36 c 128,-1,6
 96 -37 96 -37 148 -91 c 1,7,8
 200 -143 200 -143 275 -143 c 0,9,10
 352 -143 352 -143 401 -91 c 1,11,12
 455 -37 455 -37 455 36 c 128,-1,13
 455 109 455 109 401 163 c 1,0,1
119 -121 m 1,14,15
 54 -54 54 -54 54 36 c 0,16,17
 54 128 54 128 119 191 c 1,18,19
 175 247 175 247 255 255 c 1,20,-1
 255 400 l 1,21,22
 170 408 170 408 112 471 c 128,-1,23
 54 534 54 534 54 620 c 2,24,-1
 54 627 l 1,25,-1
 33 605 l 2,26,27
 27 599 27 599 18 599 c 0,28,29
 10 599 10 599 4 605.5 c 128,-1,30
 -2 612 -2 612 -2 620 c 128,-1,31
 -2 628 -2 628 4 634 c 2,32,-1
 60 691 l 1,33,34
 70 697 70 697 75 697 c 0,35,36
 82 697 82 697 90 691 c 1,37,-1
 146 634 l 2,38,39
 153 628 153 628 153 620 c 128,-1,40
 153 612 153 612 146.5 605.5 c 128,-1,41
 140 599 140 599 132 599 c 0,42,43
 123 599 123 599 118 605 c 2,44,-1
 96 627 l 1,45,-1
 96 620 l 2,46,47
 96 551 96 551 141.5 500 c 128,-1,48
 187 449 187 449 255 441 c 1,49,-1
 255 627 l 1,50,-1
 232 605 l 2,51,52
 226 599 226 599 218 599 c 128,-1,53
 210 599 210 599 204 605.5 c 128,-1,54
 198 612 198 612 198 620 c 128,-1,55
 198 628 198 628 204 634 c 2,56,-1
 260 691 l 2,57,58
 266 697 266 697 275 697 c 128,-1,59
 284 697 284 697 290 691 c 2,60,-1
 346 634 l 2,61,62
 352 628 352 628 352 620 c 128,-1,63
 352 612 352 612 346 605.5 c 128,-1,64
 340 599 340 599 332 599 c 256,65,66
 324 599 324 599 317 605 c 2,67,-1
 296 627 l 1,68,-1
 296 441 l 1,69,70
 363 449 363 449 409 500 c 128,-1,71
 455 551 455 551 455 620 c 2,72,-1
 455 627 l 1,73,-1
 433 605 l 2,74,75
 427 599 427 599 418 599 c 0,76,77
 410 599 410 599 403.5 605.5 c 128,-1,78
 397 612 397 612 397 620 c 128,-1,79
 397 628 397 628 403 634 c 2,80,-1
 461 691 l 2,81,82
 467 697 467 697 475 697 c 128,-1,83
 483 697 483 697 489 691 c 2,84,-1
 546 634 l 2,85,86
 552 628 552 628 552 620 c 128,-1,87
 552 612 552 612 545.5 605.5 c 128,-1,88
 539 599 539 599 531 599 c 128,-1,89
 523 599 523 599 517 605 c 2,90,-1
 496 627 l 1,91,-1
 496 620 l 2,92,93
 496 534 496 534 438 471 c 128,-1,94
 380 408 380 408 296 400 c 1,95,-1
 296 255 l 1,96,97
 375 247 375 247 431 191 c 1,98,99
 496 128 496 128 496 36 c 0,100,101
 496 -54 496 -54 431 -121 c 1,102,103
 367 -185 367 -185 275 -185 c 0,104,105
 185 -185 185 -185 119 -121 c 1,14,15
EndSplineSet
EndChar

StartChar: pluto
Encoding: 92 92 90
Width: 596
GlyphClass: 2
Flags: W
TeX: 699 0
LayerCount: 2
Fore
SplineSet
520 41 m 2,0,1
 528 41 528 41 534.5 35 c 128,-1,2
 541 29 541 29 541 20 c 0,3,4
 541 12 541 12 534.5 6 c 128,-1,5
 528 0 528 0 520 0 c 2,6,-1
 77 0 l 2,7,8
 69 0 69 0 62.5 6 c 128,-1,9
 56 12 56 12 56 20 c 2,10,-1
 56 679 l 2,11,12
 56 687 56 687 62.5 693 c 128,-1,13
 69 699 69 699 77 699 c 2,14,-1
 94 699 l 2,15,16
 148 699 148 699 180.5 698.5 c 128,-1,17
 213 698 213 698 265.5 694 c 128,-1,18
 318 690 318 690 351.5 682.5 c 128,-1,19
 385 675 385 675 424.5 660 c 128,-1,20
 464 645 464 645 487 624.5 c 128,-1,21
 510 604 510 604 525.5 571.5 c 128,-1,22
 541 539 541 539 541 498 c 128,-1,23
 541 457 541 457 525.5 425 c 128,-1,24
 510 393 510 393 487 372 c 128,-1,25
 464 351 464 351 425.5 336 c 128,-1,26
 387 321 387 321 353 313.5 c 128,-1,27
 319 306 319 306 268 302 c 128,-1,28
 217 298 217 298 183.5 297 c 128,-1,29
 150 296 150 296 98 296 c 1,30,-1
 98 41 l 1,31,-1
 520 41 l 2,0,1
500 498 m 128,-1,33
 500 534 500 534 486 561 c 128,-1,34
 472 588 472 588 442.5 605 c 128,-1,35
 413 622 413 622 379.5 633 c 128,-1,36
 346 644 346 644 296 649.5 c 128,-1,37
 246 655 246 655 202.5 656.5 c 128,-1,38
 159 658 159 658 98 658 c 1,39,-1
 98 338 l 1,40,41
 159 338 159 338 202.5 339.5 c 128,-1,42
 246 341 246 341 296 346.5 c 128,-1,43
 346 352 346 352 379.5 363 c 128,-1,44
 413 374 413 374 442.5 391 c 128,-1,45
 472 408 472 408 486 435 c 128,-1,32
 500 462 500 462 500 498 c 128,-1,33
EndSplineSet
EndChar

StartChar: taurus
Encoding: 93 93 91
Width: 824
GlyphClass: 2
Flags: W
TeX: 731 15
LayerCount: 2
Fore
SplineSet
601 242 m 0,0,1
 601 332 601 332 538 395 c 0,2,3
 474 459 474 459 385 459 c 128,-1,4
 296 459 296 459 232 395 c 128,-1,5
 168 331 168 331 168 242 c 0,6,7
 168 152 168 152 231 89 c 128,-1,8
 294 26 294 26 385 26 c 128,-1,9
 476 26 476 26 538 88 c 0,10,11
 601 151 601 151 601 242 c 0,0,1
641 718 m 1,12,13
 650 690 650 690 650 664 c 0,14,15
 650 602 650 602 606 552 c 128,-1,16
 562 502 562 502 492 476 c 1,17,18
 533 458 533 458 567 424 c 0,19,20
 642 349 642 349 642 242 c 0,21,22
 642 136 642 136 567 59 c 1,23,24
 491 -15 491 -15 385 -15 c 0,25,26
 277 -15 277 -15 203 59 c 1,27,28
 127 137 127 137 127 242 c 0,29,30
 127 348 127 348 203 424 c 1,31,32
 235 458 235 458 279 476 c 1,33,34
 207 501 207 501 163 552 c 128,-1,35
 119 603 119 603 119 665 c 0,36,37
 119 690 119 690 128 718 c 0,38,39
 133 731 133 731 147 731 c 0,40,41
 168 731 168 731 168 712 c 0,42,43
 168 704 168 704 164.5 689 c 128,-1,44
 161 674 161 674 161 667 c 0,45,46
 161 600 161 600 226.5 550 c 128,-1,47
 292 500 292 500 385 500 c 128,-1,48
 478 500 478 500 543 549.5 c 128,-1,49
 608 599 608 599 608 666 c 0,50,51
 608 674 608 674 604.5 689 c 128,-1,52
 601 704 601 704 601 713 c 0,53,54
 601 731 601 731 623 731 c 0,55,56
 638 731 638 731 641 718 c 1,12,13
EndSplineSet
EndChar

StartChar: gemini
Encoding: 94 94 92
Width: 824
GlyphClass: 2
Flags: W
TeX: 768 56
LayerCount: 2
Fore
SplineSet
566 635 m 1,0,-1
 566 76 l 1,1,2
 681 47 681 47 775 -19 c 1,3,4
 783 -26 783 -26 783 -36 c 0,5,6
 783 -56 783 -56 763 -56 c 0,7,8
 756 -56 756 -56 752 -53 c 0,9,10
 654 14 654 14 541 40 c 1,11,12
 473 54 473 54 409 54 c 0,13,14
 341 54 341 54 275 39 c 0,15,16
 163 15 163 15 66 -53 c 0,17,18
 60 -56 60 -56 53 -56 c 0,19,20
 34 -56 34 -56 34 -36 c 0,21,22
 34 -26 34 -26 42 -19 c 1,23,24
 136 47 136 47 251 76 c 1,25,-1
 251 635 l 1,26,27
 136 664 136 664 42 730 c 0,28,29
 34 735 34 735 34 748 c 0,30,31
 34 756 34 756 40 762 c 128,-1,32
 46 768 46 768 54 768 c 0,33,34
 61 768 61 768 66 764 c 0,35,36
 162 697 162 697 275 671 c 1,37,38
 335 656 335 656 409 656 c 0,39,40
 481 656 481 656 541 671 c 1,41,42
 654 697 654 697 752 764 c 1,43,44
 756 768 756 768 763 768 c 0,45,46
 771 768 771 768 777 762 c 128,-1,47
 783 756 783 756 783 748 c 0,48,49
 783 735 783 735 775 730 c 0,50,51
 681 664 681 664 566 635 c 1,0,-1
525 626 m 1,52,53
 467 614 467 614 409 614 c 0,54,55
 349 614 349 614 292 626 c 1,56,-1
 292 85 l 1,57,58
 346 95 346 95 409 95 c 0,59,60
 469 95 469 95 525 85 c 1,61,-1
 525 626 l 1,52,53
EndSplineSet
EndChar

StartChar: cancer
Encoding: 95 95 93
Width: 1037
GlyphClass: 2
Flags: W
TeX: 711 0
LayerCount: 2
Fore
SplineSet
181 460 m 0,0,1
 137 460 137 460 108 429 c 1,2,3
 78 400 78 400 78 355 c 0,4,5
 78 312 78 312 108 282 c 1,6,7
 136 252 136 252 181 252 c 128,-1,8
 226 252 226 252 255 282 c 0,9,10
 285 314 285 314 285 355 c 0,11,12
 285 399 285 399 255 429 c 1,13,14
 226 460 226 460 181 460 c 0,0,1
570 670 m 0,15,16
 418 670 418 670 292.5 621.5 c 128,-1,17
 167 573 167 573 113 483 c 1,18,19
 145 501 145 501 181 501 c 0,20,21
 240 501 240 501 284 459 c 1,22,23
 327 414 327 414 327 355 c 0,24,25
 327 298 327 298 284 253 c 1,26,27
 242 211 242 211 181 211 c 0,28,29
 119 211 119 211 79 253 c 1,30,31
 36 296 36 296 36 355 c 0,32,33
 36 444 36 444 82.5 514 c 128,-1,34
 129 584 129 584 206.5 626 c 128,-1,35
 284 668 284 668 377 689.5 c 128,-1,36
 470 711 470 711 570 711 c 0,37,38
 750 711 750 711 891 598 c 0,39,40
 898 592 898 592 898 582 c 0,41,42
 898 561 898 561 878 561 c 0,43,44
 869 561 869 561 865 565 c 0,45,46
 735 670 735 670 570 670 c 0,15,16
855 252 m 128,-1,48
 899 252 899 252 929 282 c 1,49,50
 958 313 958 313 958 355 c 0,51,52
 958 400 958 400 929 429 c 0,53,54
 898 460 898 460 855 460 c 128,-1,55
 812 460 812 460 781 429 c 0,56,57
 751 399 751 399 751 355 c 0,58,59
 751 314 751 314 781 282 c 1,60,47
 811 252 811 252 855 252 c 128,-1,48
466 41 m 0,61,62
 619 41 619 41 744 89.5 c 128,-1,63
 869 138 869 138 924 227 c 1,64,65
 892 211 892 211 855 211 c 0,66,67
 793 211 793 211 753 253 c 1,68,69
 710 296 710 296 710 355 c 0,70,71
 710 416 710 416 752 458 c 0,72,73
 795 501 795 501 855 501 c 0,74,75
 914 501 914 501 957 458 c 1,76,77
 1000 417 1000 417 1000 355 c 0,78,79
 1000 267 1000 267 953.5 197 c 128,-1,80
 907 127 907 127 829.5 85.5 c 128,-1,81
 752 44 752 44 659 22 c 128,-1,82
 566 0 566 0 466 0 c 0,83,84
 287 0 287 0 145 114 c 0,85,86
 137 120 137 120 137 129 c 0,87,88
 137 137 137 137 143.5 144 c 128,-1,89
 150 151 150 151 159 151 c 0,90,91
 163 151 163 151 171 145 c 0,92,93
 301 41 301 41 466 41 c 0,61,62
EndSplineSet
EndChar

StartChar: virgo
Encoding: 96 96 94
Width: 1179
GlyphClass: 2
Flags: W
TeX: 714 199
LayerCount: 2
Fore
SplineSet
825 -73 m 1,0,1
 797 -31 797 -31 797 20 c 2,2,-1
 797 539 l 2,3,4
 797 593 797 593 758.5 631.5 c 128,-1,5
 720 670 720 670 666 670 c 0,6,7
 611 670 611 670 572.5 631.5 c 128,-1,8
 534 593 534 593 534 539 c 2,9,-1
 534 20 l 2,10,11
 534 12 534 12 527.5 6 c 128,-1,12
 521 0 521 0 513 0 c 128,-1,13
 505 0 505 0 499 6 c 128,-1,14
 493 12 493 12 493 20 c 2,15,-1
 493 539 l 2,16,17
 493 593 493 593 454.5 631.5 c 128,-1,18
 416 670 416 670 361 670 c 0,19,20
 307 670 307 670 268 631.5 c 128,-1,21
 229 593 229 593 229 539 c 2,22,-1
 229 20 l 2,23,24
 229 12 229 12 223 6 c 128,-1,25
 217 0 217 0 209 0 c 128,-1,26
 201 0 201 0 194.5 6 c 128,-1,27
 188 12 188 12 188 20 c 2,28,-1
 188 539 l 2,29,30
 188 593 188 593 149.5 631.5 c 128,-1,31
 111 670 111 670 56 670 c 0,32,33
 48 670 48 670 42 676 c 128,-1,34
 36 682 36 682 36 690 c 128,-1,35
 36 698 36 698 42 704.5 c 128,-1,36
 48 711 48 711 56 711 c 0,37,38
 106 711 106 711 146.5 686.5 c 128,-1,39
 187 662 187 662 209 621 c 1,40,41
 231 662 231 662 271.5 686.5 c 128,-1,42
 312 711 312 711 361 711 c 128,-1,43
 410 711 410 711 450.5 686.5 c 128,-1,44
 491 662 491 662 513 621 c 1,45,46
 536 662 536 662 576.5 686.5 c 128,-1,47
 617 711 617 711 666 711 c 0,48,49
 717 711 717 711 759.5 683.5 c 128,-1,50
 802 656 802 656 822 611 c 1,51,52
 869 694 869 694 967 711 c 0,53,54
 983 714 983 714 999 714 c 0,55,56
 1076 714 1076 714 1132 663.5 c 128,-1,57
 1188 613 1188 613 1188 539 c 0,58,59
 1188 357 1188 357 1108 195 c 128,-1,60
 1028 33 1028 33 888 -79 c 1,61,62
 899 -87 899 -87 913 -93 c 0,63,64
 926 -98 926 -98 926 -112 c 0,65,66
 926 -120 926 -120 919.5 -126.5 c 128,-1,67
 913 -133 913 -133 905 -133 c 0,68,69
 903 -133 903 -133 897 -131 c 0,70,71
 871 -120 871 -120 853 -103 c 1,72,73
 771 -161 771 -161 673 -198 c 0,74,75
 670 -199 670 -199 665 -199 c 0,76,77
 657 -199 657 -199 650.5 -192.5 c 128,-1,78
 644 -186 644 -186 644 -178 c 0,79,80
 644 -164 644 -164 658 -160 c 1,81,82
 752 -125 752 -125 825 -73 c 1,0,1
859 -48 m 1,83,84
 994 57 994 57 1070.5 211 c 128,-1,85
 1147 365 1147 365 1147 539 c 0,86,87
 1147 595 1147 595 1103 634 c 128,-1,88
 1059 673 1059 673 999 673 c 0,89,90
 991 673 991 673 973 671 c 1,91,92
 921 662 921 662 884 625 c 128,-1,93
 847 588 847 588 838 537 c 1,94,-1
 838 20 l 2,95,96
 838 -17 838 -17 859 -48 c 1,83,84
EndSplineSet
EndChar

StartChar: libra
Encoding: 97 97 95
Width: 1179
GlyphClass: 2
Flags: W
TeX: 517 0
LayerCount: 2
Fore
SplineSet
57 41 m 2,0,-1
 1122 41 l 2,1,2
 1131 41 1131 41 1137 35 c 128,-1,3
 1143 29 1143 29 1143 20 c 0,4,5
 1143 12 1143 12 1137 6 c 128,-1,6
 1131 0 1131 0 1122 0 c 2,7,-1
 57 0 l 2,8,9
 49 0 49 0 43 6 c 128,-1,10
 37 12 37 12 37 20 c 0,11,12
 37 29 37 29 43 35 c 128,-1,13
 49 41 49 41 57 41 c 2,0,-1
808 219 m 1,14,15
 809 227 809 227 809 243 c 0,16,17
 809 346 809 346 743 412 c 1,18,19
 682 475 682 475 590 475 c 128,-1,20
 498 475 498 475 437 412 c 1,21,22
 372 347 372 347 372 243 c 0,23,24
 372 227 372 227 373 219 c 1,25,-1
 373 217 l 2,26,27
 373 199 373 199 354 197 c 1,28,-1
 57 197 l 2,29,30
 49 197 49 197 43 203 c 128,-1,31
 37 209 37 209 37 217 c 128,-1,32
 37 225 37 225 43 231.5 c 128,-1,33
 49 238 49 238 57 238 c 2,34,-1
 331 238 l 1,35,-1
 331 242 l 2,36,37
 331 363 331 363 408 441 c 0,38,39
 482 517 482 517 590 517 c 0,40,41
 699 517 699 517 773 441 c 0,42,43
 850 361 850 361 850 242 c 2,44,-1
 850 238 l 1,45,-1
 1122 238 l 2,46,47
 1131 238 1131 238 1137 231.5 c 128,-1,48
 1143 225 1143 225 1143 217 c 128,-1,49
 1143 209 1143 209 1137 203 c 128,-1,50
 1131 197 1131 197 1122 197 c 2,51,-1
 826 197 l 1,52,53
 808 199 808 199 808 217 c 2,54,-1
 808 219 l 1,14,15
EndSplineSet
EndChar

StartChar: scorpio
Encoding: 98 98 96
Width: 1179
GlyphClass: 2
Flags: W
TeX: 711 114
LayerCount: 2
Fore
SplineSet
1139 -26 m 1,0,1
 1040 -103 1040 -103 933 -103 c 0,2,3
 869 -103 869 -103 828.5 -71 c 128,-1,4
 788 -39 788 -39 788 20 c 2,5,-1
 788 539 l 2,6,7
 788 593 788 593 750 631.5 c 128,-1,8
 712 670 712 670 657 670 c 0,9,10
 603 670 603 670 564 631.5 c 128,-1,11
 525 593 525 593 525 539 c 2,12,-1
 525 20 l 2,13,14
 525 12 525 12 519 6 c 128,-1,15
 513 0 513 0 505 0 c 128,-1,16
 497 0 497 0 490.5 6 c 128,-1,17
 484 12 484 12 484 20 c 2,18,-1
 484 539 l 2,19,20
 484 593 484 593 446 631.5 c 128,-1,21
 408 670 408 670 353 670 c 0,22,23
 299 670 299 670 260 631.5 c 128,-1,24
 221 593 221 593 221 539 c 2,25,-1
 221 20 l 2,26,27
 221 12 221 12 215 6 c 128,-1,28
 209 0 209 0 201 0 c 0,29,30
 192 0 192 0 186 6 c 128,-1,31
 180 12 180 12 180 20 c 2,32,-1
 180 539 l 2,33,34
 180 593 180 593 141.5 631.5 c 128,-1,35
 103 670 103 670 48 670 c 0,36,37
 40 670 40 670 34 676 c 128,-1,38
 28 682 28 682 28 690 c 128,-1,39
 28 698 28 698 34 704.5 c 128,-1,40
 40 711 40 711 48 711 c 0,41,42
 97 711 97 711 138 686.5 c 128,-1,43
 179 662 179 662 201 621 c 1,44,45
 222 662 222 662 263 686.5 c 128,-1,46
 304 711 304 711 353 711 c 128,-1,47
 402 711 402 711 442.5 686.5 c 128,-1,48
 483 662 483 662 505 621 c 1,49,50
 528 662 528 662 568 686.5 c 128,-1,51
 608 711 608 711 657 711 c 0,52,53
 729 711 729 711 779 660.5 c 128,-1,54
 829 610 829 610 829 539 c 2,55,-1
 829 20 l 2,56,57
 829 -17 829 -17 860 -40 c 128,-1,58
 891 -63 891 -63 940 -63 c 0,59,60
 1022 -63 1022 -63 1105 0 c 1,61,-1
 1046 0 l 2,62,63
 1037 0 1037 0 1031 6 c 128,-1,64
 1025 12 1025 12 1025 20 c 0,65,66
 1025 29 1025 29 1031 35 c 128,-1,67
 1037 41 1037 41 1046 41 c 2,68,-1
 1159 41 l 2,69,70
 1166 41 1166 41 1174 35 c 0,71,72
 1180 30 1180 30 1180 20 c 2,73,-1
 1180 -93 l 2,74,75
 1180 -101 1180 -101 1173.5 -107.5 c 128,-1,76
 1167 -114 1167 -114 1159 -114 c 128,-1,77
 1151 -114 1151 -114 1145 -107.5 c 128,-1,78
 1139 -101 1139 -101 1139 -93 c 2,79,-1
 1139 -26 l 1,0,1
EndSplineSet
EndChar

StartChar: sagittarius
Encoding: 99 99 97
Width: 720
GlyphClass: 2
Flags: W
TeX: 634 0
LayerCount: 2
Fore
SplineSet
220 206 m 1,0,-1
 606 592 l 1,1,-1
 458 592 l 2,2,3
 449 592 449 592 443 598 c 128,-1,4
 437 604 437 604 437 613 c 128,-1,5
 437 622 437 622 443 628 c 128,-1,6
 449 634 449 634 458 634 c 2,7,-1
 656 634 l 2,8,9
 665 634 665 634 671 628 c 128,-1,10
 677 622 677 622 677 613 c 2,11,-1
 677 415 l 2,12,13
 677 406 677 406 671 400 c 128,-1,14
 665 394 665 394 656 394 c 0,15,16
 648 394 648 394 642 400 c 128,-1,17
 636 406 636 406 636 415 c 2,18,-1
 636 563 l 1,19,-1
 249 176 l 1,20,-1
 390 35 l 2,21,22
 396 29 396 29 396 20 c 0,23,24
 396 12 396 12 390 6 c 128,-1,25
 384 0 384 0 376 0 c 256,26,27
 368 0 368 0 361 6 c 2,28,-1
 220 147 l 1,29,-1
 79 6 l 2,30,31
 73 0 73 0 63 0 c 0,32,33
 56 0 56 0 49.5 6 c 128,-1,34
 43 12 43 12 43 20 c 0,35,36
 43 29 43 29 49 35 c 2,37,-1
 190 176 l 1,38,-1
 49 317 l 2,39,40
 43 324 43 324 43 332 c 1,41,42
 54 353 54 353 63 353 c 0,43,44
 73 353 73 353 79 347 c 2,45,-1
 220 206 l 1,0,-1
EndSplineSet
EndChar

StartChar: capricorn
Encoding: 100 100 98
Width: 824
GlyphClass: 2
Flags: W
TeX: 711 11
LayerCount: 2
Fore
SplineSet
54 670 m 2,0,1
 46 670 46 670 40 676 c 128,-1,2
 34 682 34 682 34 690 c 128,-1,3
 34 698 34 698 40 704.5 c 128,-1,4
 46 711 46 711 54 711 c 2,5,-1
 764 711 l 2,6,7
 773 711 773 711 778.5 705 c 128,-1,8
 784 699 784 699 784 690 c 0,9,10
 784 676 784 676 771 671 c 2,11,-1
 736 658 l 1,12,13
 644 626 644 626 596 606.5 c 128,-1,14
 548 587 548 587 485.5 547 c 128,-1,15
 423 507 423 507 387 458 c 1,16,17
 428 465 428 465 472 465 c 0,18,19
 607 465 607 465 701.5 396 c 128,-1,20
 796 327 796 327 796 212 c 0,21,22
 796 112 796 112 726 50.5 c 128,-1,23
 656 -11 656 -11 562 -11 c 0,24,25
 524 -11 524 -11 485 1 c 0,26,27
 393 30 393 30 340.5 108.5 c 128,-1,28
 288 187 288 187 288 284 c 0,29,30
 288 339 288 339 306 393 c 1,31,32
 168 341 168 341 70 234 c 0,33,34
 64 228 64 228 55 228 c 0,35,36
 47 228 47 228 40.5 234.5 c 128,-1,37
 34 241 34 241 34 249 c 128,-1,38
 34 257 34 257 40 263 c 0,39,40
 162 395 162 395 330 444 c 1,41,42
 353 487 353 487 388 522.5 c 128,-1,43
 423 558 423 558 467 585.5 c 128,-1,44
 511 613 511 613 552 631.5 c 128,-1,45
 593 650 593 650 646 670 c 1,46,-1
 54 670 l 2,0,1
755 201 m 1,47,-1
 755 211 l 2,48,49
 755 305 755 305 673 365 c 128,-1,50
 591 425 591 425 472 425 c 0,51,52
 416 425 416 425 357 410 c 1,53,54
 329 350 329 350 329 284 c 0,55,56
 329 200 329 200 374.5 132.5 c 128,-1,57
 420 65 420 65 498 40 c 0,58,59
 528 30 528 30 562 30 c 0,60,61
 639 30 639 30 695 78.5 c 128,-1,62
 751 127 751 127 755 201 c 1,47,-1
EndSplineSet
EndChar

StartChar: aquarius
Encoding: 101 101 99
Width: 1179
GlyphClass: 2
Flags: W
TeX: 457 15
LayerCount: 2
Fore
SplineSet
900 245 m 0,0,1
 874 258 874 258 847 285.5 c 128,-1,2
 820 313 820 313 801.5 337.5 c 128,-1,3
 783 362 783 362 757 381 c 128,-1,4
 731 400 731 400 705 400 c 2,5,-1
 697 400 l 1,6,7
 670 397 670 397 644 373 c 128,-1,8
 618 349 618 349 599.5 321.5 c 128,-1,9
 581 294 581 294 550.5 270 c 128,-1,10
 520 246 520 246 484 243 c 2,11,-1
 472 242 l 1,12,13
 436 242 436 242 406 261.5 c 128,-1,14
 376 281 376 281 357.5 306.5 c 128,-1,15
 339 332 339 332 312.5 360.5 c 128,-1,16
 286 389 286 389 261 401 c 1,17,18
 236 415 236 415 205 415 c 0,19,20
 153 415 153 415 114.5 377 c 128,-1,21
 76 339 76 339 76 286 c 0,22,23
 76 273 76 273 77 266 c 1,24,-1
 77 262 l 2,25,26
 77 246 77 246 60 243 c 1,27,-1
 57 243 l 2,28,29
 39 243 39 243 37 260 c 0,30,31
 35 278 35 278 35 288 c 0,32,33
 35 358 35 358 86 407.5 c 128,-1,34
 137 457 137 457 205 457 c 0,35,36
 242 457 242 457 279 439 c 0,37,38
 305 426 305 426 332 398.5 c 128,-1,39
 359 371 359 371 377.5 346.5 c 128,-1,40
 396 322 396 322 421.5 303 c 128,-1,41
 447 284 447 284 474 284 c 2,42,-1
 481 284 l 1,43,44
 508 286 508 286 534.5 310 c 128,-1,45
 561 334 561 334 579 361.5 c 128,-1,46
 597 389 597 389 627.5 413 c 128,-1,47
 658 437 658 437 694 440 c 2,48,-1
 708 441 l 1,49,50
 743 441 743 441 773 421 c 128,-1,51
 803 401 803 401 821.5 375.5 c 128,-1,52
 840 350 840 350 866.5 322 c 128,-1,53
 893 294 893 294 918 282 c 1,54,55
 943 268 943 268 974 268 c 0,56,57
 1025 268 1025 268 1064 305.5 c 128,-1,58
 1103 343 1103 343 1103 396 c 0,59,60
 1103 403 1103 403 1101 417 c 1,61,-1
 1101 419 l 2,62,63
 1101 438 1101 438 1118 440 c 1,64,-1
 1122 440 l 2,65,66
 1139 440 1139 440 1142 424 c 1,67,68
 1144 406 1144 406 1144 396 c 0,69,70
 1144 326 1144 326 1093.5 276.5 c 128,-1,71
 1043 227 1043 227 975 227 c 0,72,73
 935 227 935 227 900 245 c 0,0,1
900 2 m 0,74,75
 878 13 878 13 856.5 33 c 128,-1,76
 835 53 835 53 818.5 74 c 128,-1,77
 802 95 802 95 784.5 114.5 c 128,-1,78
 767 134 767 134 746.5 146 c 128,-1,79
 726 158 726 158 705 158 c 2,80,-1
 697 158 l 1,81,82
 670 155 670 155 644 131 c 128,-1,83
 618 107 618 107 599.5 79.5 c 128,-1,84
 581 52 581 52 550.5 27.5 c 128,-1,85
 520 3 520 3 484 0 c 2,86,-1
 472 -1 l 1,87,88
 436 -1 436 -1 406 19 c 128,-1,89
 376 39 376 39 357.5 64.5 c 128,-1,90
 339 90 339 90 312.5 119 c 128,-1,91
 286 148 286 148 261 160 c 0,92,93
 235 173 235 173 205 173 c 0,94,95
 152 173 152 173 114 136 c 128,-1,96
 76 99 76 99 76 44 c 0,97,98
 76 31 76 31 77 24 c 1,99,-1
 77 19 l 2,100,101
 77 3 77 3 60 0 c 1,102,-1
 58 0 l 2,103,104
 39 0 39 0 37 17 c 0,105,106
 35 37 35 37 35 45 c 0,107,108
 35 115 35 115 86 164.5 c 128,-1,109
 137 214 137 214 205 214 c 0,110,111
 244 214 244 214 279 197 c 0,112,113
 305 184 305 184 332 156.5 c 128,-1,114
 359 129 359 129 377.5 104 c 128,-1,115
 396 79 396 79 421.5 60 c 128,-1,116
 447 41 447 41 474 41 c 2,117,-1
 481 41 l 1,118,119
 508 43 508 43 534.5 67 c 128,-1,120
 561 91 561 91 579 118.5 c 128,-1,121
 597 146 597 146 627.5 170.5 c 128,-1,122
 658 195 658 195 694 199 c 1,123,-1
 707 200 l 1,124,125
 743 200 743 200 773 180 c 128,-1,126
 803 160 803 160 821.5 134.5 c 128,-1,127
 840 109 840 109 866.5 80 c 128,-1,128
 893 51 893 51 918 39 c 0,129,130
 944 26 944 26 974 26 c 0,131,132
 1026 26 1026 26 1064.5 63 c 128,-1,133
 1103 100 1103 100 1103 154 c 0,134,135
 1103 161 1103 161 1101 175 c 1,136,-1
 1101 177 l 2,137,138
 1101 196 1101 196 1118 199 c 1,139,-1
 1120 199 l 2,140,141
 1138 199 1138 199 1142 181 c 1,142,143
 1144 163 1144 163 1144 154 c 0,144,145
 1144 83 1144 83 1094 34 c 128,-1,146
 1044 -15 1044 -15 975 -15 c 0,147,148
 935 -15 935 -15 900 2 c 0,74,75
EndSplineSet
EndChar

StartChar: pisces
Encoding: 102 102 100
Width: 824
GlyphClass: 2
Flags: W
TeX: 712 0
LayerCount: 2
Fore
SplineSet
526 335 m 1,0,-1
 292 335 l 1,1,2
 287 226 287 226 225 136 c 128,-1,3
 163 46 163 46 63 2 c 0,4,5
 57 0 57 0 54 0 c 0,6,7
 46 0 46 0 40 6 c 128,-1,8
 34 12 34 12 34 20 c 0,9,10
 34 34 34 34 46 39 c 0,11,12
 140 81 140 81 196 167 c 128,-1,13
 252 253 252 253 252 355 c 0,14,15
 252 458 252 458 196 544 c 128,-1,16
 140 630 140 630 46 672 c 1,17,18
 34 679 34 679 34 691 c 0,19,20
 34 699 34 699 40.5 705.5 c 128,-1,21
 47 712 47 712 55 712 c 0,22,23
 57 712 57 712 63 710 c 0,24,25
 163 665 163 665 225 575 c 128,-1,26
 287 485 287 485 292 376 c 1,27,-1
 526 376 l 1,28,29
 533 485 533 485 594.5 575 c 128,-1,30
 656 665 656 665 756 710 c 0,31,32
 762 712 762 712 764 712 c 0,33,34
 772 712 772 712 778 705 c 128,-1,35
 784 698 784 698 784 690 c 0,36,37
 784 679 784 679 772 672 c 1,38,39
 678 630 678 630 622.5 544 c 128,-1,40
 567 458 567 458 567 355 c 0,41,42
 567 253 567 253 622.5 167 c 128,-1,43
 678 81 678 81 772 39 c 0,44,45
 784 34 784 34 784 20 c 0,46,47
 784 12 784 12 778 6 c 128,-1,48
 772 0 772 0 764 0 c 0,49,50
 762 0 762 0 756 2 c 0,51,52
 657 46 657 46 595 136 c 128,-1,53
 533 226 533 226 526 335 c 1,0,-1
EndSplineSet
EndChar

StartChar: cent
Encoding: 103 103 101
Width: 512
GlyphClass: 2
Flags: W
TeX: 646 199
LayerCount: 2
Fore
SplineSet
267 -11 m 1,0,1
 173 -5 173 -5 108 56 c 1,2,3
 34 122 34 122 34 220 c 0,4,5
 34 320 34 320 108 388 c 1,6,7
 173 452 173 452 267 458 c 1,8,-1
 267 646 l 1,9,-1
 299 646 l 1,10,-1
 299 458 l 1,11,12
 370 455 370 455 420 429.5 c 128,-1,13
 470 404 470 404 470 350 c 0,14,15
 470 327 470 327 456 314.5 c 128,-1,16
 442 302 442 302 423 302 c 128,-1,17
 404 302 404 302 390.5 314.5 c 128,-1,18
 377 327 377 327 377 350 c 0,19,20
 377 372 377 372 391 384 c 128,-1,21
 405 396 405 396 424 396 c 1,22,23
 384 432 384 432 284 432 c 0,24,25
 210 432 210 432 163 372 c 0,26,27
 120 317 120 317 120 220 c 0,28,29
 120 130 120 130 166 74 c 1,30,31
 218 14 218 14 292 14 c 0,32,33
 354 14 354 14 397 43.5 c 128,-1,34
 440 73 440 73 457 125 c 0,35,36
 459 132 459 132 466 132 c 2,37,-1
 472 132 l 1,38,-1
 474 131 l 1,39,40
 481 129 481 129 481 122 c 2,41,-1
 481 119 l 1,42,43
 463 61 463 61 415 27 c 128,-1,44
 367 -7 367 -7 299 -11 c 1,45,-1
 299 -199 l 1,46,-1
 267 -199 l 1,47,-1
 267 -11 l 1,0,1
EndSplineSet
EndChar

StartChar: permil
Encoding: 104 104 102
Width: 1024
GlyphClass: 2
Flags: W
TeX: 768 57
LayerCount: 2
Fore
SplineSet
188 745 m 0,0,1
 157 745 157 745 137 695 c 0,2,3
 120 650 120 650 120 561 c 0,4,5
 120 471 120 471 137 427 c 0,6,7
 156 377 156 377 188 377 c 0,8,9
 222 377 222 377 248 428 c 0,10,11
 275 482 275 482 275 561 c 0,12,13
 275 639 275 639 248 694 c 0,14,15
 222 745 222 745 188 745 c 0,0,1
546 333 m 0,16,17
 516 333 516 333 495 283 c 0,18,19
 478 242 478 242 478 150 c 0,20,21
 478 57 478 57 495 16 c 0,22,23
 516 -34 516 -34 546 -34 c 0,24,25
 580 -34 580 -34 605 17 c 1,26,27
 633 70 633 70 633 150 c 0,28,29
 633 229 633 229 605 282 c 1,30,31
 580 333 580 333 546 333 c 0,16,17
546 355 m 0,32,33
 594 355 594 355 628 293 c 1,34,35
 658 232 658 232 658 150 c 0,36,37
 658 66 658 66 628 6 c 1,38,39
 593 -57 593 -57 546 -57 c 0,40,41
 490 -57 490 -57 452 5 c 0,42,43
 415 65 415 65 415 150 c 0,44,45
 415 234 415 234 452 293 c 1,46,47
 488 355 488 355 546 355 c 0,32,33
853 333 m 0,48,49
 822 333 822 333 802 283 c 0,50,51
 784 240 784 240 784 150 c 0,52,53
 784 59 784 59 802 16 c 0,54,55
 822 -34 822 -34 853 -34 c 0,56,57
 886 -34 886 -34 912 17 c 0,58,59
 940 70 940 70 940 150 c 0,60,61
 940 229 940 229 912 282 c 0,62,63
 886 333 886 333 853 333 c 0,48,49
853 355 m 0,64,65
 902 355 902 355 934 293 c 0,66,67
 966 230 966 230 966 150 c 0,68,69
 966 67 966 67 934 6 c 0,70,71
 901 -57 901 -57 853 -57 c 0,72,73
 796 -57 796 -57 758 5 c 0,74,75
 721 65 721 65 721 150 c 0,76,77
 721 234 721 234 758 293 c 1,78,79
 794 355 794 355 853 355 c 0,64,65
282 679 m 1,80,81
 301 627 301 627 301 561 c 0,82,83
 301 477 301 477 269 417 c 1,84,85
 238 353 238 353 188 353 c 0,86,87
 134 353 134 353 94 416 c 1,88,89
 56 478 56 478 56 561 c 128,-1,90
 56 644 56 644 94 706 c 1,91,92
 135 768 135 768 188 768 c 0,93,94
 222 768 222 768 250 735 c 0,95,96
 299 676 299 676 374 676 c 0,97,98
 415 676 415 676 450.5 696.5 c 128,-1,99
 486 717 486 717 504 756 c 0,100,101
 509 768 509 768 522 768 c 0,102,103
 531 768 531 768 537 762 c 128,-1,104
 543 756 543 756 543 748 c 0,105,106
 543 745 543 745 541 739 c 2,107,-1
 181 -45 l 1,108,109
 174 -57 174 -57 162 -57 c 0,110,111
 154 -57 154 -57 147.5 -50.5 c 128,-1,112
 141 -44 141 -44 141 -36 c 0,113,114
 141 -34 141 -34 143 -28 c 2,115,-1
 469 681 l 1,116,117
 425 653 425 653 375 653 c 128,-1,118
 325 653 325 653 282 679 c 1,80,81
EndSplineSet
EndChar

StartChar: thorn
Encoding: 105 105 103
Width: 568
GlyphClass: 2
Flags: W
TeX: 723 199
LayerCount: 2
Fore
SplineSet
29 -199 m 1,0,-1
 29 -168 l 1,1,2
 81 -168 81 -168 94 -162 c 0,3,4
 108 -156 108 -156 108 -131 c 2,5,-1
 108 623 l 2,6,7
 108 660 108 660 94 671 c 0,8,9
 81 680 81 680 29 680 c 1,10,-1
 29 711 l 1,11,-1
 176 723 l 1,12,-1
 176 385 l 1,13,14
 231 453 231 453 317 453 c 0,15,16
 406 453 406 453 470 384 c 0,17,18
 532 317 532 317 532 220 c 0,19,20
 532 124 532 124 466 56 c 1,21,22
 399 -11 399 -11 303 -11 c 0,23,24
 226 -11 226 -11 178 52 c 1,25,-1
 178 -131 l 2,26,27
 178 -156 178 -156 191 -162 c 0,28,29
 205 -168 205 -168 258 -168 c 1,30,-1
 258 -199 l 1,31,32
 182 -197 182 -197 143 -197 c 0,33,34
 105 -197 105 -197 29 -199 c 1,0,-1
178 343 m 1,35,-1
 178 99 l 1,36,37
 197 59 197 59 229 35 c 128,-1,38
 261 11 261 11 300 11 c 0,39,40
 361 11 361 11 403 72 c 1,41,42
 447 133 447 133 447 220 c 128,-1,43
 447 307 447 307 407 368 c 1,44,45
 366 427 366 427 311 427 c 0,46,47
 269 427 269 427 233.5 404 c 128,-1,48
 198 381 198 381 178 343 c 1,35,-1
EndSplineSet
EndChar

StartChar: Thorn
Encoding: 106 106 104
Width: 696
GlyphClass: 2
Flags: W
TeX: 699 0
LayerCount: 2
Fore
SplineSet
140 69 m 2,0,-1
 140 632 l 2,1,2
 140 656 140 656 123 663 c 1,3,4
 105 669 105 669 36 669 c 1,5,-1
 36 699 l 1,6,7
 184 693 184 693 334 699 c 1,8,-1
 334 669 l 1,9,10
 263 669 263 669 246 663 c 0,11,12
 228 656 228 656 228 632 c 2,13,-1
 228 560 l 1,14,-1
 397 560 l 2,15,16
 496 560 496 560 567 498 c 0,17,18
 638 437 638 437 638 348 c 0,19,20
 638 262 638 262 567 201 c 0,21,22
 497 140 497 140 397 140 c 2,23,-1
 231 140 l 1,24,-1
 231 69 l 2,25,26
 231 44 231 44 249 38 c 0,27,28
 266 32 266 32 336 32 c 1,29,-1
 336 0 l 1,30,31
 186 6 186 6 36 0 c 1,32,-1
 36 32 l 1,33,34
 105 32 105 32 123 38 c 0,35,36
 140 44 140 44 140 69 c 2,0,-1
371 528 m 2,37,-1
 228 528 l 1,38,-1
 228 167 l 1,39,-1
 371 167 l 2,40,41
 455 167 455 167 499 217 c 0,42,43
 532 254 532 254 532 348 c 128,-1,44
 532 442 532 442 499 479 c 0,45,46
 455 528 455 528 371 528 c 2,37,-1
EndSplineSet
EndChar

StartChar: dh
Encoding: 107 107 105
Width: 512
GlyphClass: 2
Flags: W
TeX: 711 11
LayerCount: 2
Fore
SplineSet
362 395 m 1,0,1
 321 418 321 418 255 418 c 0,2,3
 184 418 184 418 145 362 c 0,4,5
 114 319 114 319 114 220 c 0,6,7
 114 118 114 118 145 72 c 0,8,9
 184 14 184 14 255 14 c 128,-1,10
 326 14 326 14 365 72 c 0,11,12
 397 120 397 120 397 215 c 0,13,14
 397 289 397 289 396 297 c 0,15,16
 390 350 390 350 362 395 c 1,0,1
272 599 m 1,17,-1
 298 570 l 2,18,19
 312 553 312 553 353.5 509.5 c 128,-1,20
 395 466 395 466 414.5 442 c 128,-1,21
 434 418 434 418 455.5 377.5 c 128,-1,22
 477 337 477 337 481 297 c 1,23,-1
 481 212 l 2,24,25
 481 117 481 117 416 54 c 0,26,27
 349 -11 349 -11 255 -11 c 128,-1,28
 161 -11 161 -11 94 54 c 0,29,30
 29 117 29 117 29 212 c 128,-1,31
 29 307 29 307 94 374 c 1,32,33
 161 441 161 441 255 441 c 0,34,35
 300 441 300 441 342 426 c 1,36,37
 326 447 326 447 306.5 468.5 c 128,-1,38
 287 490 287 490 261.5 516.5 c 128,-1,39
 236 543 236 543 224 557 c 1,40,-1
 128 473 l 1,41,-1
 101 500 l 1,42,-1
 200 586 l 1,43,-1
 90 711 l 1,44,-1
 175 711 l 1,45,-1
 248 628 l 1,46,-1
 344 711 l 1,47,-1
 371 684 l 1,48,-1
 272 599 l 1,17,-1
EndSplineSet
EndChar

StartChar: openo
Encoding: 108 108 106
Width: 483
GlyphClass: 2
Flags: W
TeX: 453 17
LayerCount: 2
Fore
SplineSet
241 -17 m 0,0,1
 167 -17 167 -17 111.5 14 c 128,-1,2
 56 45 56 45 56 105 c 0,3,4
 56 127 56 127 70 140 c 128,-1,5
 84 153 84 153 103 153 c 128,-1,6
 122 153 122 153 136.5 140 c 128,-1,7
 151 127 151 127 151 105 c 128,-1,8
 151 83 151 83 136.5 70.5 c 128,-1,9
 122 58 122 58 102 58 c 2,10,-1
 98 58 l 1,11,12
 142 8 142 8 241 8 c 0,13,14
 322 8 322 8 378 70 c 0,15,16
 428 126 428 126 428 220 c 0,17,18
 428 310 428 310 377 367 c 0,19,20
 323 427 323 427 241 427 c 0,21,22
 124 427 124 427 93 340 c 0,23,24
 91 333 91 333 84 333 c 2,25,-1
 75 333 l 1,26,27
 68 336 68 336 68 343 c 1,28,-1
 69 346 l 2,29,30
 86 398 86 398 132 425.5 c 128,-1,31
 178 453 178 453 241 453 c 0,32,33
 352 453 352 453 432 385 c 0,34,35
 513 317 513 317 513 220 c 0,36,37
 513 122 513 122 433 52 c 0,38,39
 354 -17 354 -17 241 -17 c 0,0,1
EndSplineSet
EndChar

StartChar: ataribox
Encoding: 109 109 107
Width: 563
GlyphClass: 2
Flags: W
TeX: 769 -1
LayerCount: 2
Fore
SplineSet
288 690 m 1,0,-1
 489 385 l 1,1,-1
 288 80 l 1,2,-1
 86 385 l 1,3,-1
 288 690 l 1,0,-1
541 769 m 1,4,-1
 541 465 l 1,5,-1
 540 465 l 1,6,-1
 339 769 l 1,7,-1
 541 769 l 1,4,-1
35 769 m 1,8,-1
 237 769 l 1,9,-1
 35 464 l 1,10,-1
 35 769 l 1,8,-1
541 1 m 1,11,-1
 339 1 l 1,12,-1
 541 305 l 1,13,-1
 541 1 l 1,11,-1
237 1 m 1,14,-1
 35 1 l 1,15,-1
 35 304 l 1,16,-1
 237 1 l 1,14,-1
EndSplineSet
EndChar

StartChar: APLuparrowbox
Encoding: 110 110 108
Width: 795
GlyphClass: 2
Flags: W
TeX: 674 162
LayerCount: 2
Fore
SplineSet
377 544 m 1,0,1
 314 474 314 474 227 439 c 1,2,-1
 227 471 l 1,3,4
 341 516 341 516 397 626 c 1,5,6
 451 517 451 517 567 471 c 1,7,-1
 567 439 l 1,8,9
 479 474 479 474 418 544 c 1,10,-1
 418 -101 l 2,11,12
 418 -117 418 -117 406 -120 c 1,13,-1
 696 -120 l 1,14,-1
 696 632 l 1,15,-1
 98 632 l 1,16,-1
 98 -120 l 1,17,-1
 389 -120 l 1,18,19
 377 -117 377 -117 377 -101 c 2,20,-1
 377 544 l 1,0,1
717 -162 m 2,21,-1
 77 -162 l 2,22,23
 69 -162 69 -162 62.5 -156 c 128,-1,24
 56 -150 56 -150 56 -141 c 2,25,-1
 56 653 l 2,26,27
 56 662 56 662 62.5 668 c 128,-1,28
 69 674 69 674 77 674 c 2,29,-1
 717 674 l 2,30,31
 725 674 725 674 731 668 c 128,-1,32
 737 662 737 662 737 653 c 2,33,-1
 737 -141 l 2,34,35
 737 -150 737 -150 731 -156 c 128,-1,36
 725 -162 725 -162 717 -162 c 2,21,-1
EndSplineSet
EndChar

StartChar: APLdownarrowbox
Encoding: 111 111 109
Width: 795
GlyphClass: 2
Flags: W
TeX: 674 162
LayerCount: 2
Fore
SplineSet
567 73 m 1,0,-1
 567 41 l 1,1,2
 451 -5 451 -5 397 -114 c 1,3,4
 341 -4 341 -4 227 41 c 1,5,-1
 227 73 l 1,6,7
 314 38 314 38 377 -32 c 1,8,-1
 377 613 l 2,9,10
 377 629 377 629 389 632 c 1,11,-1
 98 632 l 1,12,-1
 98 -120 l 1,13,-1
 696 -120 l 1,14,-1
 696 632 l 1,15,-1
 406 632 l 1,16,17
 418 629 418 629 418 613 c 2,18,-1
 418 -32 l 1,19,20
 479 38 479 38 567 73 c 1,0,-1
717 -162 m 2,21,-1
 77 -162 l 2,22,23
 69 -162 69 -162 62.5 -156 c 128,-1,24
 56 -150 56 -150 56 -141 c 2,25,-1
 56 653 l 2,26,27
 56 662 56 662 62.5 668 c 128,-1,28
 69 674 69 674 77 674 c 2,29,-1
 717 674 l 2,30,31
 725 674 725 674 731 668 c 128,-1,32
 737 662 737 662 737 653 c 2,33,-1
 737 -141 l 2,34,35
 737 -150 737 -150 731 -156 c 128,-1,36
 725 -162 725 -162 717 -162 c 2,21,-1
EndSplineSet
EndChar

StartChar: APLleftarrowbox
Encoding: 112 112 110
Width: 795
GlyphClass: 2
Flags: W
TeX: 674 162
LayerCount: 2
Fore
SplineSet
271 85 m 1,0,-1
 240 85 l 1,1,2
 198 194 198 194 98 249 c 1,3,-1
 98 -120 l 1,4,-1
 696 -120 l 1,5,-1
 696 632 l 1,6,-1
 98 632 l 1,7,-1
 98 263 l 1,8,9
 198 318 198 318 240 427 c 1,10,-1
 271 427 l 1,11,12
 238 339 238 339 167 276 c 1,13,-1
 668 276 l 2,14,15
 688 276 688 276 688 256 c 128,-1,16
 688 236 688 236 668 236 c 2,17,-1
 167 236 l 1,18,19
 238 173 238 173 271 85 c 1,0,-1
717 -162 m 2,20,-1
 77 -162 l 2,21,22
 69 -162 69 -162 62.5 -156 c 128,-1,23
 56 -150 56 -150 56 -141 c 2,24,-1
 56 653 l 2,25,26
 56 662 56 662 62.5 668 c 128,-1,27
 69 674 69 674 77 674 c 2,28,-1
 717 674 l 2,29,30
 725 674 725 674 731 668 c 128,-1,31
 737 662 737 662 737 653 c 2,32,-1
 737 -141 l 2,33,34
 737 -150 737 -150 731 -156 c 128,-1,35
 725 -162 725 -162 717 -162 c 2,20,-1
EndSplineSet
EndChar

StartChar: APLrightarrowbox
Encoding: 113 113 111
Width: 795
GlyphClass: 2
Flags: W
TeX: 674 162
LayerCount: 2
Fore
SplineSet
628 276 m 1,0,1
 558 338 558 338 523 427 c 1,2,-1
 555 427 l 1,3,4
 597 319 597 319 696 263 c 1,5,-1
 696 632 l 1,6,-1
 98 632 l 1,7,-1
 98 -120 l 1,8,-1
 696 -120 l 1,9,-1
 696 249 l 1,10,11
 597 193 597 193 555 85 c 1,12,-1
 523 85 l 1,13,14
 558 174 558 174 628 236 c 1,15,-1
 126 236 l 2,16,17
 117 236 117 236 111 242 c 128,-1,18
 105 248 105 248 105 256 c 128,-1,19
 105 264 105 264 111 270 c 128,-1,20
 117 276 117 276 126 276 c 2,21,-1
 628 276 l 1,0,1
717 -162 m 2,22,-1
 77 -162 l 2,23,24
 69 -162 69 -162 62.5 -156 c 128,-1,25
 56 -150 56 -150 56 -141 c 2,26,-1
 56 653 l 2,27,28
 56 662 56 662 62.5 668 c 128,-1,29
 69 674 69 674 77 674 c 2,30,-1
 717 674 l 2,31,32
 725 674 725 674 731 668 c 128,-1,33
 737 662 737 662 737 653 c 2,34,-1
 737 -141 l 2,35,36
 737 -150 737 -150 731 -156 c 128,-1,37
 725 -162 725 -162 717 -162 c 2,22,-1
EndSplineSet
EndChar

StartChar: varint
Encoding: 114 114 112
Width: 425
GlyphClass: 2
Flags: W
TeX: 0 1138
LayerCount: 2
Fore
SplineSet
170 -1138 m 0,0,1
 125 -1138 125 -1138 90.5 -1114.5 c 128,-1,2
 56 -1091 56 -1091 56 -1051 c 0,3,4
 56 -1031 56 -1031 69 -1020 c 128,-1,5
 82 -1009 82 -1009 99 -1009 c 0,6,7
 117 -1009 117 -1009 129.5 -1020 c 128,-1,8
 142 -1031 142 -1031 142 -1051 c 0,9,10
 142 -1070 142 -1070 130.5 -1081 c 128,-1,11
 119 -1092 119 -1092 103 -1094 c 1,12,13
 130 -1115 130 -1115 170 -1115 c 0,14,15
 269 -1115 269 -1115 269 -903 c 2,16,-1
 269 -234 l 2,17,18
 269 -141 269 -141 320 -70.5 c 128,-1,19
 371 0 371 0 454 0 c 0,20,21
 499 0 499 0 533 -23.5 c 128,-1,22
 567 -47 567 -47 567 -87 c 0,23,24
 567 -107 567 -107 554.5 -118 c 128,-1,25
 542 -129 542 -129 524 -129 c 0,26,27
 507 -129 507 -129 494 -118 c 128,-1,28
 481 -107 481 -107 481 -87 c 0,29,30
 481 -68 481 -68 492.5 -57 c 128,-1,31
 504 -46 504 -46 520 -44 c 1,32,33
 494 -23 494 -23 454 -23 c 0,34,35
 354 -23 354 -23 354 -234 c 2,36,-1
 354 -903 l 2,37,38
 354 -997 354 -997 303.5 -1067.5 c 128,-1,39
 253 -1138 253 -1138 170 -1138 c 0,0,1
EndSplineSet
EndChar

StartChar: iint
Encoding: 115 115 113
Width: 768
GlyphClass: 2
Flags: W
TeX: 0 1138
LayerCount: 2
Fore
SplineSet
170 -1138 m 0,0,1
 125 -1138 125 -1138 90.5 -1114.5 c 128,-1,2
 56 -1091 56 -1091 56 -1051 c 0,3,4
 56 -1031 56 -1031 69 -1020 c 128,-1,5
 82 -1009 82 -1009 99 -1009 c 0,6,7
 117 -1009 117 -1009 129.5 -1020 c 128,-1,8
 142 -1031 142 -1031 142 -1051 c 0,9,10
 142 -1070 142 -1070 130.5 -1081 c 128,-1,11
 119 -1092 119 -1092 103 -1094 c 1,12,13
 130 -1115 130 -1115 170 -1115 c 0,14,15
 207 -1115 207 -1115 228 -1083 c 128,-1,16
 249 -1051 249 -1051 254.5 -1008.5 c 128,-1,17
 260 -966 260 -966 260 -903 c 2,18,-1
 260 -234 l 2,19,20
 260 -141 260 -141 308 -70.5 c 128,-1,21
 356 0 356 0 435 0 c 0,22,23
 480 0 480 0 514.5 -23.5 c 128,-1,24
 549 -47 549 -47 549 -87 c 0,25,26
 549 -107 549 -107 536 -118 c 128,-1,27
 523 -129 523 -129 506 -129 c 0,28,29
 488 -129 488 -129 476 -118.5 c 128,-1,30
 464 -108 464 -108 464 -87 c 0,31,32
 464 -68 464 -68 475 -57 c 128,-1,33
 486 -46 486 -46 502 -44 c 1,34,35
 475 -23 475 -23 435 -23 c 0,36,37
 398 -23 398 -23 377 -55 c 128,-1,38
 356 -87 356 -87 350.5 -129 c 128,-1,39
 345 -171 345 -171 345 -234 c 2,40,-1
 345 -903 l 2,41,42
 345 -997 345 -997 297.5 -1067.5 c 128,-1,43
 250 -1138 250 -1138 170 -1138 c 0,0,1
529 -1138 m 0,44,45
 485 -1138 485 -1138 451 -1114.5 c 128,-1,46
 417 -1091 417 -1091 417 -1051 c 0,47,48
 417 -1031 417 -1031 429 -1020 c 128,-1,49
 441 -1009 441 -1009 459 -1009 c 0,50,51
 476 -1009 476 -1009 489 -1020 c 128,-1,52
 502 -1031 502 -1031 502 -1051 c 0,53,54
 502 -1070 502 -1070 490.5 -1081 c 128,-1,55
 479 -1092 479 -1092 463 -1094 c 1,56,57
 489 -1115 489 -1115 529 -1115 c 0,58,59
 557 -1115 557 -1115 576 -1098 c 128,-1,60
 595 -1081 595 -1081 604 -1049 c 128,-1,61
 613 -1017 613 -1017 616.5 -983.5 c 128,-1,62
 620 -950 620 -950 620 -903 c 2,63,-1
 620 -234 l 2,64,65
 620 -141 620 -141 667.5 -70.5 c 128,-1,66
 715 0 715 0 795 0 c 0,67,68
 840 0 840 0 874 -23.5 c 128,-1,69
 908 -47 908 -47 908 -87 c 0,70,71
 908 -107 908 -107 895.5 -118 c 128,-1,72
 883 -129 883 -129 865 -129 c 0,73,74
 848 -129 848 -129 835.5 -118 c 128,-1,75
 823 -107 823 -107 823 -87 c 0,76,77
 823 -68 823 -68 834 -57 c 128,-1,78
 845 -46 845 -46 861 -44 c 1,79,80
 835 -23 835 -23 795 -23 c 0,81,82
 758 -23 758 -23 737 -55 c 128,-1,83
 716 -87 716 -87 710.5 -129 c 128,-1,84
 705 -171 705 -171 705 -234 c 2,85,-1
 705 -903 l 2,86,87
 705 -997 705 -997 657.5 -1067.5 c 128,-1,88
 610 -1138 610 -1138 529 -1138 c 0,44,45
EndSplineSet
EndChar

StartChar: iiint
Encoding: 116 116 114
Width: 1108
GlyphClass: 2
Flags: W
TeX: 0 1138
LayerCount: 2
Fore
SplineSet
540 -87 m 0,0,1
 540 -107 540 -107 527 -118 c 128,-1,2
 514 -129 514 -129 497 -129 c 0,3,4
 479 -129 479 -129 467 -118.5 c 128,-1,5
 455 -108 455 -108 455 -87 c 0,6,7
 455 -68 455 -68 466 -57 c 128,-1,8
 477 -46 477 -46 493 -44 c 1,9,10
 466 -23 466 -23 426 -23 c 0,11,12
 398 -23 398 -23 380.5 -39.5 c 128,-1,13
 363 -56 363 -56 354.5 -89 c 128,-1,14
 346 -122 346 -122 343.5 -154 c 128,-1,15
 341 -186 341 -186 341 -234 c 2,16,-1
 341 -903 l 2,17,18
 341 -998 341 -998 295.5 -1068 c 128,-1,19
 250 -1138 250 -1138 170 -1138 c 0,20,21
 125 -1138 125 -1138 90.5 -1114.5 c 128,-1,22
 56 -1091 56 -1091 56 -1051 c 0,23,24
 56 -1031 56 -1031 69 -1020 c 128,-1,25
 82 -1009 82 -1009 99 -1009 c 0,26,27
 117 -1009 117 -1009 129.5 -1020 c 128,-1,28
 142 -1031 142 -1031 142 -1051 c 0,29,30
 142 -1070 142 -1070 131 -1081 c 128,-1,31
 120 -1092 120 -1092 103 -1094 c 1,32,33
 130 -1115 130 -1115 170 -1115 c 0,34,35
 198 -1115 198 -1115 216 -1098.5 c 128,-1,36
 234 -1082 234 -1082 242.5 -1049.5 c 128,-1,37
 251 -1017 251 -1017 253.5 -984.5 c 128,-1,38
 256 -952 256 -952 256 -903 c 2,39,-1
 256 -234 l 2,40,41
 256 -141 256 -141 301.5 -70.5 c 128,-1,42
 347 0 347 0 426 0 c 0,43,44
 471 0 471 0 505.5 -23.5 c 128,-1,45
 540 -47 540 -47 540 -87 c 0,0,1
895 -87 m 0,46,47
 895 -107 895 -107 882 -118 c 128,-1,48
 869 -129 869 -129 852 -129 c 0,49,50
 834 -129 834 -129 821.5 -118 c 128,-1,51
 809 -107 809 -107 809 -87 c 0,52,53
 809 -68 809 -68 820.5 -57 c 128,-1,54
 832 -46 832 -46 848 -44 c 1,55,56
 821 -23 821 -23 781 -23 c 0,57,58
 753 -23 753 -23 735 -39.5 c 128,-1,59
 717 -56 717 -56 709 -89 c 128,-1,60
 701 -122 701 -122 698.5 -154 c 128,-1,61
 696 -186 696 -186 696 -234 c 2,62,-1
 696 -903 l 2,63,64
 696 -997 696 -997 650 -1067.5 c 128,-1,65
 604 -1138 604 -1138 525 -1138 c 0,66,67
 521 -1138 521 -1138 518 -1135 c 1,68,69
 488 -1133 488 -1133 463 -1120 c 128,-1,70
 438 -1107 438 -1107 426 -1085 c 1,71,72
 412 -1072 412 -1072 412 -1051 c 0,73,74
 412 -1031 412 -1031 424 -1020 c 128,-1,75
 436 -1009 436 -1009 454 -1009 c 0,76,77
 471 -1009 471 -1009 484 -1020 c 128,-1,78
 497 -1031 497 -1031 497 -1051 c 0,79,80
 497 -1069 497 -1069 485.5 -1080.5 c 128,-1,81
 474 -1092 474 -1092 459 -1094 c 1,82,83
 485 -1115 485 -1115 525 -1115 c 0,84,85
 553 -1115 553 -1115 571 -1098.5 c 128,-1,86
 589 -1082 589 -1082 597 -1049 c 128,-1,87
 605 -1016 605 -1016 607.5 -984 c 128,-1,88
 610 -952 610 -952 610 -903 c 2,89,-1
 610 -234 l 2,90,91
 610 -141 610 -141 656 -70.5 c 128,-1,92
 702 0 702 0 781 0 c 0,93,94
 785 0 785 0 788 -3 c 1,95,96
 820 -5 820 -5 847.5 -20.5 c 128,-1,97
 875 -36 875 -36 885 -61 c 2,98,-1
 891 -77 l 1,99,100
 895 -83 895 -83 895 -87 c 0,46,47
1164 -87 m 0,101,102
 1164 -68 1164 -68 1175.5 -57 c 128,-1,103
 1187 -46 1187 -46 1203 -44 c 1,104,105
 1177 -23 1177 -23 1136 -23 c 0,106,107
 1108 -23 1108 -23 1090.5 -39.5 c 128,-1,108
 1073 -56 1073 -56 1064.5 -89 c 128,-1,109
 1056 -122 1056 -122 1053.5 -154 c 128,-1,110
 1051 -186 1051 -186 1051 -234 c 2,111,-1
 1051 -903 l 2,112,113
 1051 -971 1051 -971 1025.5 -1030.5 c 128,-1,114
 1000 -1090 1000 -1090 953 -1118 c 0,115,116
 920 -1138 920 -1138 881 -1138 c 0,117,118
 836 -1138 836 -1138 801.5 -1114.5 c 128,-1,119
 767 -1091 767 -1091 767 -1051 c 0,120,121
 767 -1031 767 -1031 779 -1020 c 128,-1,122
 791 -1009 791 -1009 809 -1009 c 0,123,124
 826 -1009 826 -1009 839 -1020 c 128,-1,125
 852 -1031 852 -1031 852 -1051 c 0,126,127
 852 -1070 852 -1070 841 -1081 c 128,-1,128
 830 -1092 830 -1092 813 -1094 c 1,129,130
 839 -1115 839 -1115 881 -1115 c 0,131,132
 908 -1115 908 -1115 926 -1098.5 c 128,-1,133
 944 -1082 944 -1082 952 -1049.5 c 128,-1,134
 960 -1017 960 -1017 963 -984 c 128,-1,135
 966 -951 966 -951 966 -903 c 2,136,-1
 966 -234 l 2,137,138
 966 -141 966 -141 1011.5 -70.5 c 128,-1,139
 1057 0 1057 0 1136 0 c 0,140,141
 1181 0 1181 0 1215 -23.5 c 128,-1,142
 1249 -47 1249 -47 1249 -87 c 0,143,144
 1249 -107 1249 -107 1236.5 -118 c 128,-1,145
 1224 -129 1224 -129 1206 -129 c 0,146,147
 1189 -129 1189 -129 1176.5 -118 c 128,-1,148
 1164 -107 1164 -107 1164 -87 c 0,101,102
EndSplineSet
EndChar

StartChar: varoint
Encoding: 117 117 115
Width: 739
GlyphClass: 2
Flags: W
TeX: 0 1138
LayerCount: 2
Fore
SplineSet
511 0 m 0,0,1
 556 0 556 0 590 -23.5 c 128,-1,2
 624 -47 624 -47 624 -87 c 0,3,4
 624 -107 624 -107 611 -118 c 128,-1,5
 598 -129 598 -129 581 -129 c 0,6,7
 563 -129 563 -129 551 -118.5 c 128,-1,8
 539 -108 539 -108 539 -87 c 0,9,10
 539 -48 539 -48 578 -44 c 1,11,12
 551 -23 551 -23 511 -23 c 0,13,14
 412 -23 412 -23 412 -234 c 2,15,-1
 412 -292 l 1,16,17
 502 -306 502 -306 567 -371 c 1,18,19
 649 -451 649 -451 649 -569 c 128,-1,20
 649 -687 649 -687 567 -767 c 1,21,22
 502 -832 502 -832 412 -846 c 1,23,-1
 412 -903 l 2,24,25
 412 -997 412 -997 360.5 -1067.5 c 128,-1,26
 309 -1138 309 -1138 227 -1138 c 0,27,28
 182 -1138 182 -1138 148 -1114.5 c 128,-1,29
 114 -1091 114 -1091 114 -1051 c 0,30,31
 114 -1031 114 -1031 126 -1020 c 128,-1,32
 138 -1009 138 -1009 156 -1009 c 0,33,34
 173 -1009 173 -1009 186 -1020 c 128,-1,35
 199 -1031 199 -1031 199 -1051 c 0,36,37
 199 -1070 199 -1070 187.5 -1081 c 128,-1,38
 176 -1092 176 -1092 160 -1094 c 1,39,40
 186 -1115 186 -1115 227 -1115 c 0,41,42
 326 -1115 326 -1115 326 -903 c 2,43,-1
 326 -846 l 1,44,45
 235 -832 235 -832 170 -767 c 0,46,47
 88 -685 88 -685 88 -569 c 128,-1,48
 88 -453 88 -453 170 -371 c 0,49,50
 235 -306 235 -306 326 -292 c 1,51,-1
 326 -234 l 2,52,53
 326 -141 326 -141 377 -70.5 c 128,-1,54
 428 0 428 0 511 0 c 0,0,1
549 -750 m 1,55,56
 624 -673 624 -673 624 -569 c 0,57,58
 624 -462 624 -462 549 -389 c 1,59,60
 493 -333 493 -333 412 -317 c 1,61,-1
 412 -820 l 1,62,63
 490 -806 490 -806 549 -750 c 1,55,56
114 -569 m 0,64,65
 114 -674 114 -674 188 -750 c 1,66,67
 248 -806 248 -806 326 -820 c 1,68,-1
 326 -317 l 1,69,70
 244 -333 244 -333 188 -389 c 1,71,72
 114 -461 114 -461 114 -569 c 0,64,65
EndSplineSet
EndChar

StartChar: oiint
Encoding: 118 118 116
Width: 768
GlyphClass: 2
Flags: W
TeX: 0 1138
LayerCount: 2
Fore
SplineSet
435 0 m 0,0,1
 480 0 480 0 514.5 -23.5 c 128,-1,2
 549 -47 549 -47 549 -87 c 0,3,4
 549 -107 549 -107 536 -118 c 128,-1,5
 523 -129 523 -129 506 -129 c 0,6,7
 488 -129 488 -129 476 -118.5 c 128,-1,8
 464 -108 464 -108 464 -87 c 0,9,10
 464 -68 464 -68 475 -57 c 128,-1,11
 486 -46 486 -46 502 -44 c 1,12,13
 475 -23 475 -23 435 -23 c 0,14,15
 398 -23 398 -23 377 -55 c 128,-1,16
 356 -87 356 -87 350.5 -129 c 128,-1,17
 345 -171 345 -171 345 -234 c 2,18,-1
 345 -289 l 1,19,-1
 620 -289 l 1,20,-1
 620 -234 l 2,21,22
 620 -141 620 -141 667.5 -70.5 c 128,-1,23
 715 0 715 0 795 0 c 0,24,25
 840 0 840 0 874 -23.5 c 128,-1,26
 908 -47 908 -47 908 -87 c 0,27,28
 908 -107 908 -107 895.5 -118 c 128,-1,29
 883 -129 883 -129 865 -129 c 0,30,31
 848 -129 848 -129 835.5 -118 c 128,-1,32
 823 -107 823 -107 823 -87 c 0,33,34
 823 -68 823 -68 834 -57 c 128,-1,35
 845 -46 845 -46 861 -44 c 1,36,37
 835 -23 835 -23 795 -23 c 0,38,39
 758 -23 758 -23 737 -55 c 128,-1,40
 716 -87 716 -87 710.5 -129 c 128,-1,41
 705 -171 705 -171 705 -234 c 2,42,-1
 705 -302 l 1,43,44
 768 -321 768 -321 818 -371 c 0,45,46
 900 -453 900 -453 900 -569 c 128,-1,47
 900 -685 900 -685 818 -767 c 0,48,49
 770 -815 770 -815 705 -836 c 1,50,-1
 705 -903 l 2,51,52
 705 -997 705 -997 657.5 -1067.5 c 128,-1,53
 610 -1138 610 -1138 529 -1138 c 0,54,55
 485 -1138 485 -1138 451 -1114.5 c 128,-1,56
 417 -1091 417 -1091 417 -1051 c 0,57,58
 417 -1031 417 -1031 429 -1020 c 128,-1,59
 441 -1009 441 -1009 459 -1009 c 0,60,61
 476 -1009 476 -1009 489 -1020 c 128,-1,62
 502 -1031 502 -1031 502 -1051 c 0,63,64
 502 -1070 502 -1070 490.5 -1081 c 128,-1,65
 479 -1092 479 -1092 463 -1094 c 1,66,67
 489 -1115 489 -1115 529 -1115 c 0,68,69
 557 -1115 557 -1115 576 -1098 c 128,-1,70
 595 -1081 595 -1081 604 -1049 c 128,-1,71
 613 -1017 613 -1017 616.5 -983.5 c 128,-1,72
 620 -950 620 -950 620 -903 c 2,73,-1
 620 -849 l 1,74,-1
 345 -849 l 1,75,-1
 345 -903 l 2,76,77
 345 -997 345 -997 297.5 -1067.5 c 128,-1,78
 250 -1138 250 -1138 170 -1138 c 0,79,80
 125 -1138 125 -1138 90.5 -1114.5 c 128,-1,81
 56 -1091 56 -1091 56 -1051 c 0,82,83
 56 -1031 56 -1031 69 -1020 c 128,-1,84
 82 -1009 82 -1009 99 -1009 c 0,85,86
 117 -1009 117 -1009 129.5 -1020 c 128,-1,87
 142 -1031 142 -1031 142 -1051 c 0,88,89
 142 -1070 142 -1070 130.5 -1081 c 128,-1,90
 119 -1092 119 -1092 103 -1094 c 1,91,92
 130 -1115 130 -1115 170 -1115 c 0,93,94
 207 -1115 207 -1115 228 -1083 c 128,-1,95
 249 -1051 249 -1051 254.5 -1008.5 c 128,-1,96
 260 -966 260 -966 260 -903 c 2,97,-1
 260 -836 l 1,98,99
 194 -814 194 -814 147 -767 c 0,100,101
 65 -687 65 -687 65 -569 c 128,-1,102
 65 -451 65 -451 147 -371 c 0,103,104
 196 -322 196 -322 260 -302 c 1,105,-1
 260 -234 l 2,106,107
 260 -141 260 -141 308 -70.5 c 128,-1,108
 356 0 356 0 435 0 c 0,0,1
345 -823 m 1,109,-1
 620 -823 l 1,110,-1
 620 -314 l 1,111,-1
 345 -314 l 1,112,-1
 345 -823 l 1,109,-1
90 -569 m 0,113,114
 90 -672 90 -672 165 -749 c 1,115,116
 210 -792 210 -792 260 -809 c 1,117,-1
 260 -329 l 1,118,119
 207 -346 207 -346 165 -389 c 0,120,121
 90 -464 90 -464 90 -569 c 0,113,114
800 -750 m 1,122,123
 874 -674 874 -674 874 -569 c 0,124,125
 874 -462 874 -462 801 -389 c 0,126,127
 760 -348 760 -348 705 -329 c 1,128,-1
 705 -809 l 1,129,130
 757 -791 757 -791 800 -750 c 1,122,123
EndSplineSet
EndChar

StartChar: dispvarint
Encoding: 119 119 117
Width: 568
GlyphClass: 2
Flags: W
TeX: 0 1707
LayerCount: 2
Fore
SplineSet
170 -1707 m 0,0,1
 125 -1707 125 -1707 90.5 -1679.5 c 128,-1,2
 56 -1652 56 -1652 56 -1610 c 0,3,4
 56 -1587 56 -1587 71 -1573.5 c 128,-1,5
 86 -1560 86 -1560 106 -1560 c 128,-1,6
 126 -1560 126 -1560 141.5 -1573.5 c 128,-1,7
 157 -1587 157 -1587 157 -1610 c 128,-1,8
 157 -1633 157 -1633 141.5 -1646 c 128,-1,9
 126 -1659 126 -1659 106 -1659 c 2,10,-1
 104 -1659 l 1,11,12
 131 -1683 131 -1683 170 -1683 c 0,13,14
 233 -1683 233 -1683 276 -1635 c 128,-1,15
 319 -1587 319 -1587 336.5 -1516.5 c 128,-1,16
 354 -1446 354 -1446 354 -1359 c 2,17,-1
 354 -348 l 2,18,19
 354 -258 354 -258 386 -179.5 c 128,-1,20
 418 -101 418 -101 481 -50.5 c 128,-1,21
 544 0 544 0 625 0 c 0,22,23
 670 0 670 0 703.5 -27.5 c 128,-1,24
 737 -55 737 -55 737 -97 c 0,25,26
 737 -121 737 -121 722 -134 c 128,-1,27
 707 -147 707 -147 687 -147 c 128,-1,28
 667 -147 667 -147 652.5 -134 c 128,-1,29
 638 -121 638 -121 638 -97 c 0,30,31
 638 -74 638 -74 653 -61 c 128,-1,32
 668 -48 668 -48 688 -48 c 2,33,-1
 690 -48 l 1,34,35
 663 -23 663 -23 625 -23 c 0,36,37
 578 -23 578 -23 543.5 -50 c 128,-1,38
 509 -77 509 -77 490.5 -124.5 c 128,-1,39
 472 -172 472 -172 463 -227.5 c 128,-1,40
 454 -283 454 -283 454 -348 c 2,41,-1
 454 -1359 l 2,42,43
 454 -1449 454 -1449 419.5 -1528 c 128,-1,44
 385 -1607 385 -1607 319 -1657 c 128,-1,45
 253 -1707 253 -1707 170 -1707 c 0,0,1
EndSplineSet
EndChar

StartChar: dispiint
Encoding: 120 120 118
Width: 1080
GlyphClass: 2
Flags: W
TeX: 0 1707
LayerCount: 2
Fore
SplineSet
170 -1707 m 0,0,1
 125 -1707 125 -1707 90.5 -1679.5 c 128,-1,2
 56 -1652 56 -1652 56 -1610 c 0,3,4
 56 -1587 56 -1587 71 -1573.5 c 128,-1,5
 86 -1560 86 -1560 106 -1560 c 128,-1,6
 126 -1560 126 -1560 141.5 -1573.5 c 128,-1,7
 157 -1587 157 -1587 157 -1610 c 128,-1,8
 157 -1633 157 -1633 141.5 -1646 c 128,-1,9
 126 -1659 126 -1659 106 -1659 c 2,10,-1
 104 -1659 l 1,11,12
 131 -1683 131 -1683 170 -1683 c 0,13,14
 233 -1683 233 -1683 276.5 -1635 c 128,-1,15
 320 -1587 320 -1587 337.5 -1516.5 c 128,-1,16
 355 -1446 355 -1446 355 -1359 c 2,17,-1
 355 -348 l 2,18,19
 355 -258 355 -258 386.5 -179.5 c 128,-1,20
 418 -101 418 -101 481 -50.5 c 128,-1,21
 544 0 544 0 625 0 c 0,22,23
 670 0 670 0 704 -27.5 c 128,-1,24
 738 -55 738 -55 738 -97 c 0,25,26
 738 -121 738 -121 723 -134 c 128,-1,27
 708 -147 708 -147 688 -147 c 128,-1,28
 668 -147 668 -147 653.5 -134 c 128,-1,29
 639 -121 639 -121 639 -97 c 0,30,31
 639 -74 639 -74 654 -61 c 128,-1,32
 669 -48 669 -48 689 -48 c 2,33,-1
 691 -48 l 1,34,35
 664 -23 664 -23 625 -23 c 0,36,37
 579 -23 579 -23 544.5 -50 c 128,-1,38
 510 -77 510 -77 491 -124.5 c 128,-1,39
 472 -172 472 -172 463.5 -227.5 c 128,-1,40
 455 -283 455 -283 455 -348 c 2,41,-1
 455 -1359 l 2,42,43
 455 -1449 455 -1449 420.5 -1528 c 128,-1,44
 386 -1607 386 -1607 319.5 -1657 c 128,-1,45
 253 -1707 253 -1707 170 -1707 c 0,0,1
682 -1707 m 0,46,47
 637 -1707 637 -1707 602.5 -1679.5 c 128,-1,48
 568 -1652 568 -1652 568 -1610 c 0,49,50
 568 -1587 568 -1587 582.5 -1573.5 c 128,-1,51
 597 -1560 597 -1560 617 -1560 c 128,-1,52
 637 -1560 637 -1560 652.5 -1573.5 c 128,-1,53
 668 -1587 668 -1587 668 -1610 c 128,-1,54
 668 -1633 668 -1633 652.5 -1646 c 128,-1,55
 637 -1659 637 -1659 617 -1659 c 2,56,-1
 615 -1659 l 1,57,58
 642 -1683 642 -1683 682 -1683 c 0,59,60
 774 -1683 774 -1683 820 -1589 c 128,-1,61
 866 -1495 866 -1495 866 -1359 c 2,62,-1
 866 -348 l 2,63,64
 866 -208 866 -208 941 -104 c 128,-1,65
 1016 0 1016 0 1136 0 c 0,66,67
 1181 0 1181 0 1215 -27.5 c 128,-1,68
 1249 -55 1249 -55 1249 -97 c 0,69,70
 1249 -121 1249 -121 1234 -134 c 128,-1,71
 1219 -147 1219 -147 1199 -147 c 128,-1,72
 1179 -147 1179 -147 1164.5 -134 c 128,-1,73
 1150 -121 1150 -121 1150 -97 c 0,74,75
 1150 -74 1150 -74 1165 -61 c 128,-1,76
 1180 -48 1180 -48 1200 -48 c 2,77,-1
 1202 -48 l 1,78,79
 1175 -23 1175 -23 1136 -23 c 0,80,81
 1090 -23 1090 -23 1055.5 -50 c 128,-1,82
 1021 -77 1021 -77 1002 -124.5 c 128,-1,83
 983 -172 983 -172 974.5 -227.5 c 128,-1,84
 966 -283 966 -283 966 -348 c 2,85,-1
 966 -1359 l 2,86,87
 966 -1499 966 -1499 886 -1603 c 128,-1,88
 806 -1707 806 -1707 682 -1707 c 0,46,47
EndSplineSet
EndChar

StartChar: dispiiint
Encoding: 121 121 119
Width: 1592
GlyphClass: 2
Flags: W
TeX: 0 1707
LayerCount: 2
Fore
SplineSet
682 -1707 m 0,0,1
 637 -1707 637 -1707 602.5 -1679.5 c 128,-1,2
 568 -1652 568 -1652 568 -1610 c 0,3,4
 568 -1587 568 -1587 582.5 -1573.5 c 128,-1,5
 597 -1560 597 -1560 617 -1560 c 128,-1,6
 637 -1560 637 -1560 652.5 -1573.5 c 128,-1,7
 668 -1587 668 -1587 668 -1610 c 128,-1,8
 668 -1633 668 -1633 652.5 -1646 c 128,-1,9
 637 -1659 637 -1659 617 -1659 c 2,10,-1
 615 -1659 l 1,11,12
 642 -1683 642 -1683 682 -1683 c 0,13,14
 774 -1683 774 -1683 820 -1589 c 128,-1,15
 866 -1495 866 -1495 866 -1359 c 2,16,-1
 866 -348 l 2,17,18
 866 -258 866 -258 898 -179.5 c 128,-1,19
 930 -101 930 -101 993 -50.5 c 128,-1,20
 1056 0 1056 0 1137 0 c 0,21,22
 1182 0 1182 0 1216 -27.5 c 128,-1,23
 1250 -55 1250 -55 1250 -97 c 0,24,25
 1250 -121 1250 -121 1235 -134 c 128,-1,26
 1220 -147 1220 -147 1200 -147 c 128,-1,27
 1180 -147 1180 -147 1165.5 -134 c 128,-1,28
 1151 -121 1151 -121 1151 -97 c 0,29,30
 1151 -74 1151 -74 1166 -61 c 128,-1,31
 1181 -48 1181 -48 1200 -48 c 2,32,-1
 1202 -48 l 1,33,34
 1175 -23 1175 -23 1137 -23 c 0,35,36
 1076 -23 1076 -23 1036 -71.5 c 128,-1,37
 996 -120 996 -120 981 -189.5 c 128,-1,38
 966 -259 966 -259 966 -348 c 2,39,-1
 966 -1359 l 2,40,41
 966 -1449 966 -1449 931.5 -1528 c 128,-1,42
 897 -1607 897 -1607 831 -1657 c 128,-1,43
 765 -1707 765 -1707 682 -1707 c 0,0,1
1193 -1707 m 0,44,45
 1148 -1707 1148 -1707 1113.5 -1679.5 c 128,-1,46
 1079 -1652 1079 -1652 1079 -1610 c 0,47,48
 1079 -1587 1079 -1587 1094 -1573.5 c 128,-1,49
 1109 -1560 1109 -1560 1129 -1560 c 128,-1,50
 1149 -1560 1149 -1560 1164.5 -1573.5 c 128,-1,51
 1180 -1587 1180 -1587 1180 -1610 c 128,-1,52
 1180 -1633 1180 -1633 1164.5 -1646 c 128,-1,53
 1149 -1659 1149 -1659 1129 -1659 c 2,54,-1
 1127 -1659 l 1,55,56
 1154 -1683 1154 -1683 1193 -1683 c 0,57,58
 1256 -1683 1256 -1683 1299.5 -1635 c 128,-1,59
 1343 -1587 1343 -1587 1360.5 -1516.5 c 128,-1,60
 1378 -1446 1378 -1446 1378 -1359 c 2,61,-1
 1378 -348 l 2,62,63
 1378 -258 1378 -258 1409.5 -179.5 c 128,-1,64
 1441 -101 1441 -101 1504 -50.5 c 128,-1,65
 1567 0 1567 0 1648 0 c 0,66,67
 1693 0 1693 0 1727 -27.5 c 128,-1,68
 1761 -55 1761 -55 1761 -97 c 0,69,70
 1761 -121 1761 -121 1746 -134 c 128,-1,71
 1731 -147 1731 -147 1711 -147 c 128,-1,72
 1691 -147 1691 -147 1676.5 -134 c 128,-1,73
 1662 -121 1662 -121 1662 -97 c 0,74,75
 1662 -74 1662 -74 1677 -61 c 128,-1,76
 1692 -48 1692 -48 1712 -48 c 2,77,-1
 1714 -48 l 1,78,79
 1687 -23 1687 -23 1648 -23 c 0,80,81
 1602 -23 1602 -23 1567.5 -50 c 128,-1,82
 1533 -77 1533 -77 1514 -124.5 c 128,-1,83
 1495 -172 1495 -172 1486.5 -227.5 c 128,-1,84
 1478 -283 1478 -283 1478 -348 c 2,85,-1
 1478 -1359 l 2,86,87
 1478 -1449 1478 -1449 1443.5 -1528 c 128,-1,88
 1409 -1607 1409 -1607 1342.5 -1657 c 128,-1,89
 1276 -1707 1276 -1707 1193 -1707 c 0,44,45
170 -1707 m 0,90,91
 125 -1707 125 -1707 90.5 -1679.5 c 128,-1,92
 56 -1652 56 -1652 56 -1610 c 0,93,94
 56 -1587 56 -1587 71 -1573.5 c 128,-1,95
 86 -1560 86 -1560 106 -1560 c 128,-1,96
 126 -1560 126 -1560 141.5 -1573.5 c 128,-1,97
 157 -1587 157 -1587 157 -1610 c 128,-1,98
 157 -1633 157 -1633 141.5 -1646 c 128,-1,99
 126 -1659 126 -1659 106 -1659 c 2,100,-1
 104 -1659 l 1,101,102
 131 -1683 131 -1683 170 -1683 c 0,103,104
 233 -1683 233 -1683 276.5 -1635 c 128,-1,105
 320 -1587 320 -1587 337.5 -1516.5 c 128,-1,106
 355 -1446 355 -1446 355 -1359 c 2,107,-1
 355 -348 l 2,108,109
 355 -208 355 -208 430 -104 c 128,-1,110
 505 0 505 0 625 0 c 0,111,112
 670 0 670 0 704 -27.5 c 128,-1,113
 738 -55 738 -55 738 -97 c 0,114,115
 738 -121 738 -121 723 -134 c 128,-1,116
 708 -147 708 -147 688 -147 c 128,-1,117
 668 -147 668 -147 653.5 -134 c 128,-1,118
 639 -121 639 -121 639 -97 c 0,119,120
 639 -74 639 -74 654 -61 c 128,-1,121
 669 -48 669 -48 689 -48 c 2,122,-1
 691 -48 l 1,123,124
 664 -23 664 -23 625 -23 c 0,125,126
 579 -23 579 -23 544.5 -50 c 128,-1,127
 510 -77 510 -77 491 -124.5 c 128,-1,128
 472 -172 472 -172 463.5 -227.5 c 128,-1,129
 455 -283 455 -283 455 -348 c 2,130,-1
 455 -1359 l 2,131,132
 455 -1449 455 -1449 420.5 -1528 c 128,-1,133
 386 -1607 386 -1607 319.5 -1657 c 128,-1,134
 253 -1707 253 -1707 170 -1707 c 0,90,91
EndSplineSet
EndChar

StartChar: dispvaroint
Encoding: 122 122 120
Width: 568
GlyphClass: 2
Flags: W
TeX: 0 1707
LayerCount: 2
Fore
SplineSet
625 0 m 0,0,1
 670 0 670 0 703.5 -27.5 c 128,-1,2
 737 -55 737 -55 737 -97 c 0,3,4
 737 -121 737 -121 722 -134 c 128,-1,5
 707 -147 707 -147 687 -147 c 128,-1,6
 667 -147 667 -147 652.5 -134 c 128,-1,7
 638 -121 638 -121 638 -97 c 0,8,9
 638 -74 638 -74 653 -61 c 128,-1,10
 668 -48 668 -48 688 -48 c 2,11,-1
 690 -48 l 1,12,13
 663 -23 663 -23 625 -23 c 0,14,15
 578 -23 578 -23 543.5 -50 c 128,-1,16
 509 -77 509 -77 490.5 -124.5 c 128,-1,17
 472 -172 472 -172 463 -227.5 c 128,-1,18
 454 -283 454 -283 454 -348 c 2,19,-1
 454 -460 l 1,20,21
 590 -477 590 -477 685 -572 c 1,22,23
 801 -690 801 -690 801 -853 c 0,24,25
 801 -932 801 -932 770.5 -1005.5 c 128,-1,26
 740 -1079 740 -1079 685 -1134 c 0,27,28
 589 -1230 589 -1230 454 -1247 c 1,29,-1
 454 -1359 l 2,30,31
 454 -1449 454 -1449 419.5 -1528 c 128,-1,32
 385 -1607 385 -1607 319 -1657 c 128,-1,33
 253 -1707 253 -1707 170 -1707 c 0,34,35
 125 -1707 125 -1707 90.5 -1679.5 c 128,-1,36
 56 -1652 56 -1652 56 -1610 c 0,37,38
 56 -1587 56 -1587 71 -1573.5 c 128,-1,39
 86 -1560 86 -1560 106 -1560 c 128,-1,40
 126 -1560 126 -1560 141.5 -1573.5 c 128,-1,41
 157 -1587 157 -1587 157 -1610 c 128,-1,42
 157 -1633 157 -1633 141.5 -1646 c 128,-1,43
 126 -1659 126 -1659 106 -1659 c 2,44,-1
 104 -1659 l 1,45,46
 131 -1683 131 -1683 170 -1683 c 0,47,48
 233 -1683 233 -1683 276 -1635 c 128,-1,49
 319 -1587 319 -1587 336.5 -1516.5 c 128,-1,50
 354 -1446 354 -1446 354 -1359 c 2,51,-1
 354 -1247 l 1,52,53
 220 -1230 220 -1230 124 -1134 c 0,54,55
 68 -1079 68 -1079 37.5 -1005.5 c 128,-1,56
 7 -932 7 -932 7 -853 c 0,57,58
 7 -689 7 -689 124 -572 c 0,59,60
 219 -477 219 -477 354 -460 c 1,61,-1
 354 -348 l 2,62,63
 354 -258 354 -258 386 -179.5 c 128,-1,64
 418 -101 418 -101 481 -50.5 c 128,-1,65
 544 0 544 0 625 0 c 0,0,1
667 -1116 m 0,66,67
 775 -1008 775 -1008 775 -853 c 0,68,69
 775 -699 775 -699 667 -591 c 0,70,71
 578 -503 578 -503 454 -485 c 1,72,-1
 454 -1222 l 1,73,74
 580 -1203 580 -1203 667 -1116 c 0,66,67
33 -853 m 0,75,76
 33 -926 33 -926 61.5 -995 c 128,-1,77
 90 -1064 90 -1064 142 -1116 c 0,78,79
 229 -1203 229 -1203 354 -1222 c 1,80,-1
 354 -485 l 1,81,82
 231 -503 231 -503 142 -591 c 0,83,84
 33 -700 33 -700 33 -853 c 0,75,76
EndSplineSet
EndChar

StartChar: dispoiint
Encoding: 123 123 121
Width: 1080
GlyphClass: 2
Flags: W
TeX: 0 1707
LayerCount: 2
Fore
SplineSet
170 -1707 m 1,0,-1
 166 -1707 l 2,1,2
 123 -1707 123 -1707 89.5 -1679 c 128,-1,3
 56 -1651 56 -1651 56 -1610 c 0,4,5
 56 -1587 56 -1587 72 -1573 c 128,-1,6
 88 -1559 88 -1559 109 -1559 c 128,-1,7
 130 -1559 130 -1559 143.5 -1572.5 c 128,-1,8
 157 -1586 157 -1586 157 -1610 c 0,9,10
 157 -1631 157 -1631 142 -1645 c 128,-1,11
 127 -1659 127 -1659 104 -1659 c 1,12,13
 152 -1683 152 -1683 170 -1683 c 0,14,15
 221 -1683 221 -1683 259 -1653.5 c 128,-1,16
 297 -1624 297 -1624 316.5 -1575 c 128,-1,17
 336 -1526 336 -1526 345 -1472 c 128,-1,18
 354 -1418 354 -1418 354 -1359 c 2,19,-1
 354 -1214 l 1,20,21
 290 -1186 290 -1186 238 -1134 c 0,22,23
 183 -1079 183 -1079 152.5 -1005.5 c 128,-1,24
 122 -932 122 -932 122 -853 c 0,25,26
 122 -690 122 -690 238 -572 c 0,27,28
 289 -520 289 -520 354 -492 c 1,29,-1
 354 -348 l 2,30,31
 354 -260 354 -260 385 -181 c 128,-1,32
 416 -102 416 -102 476.5 -51 c 128,-1,33
 537 0 537 0 614 0 c 0,34,35
 665 0 665 0 689 -17 c 1,36,37
 738 -46 738 -46 738 -97 c 0,38,39
 738 -120 738 -120 723.5 -133.5 c 128,-1,40
 709 -147 709 -147 689 -147 c 1,41,42
 638 -142 638 -142 638 -97 c 0,43,44
 638 -75 638 -75 652 -62.5 c 128,-1,45
 666 -50 666 -50 690 -48 c 1,46,47
 668 -23 668 -23 614 -23 c 0,48,49
 570 -23 570 -23 537.5 -52 c 128,-1,50
 505 -81 505 -81 488 -130.5 c 128,-1,51
 471 -180 471 -180 463 -234 c 128,-1,52
 455 -288 455 -288 455 -348 c 2,53,-1
 455 -462 l 1,54,55
 488 -457 488 -457 518 -457 c 2,56,-1
 803 -457 l 2,57,58
 831 -457 831 -457 866 -462 c 1,59,-1
 866 -348 l 2,60,61
 866 -208 866 -208 941 -104 c 128,-1,62
 1016 0 1016 0 1136 0 c 0,63,64
 1181 0 1181 0 1215 -27.5 c 128,-1,65
 1249 -55 1249 -55 1249 -97 c 0,66,67
 1249 -121 1249 -121 1234 -134 c 128,-1,68
 1219 -147 1219 -147 1199 -147 c 128,-1,69
 1179 -147 1179 -147 1164.5 -134 c 128,-1,70
 1150 -121 1150 -121 1150 -97 c 0,71,72
 1150 -74 1150 -74 1165 -61 c 128,-1,73
 1180 -48 1180 -48 1200 -48 c 2,74,-1
 1202 -48 l 1,75,76
 1175 -23 1175 -23 1136 -23 c 0,77,78
 1090 -23 1090 -23 1055.5 -50 c 128,-1,79
 1021 -77 1021 -77 1002 -124.5 c 128,-1,80
 983 -172 983 -172 974.5 -227.5 c 128,-1,81
 966 -283 966 -283 966 -348 c 2,82,-1
 966 -492 l 1,83,84
 1030 -520 1030 -520 1082 -572 c 0,85,86
 1199 -689 1199 -689 1199 -853 c 0,87,88
 1199 -932 1199 -932 1168.5 -1005.5 c 128,-1,89
 1138 -1079 1138 -1079 1083 -1134 c 0,90,91
 1032 -1185 1032 -1185 966 -1214 c 1,92,-1
 966 -1359 l 2,93,94
 966 -1499 966 -1499 886 -1603 c 128,-1,95
 806 -1707 806 -1707 682 -1707 c 0,96,97
 637 -1707 637 -1707 602.5 -1679.5 c 128,-1,98
 568 -1652 568 -1652 568 -1610 c 0,99,100
 568 -1587 568 -1587 582.5 -1573.5 c 128,-1,101
 597 -1560 597 -1560 617 -1560 c 128,-1,102
 637 -1560 637 -1560 652.5 -1573.5 c 128,-1,103
 668 -1587 668 -1587 668 -1610 c 128,-1,104
 668 -1633 668 -1633 652.5 -1646 c 128,-1,105
 637 -1659 637 -1659 617 -1659 c 2,106,-1
 615 -1659 l 1,107,108
 642 -1683 642 -1683 682 -1683 c 0,109,110
 774 -1683 774 -1683 820 -1589 c 128,-1,111
 866 -1495 866 -1495 866 -1359 c 2,112,-1
 866 -1245 l 1,113,114
 831 -1250 831 -1250 803 -1250 c 2,115,-1
 518 -1250 l 2,116,117
 488 -1250 488 -1250 455 -1245 c 1,118,-1
 455 -1359 l 2,119,120
 455 -1498 455 -1498 374.5 -1602 c 128,-1,121
 294 -1706 294 -1706 170 -1707 c 1,0,-1
803 -482 m 2,122,-1
 518 -482 l 2,123,124
 488 -482 488 -482 455 -487 c 1,125,-1
 455 -1219 l 1,126,127
 485 -1225 485 -1225 518 -1225 c 2,128,-1
 803 -1225 l 2,129,130
 834 -1225 834 -1225 866 -1219 c 1,131,-1
 866 -487 l 1,132,133
 831 -482 831 -482 803 -482 c 2,122,-1
1065 -1116 m 1,134,135
 1117 -1064 1117 -1064 1145.5 -995.5 c 128,-1,136
 1174 -927 1174 -927 1174 -853 c 0,137,138
 1174 -698 1174 -698 1065 -591 c 0,139,140
 1019 -546 1019 -546 966 -520 c 1,141,-1
 966 -1187 l 1,142,143
 1022 -1157 1022 -1157 1065 -1116 c 1,134,135
256 -1116 m 0,144,145
 299 -1159 299 -1159 354 -1186 c 1,146,-1
 354 -520 l 1,147,148
 301 -546 301 -546 256 -591 c 0,149,150
 147 -698 147 -698 147 -853 c 0,151,152
 147 -927 147 -927 175.5 -995.5 c 128,-1,153
 204 -1064 204 -1064 256 -1116 c 0,144,145
EndSplineSet
EndChar

StartChar: brokenvert
Encoding: 124 124 122
Width: 113
GlyphClass: 2
Flags: W
TeX: 0 0
LayerCount: 2
Fore
SplineSet
35 32 m 2,0,-1
 35 293 l 2,1,2
 35 301 35 301 41 307 c 128,-1,3
 47 313 47 313 56 313 c 128,-1,4
 65 313 65 313 71 307 c 128,-1,5
 77 301 77 301 77 293 c 2,6,-1
 77 32 l 2,7,8
 77 23 77 23 71 17 c 128,-1,9
 65 11 65 11 56 11 c 128,-1,10
 47 11 47 11 41 17 c 128,-1,11
 35 23 35 23 35 32 c 2,0,-1
77 679 m 2,12,-1
 77 418 l 2,13,14
 77 410 77 410 71 403.5 c 128,-1,15
 65 397 65 397 56 397 c 128,-1,16
 47 397 47 397 41 403.5 c 128,-1,17
 35 410 35 410 35 418 c 2,18,-1
 35 679 l 2,19,20
 35 687 35 687 41 693 c 128,-1,21
 47 699 47 699 56 699 c 128,-1,22
 65 699 65 699 71 693 c 128,-1,23
 77 687 77 687 77 679 c 2,12,-1
EndSplineSet
EndChar

StartChar: APLinput
Encoding: 125 125 123
Width: 795
GlyphClass: 2
Flags: W
TeX: 0 0
LayerCount: 2
Fore
SplineSet
56 653 m 2,0,1
 56 662 56 662 62.5 668 c 128,-1,2
 69 674 69 674 77 674 c 2,3,-1
 717 674 l 2,4,5
 725 674 725 674 731 668 c 128,-1,6
 737 662 737 662 737 653 c 2,7,-1
 737 -141 l 2,8,9
 737 -150 737 -150 731 -156 c 128,-1,10
 725 -162 725 -162 717 -162 c 2,11,-1
 77 -162 l 2,12,13
 69 -162 69 -162 62.5 -156 c 128,-1,14
 56 -150 56 -150 56 -141 c 2,15,-1
 56 653 l 2,0,1
446 632 m 1,16,-1
 418 381 l 2,17,18
 416 365 416 365 399 362 c 1,19,-1
 395 362 l 1,20,21
 379 366 379 366 377 381 c 2,22,-1
 348 632 l 1,23,-1
 98 632 l 1,24,-1
 98 -120 l 1,25,-1
 696 -120 l 1,26,-1
 696 632 l 1,27,-1
 446 632 l 1,16,-1
EndSplineSet
EndChar

StartChar: APLbox
Encoding: 126 126 124
Width: 795
GlyphClass: 2
Flags: W
TeX: 0 0
LayerCount: 2
Fore
SplineSet
77 674 m 2,0,-1
 717 674 l 2,1,2
 725 674 725 674 731 668 c 128,-1,3
 737 662 737 662 737 653 c 2,4,-1
 737 -141 l 2,5,6
 737 -150 737 -150 731 -156 c 128,-1,7
 725 -162 725 -162 717 -162 c 2,8,-1
 77 -162 l 2,9,10
 69 -162 69 -162 62.5 -156 c 128,-1,11
 56 -150 56 -150 56 -141 c 2,12,-1
 56 653 l 2,13,14
 56 662 56 662 62.5 668 c 128,-1,15
 69 674 69 674 77 674 c 2,0,-1
98 632 m 1,16,-1
 98 -120 l 1,17,-1
 696 -120 l 1,18,-1
 696 632 l 1,19,-1
 98 632 l 1,16,-1
EndSplineSet
EndChar

StartChar: APLcomment
Encoding: 127 127 125
Width: 512
GlyphClass: 2
Flags: W
TeX: 0 0
LayerCount: 2
Fore
SplineSet
413 312 m 0,0,1
 413 376 413 376 367 425 c 1,2,3
 321 471 321 471 255 471 c 128,-1,4
 189 471 189 471 143 425 c 1,5,6
 97 376 97 376 97 312 c 0,7,8
 97 249 97 249 143 201 c 1,9,10
 189 155 189 155 255 155 c 128,-1,11
 321 155 321 155 367 201 c 1,12,13
 413 249 413 249 413 312 c 0,0,1
115 454 m 1,14,15
 175 512 175 512 255 512 c 128,-1,16
 335 512 335 512 395 454 c 1,17,18
 454 393 454 393 454 312 c 2,19,-1
 454 0 l 2,20,21
 454 -8 454 -8 447.5 -14 c 128,-1,22
 441 -20 441 -20 433 -20 c 0,23,24
 424 -20 424 -20 418.5 -14 c 128,-1,25
 413 -8 413 -8 413 0 c 2,26,-1
 413 191 l 1,27,28
 339 114 339 114 255 114 c 128,-1,29
 171 114 171 114 115 172 c 0,30,31
 103 184 103 184 97 191 c 1,32,-1
 97 0 l 2,33,34
 97 -8 97 -8 91.5 -14 c 128,-1,35
 86 -20 86 -20 77 -20 c 0,36,37
 69 -20 69 -20 62.5 -14 c 128,-1,38
 56 -8 56 -8 56 0 c 2,39,-1
 56 312 l 2,40,41
 56 393 56 393 115 454 c 1,14,15
EndSplineSet
EndChar

